<svg width="108" height="32" viewBox="0 0 108 32" fill="none" xmlns="http://www.w3.org/2000/svg">
<path d="M50.8713 12.0154L47.0036 21.2995L43.1646 12.0154H38L44.6747 26.7252H49.3888L56.0358 12.0154H50.8713Z" fill="#455261"/>
<path d="M67.9277 12.0154L67.8483 13.9257C66.6681 12.4741 64.982 11.7477 62.7899 11.7464C61.4316 11.7288 60.0912 12.063 58.8955 12.7176C57.7442 13.3505 56.7876 14.2942 56.1315 15.4445C55.4537 16.6189 55.1139 17.9497 55.1119 19.4368C55.11 20.924 55.4499 22.2421 56.1315 23.3913C56.7926 24.5223 57.7493 25.4453 58.8955 26.058C60.0636 26.6866 61.3617 27.0006 62.7899 27C64.9967 27 66.6828 26.2827 67.8483 24.848L67.9277 26.73H72.4859V12.0154H67.9277ZM66.6701 21.921C65.9553 22.5574 65.0155 22.8759 63.8506 22.8766C62.6857 22.8772 61.7449 22.5535 61.0282 21.9054C60.3148 21.258 59.9577 20.4241 59.9571 19.4038C59.9571 18.3479 60.3141 17.4917 61.0282 16.8352C61.7424 16.1787 62.6831 15.854 63.8506 15.8611C65.0155 15.8611 65.9553 16.1848 66.6701 16.8323C67.3848 17.4797 67.7428 18.331 67.7441 19.3863C67.7441 20.4423 67.3861 21.2885 66.6701 21.9249V21.921Z" fill="#455261"/>
<path d="M83.3956 15.9417V12.0154H79.0268V7.74247H74.2849V21.9385C74.2849 23.4631 74.7631 24.6868 75.7195 25.6093C76.6759 26.5319 77.9212 26.9938 79.4552 26.9951C80.9396 26.9951 82.2546 26.7831 83.4004 26.3591V22.5075C82.6233 22.7667 81.8091 22.8928 80.9912 22.8805C80.4069 22.8805 79.9392 22.7027 79.5729 22.3415C79.2066 21.9802 79.0315 21.5083 79.0315 20.9168V15.9417H83.3956Z" fill="#455261"/>
<path d="M89.3406 5.7769C88.8213 5.25444 88.1623 5 87.3685 5C86.5747 5 85.9167 5.25735 85.3945 5.7769C85.1379 6.03164 84.936 6.33747 84.8013 6.67522C84.6667 7.01297 84.6023 7.37533 84.6122 7.73956C84.6122 8.54463 84.8752 9.20888 85.3945 9.73038C85.9138 10.2519 86.5728 10.5073 87.3685 10.5073C88.1642 10.5073 88.8213 10.249 89.3406 9.73038C89.8599 9.21179 90.122 8.54463 90.122 7.73956C90.122 6.951 89.8615 6.29678 89.3406 5.7769ZM85.0148 12.0154V26.7252H89.7289V12.0154H85.0148Z" fill="#455261"/>
<path d="M102.039 19.196L107.628 12.0154H102.011L99.1781 15.9417L96.3434 12.0154H90.6805L96.2936 19.2232L90.3353 26.7252H95.9493L99.181 22.3677L102.386 26.7242H108L102.039 19.196Z" fill="#455261"/>
<path d="M32.9194 0H28.2868V2.38628C28.2868 3.18897 28.2556 3.98408 28.1931 4.77161C27.7248 10.7898 25.4539 16.5203 21.6834 21.1978C20.679 22.4487 19.5761 23.6151 18.3855 24.6857C17.7785 25.2318 17.15 25.7523 16.5 26.2471C15.8512 25.751 15.2218 25.2305 14.6117 24.6857C13.4211 23.6151 12.3182 22.4487 11.3138 21.1978C10.9682 20.7683 10.6356 20.3274 10.3134 19.88C10.2085 19.7339 10.1064 19.5879 10.0043 19.4419C10.0035 19.4385 10.0035 19.4349 10.0043 19.4315C9.91067 19.294 9.81701 19.1556 9.72334 19.0153C9.59783 18.8257 9.4742 18.6361 9.35618 18.4465C9.27282 18.3166 9.18852 18.1867 9.10984 18.054C8.8226 17.585 8.54785 17.1059 8.28559 16.6167C8.2144 16.4849 8.14416 16.3551 8.07578 16.2223C7.97088 16.0175 7.86597 15.8109 7.76388 15.6042C7.69394 15.4607 7.62588 15.3176 7.55969 15.1747C7.54657 15.1463 7.53065 15.1169 7.51754 15.0875C7.45197 14.9472 7.38734 14.8031 7.32178 14.658C7.31054 14.6343 7.30024 14.6106 7.28993 14.5841C7.22437 14.4438 7.16442 14.2996 7.1026 14.1565C6.94993 13.8019 6.80662 13.4435 6.66706 13.0804C6.5275 12.7173 6.41042 12.3808 6.2924 12.0252C6.23152 11.848 6.17438 11.6707 6.11912 11.4905C6.06386 11.3104 6.00672 11.1322 5.95427 10.952C5.90931 10.8032 5.86061 10.6524 5.82314 10.5017C5.72948 10.1509 5.63581 9.80108 5.5487 9.44651C5.52248 9.3299 5.49344 9.21328 5.46722 9.09383C5.44099 8.97437 5.41757 8.87103 5.39416 8.75727C5.35201 8.56765 5.31267 8.37804 5.27895 8.19791C5.1653 7.62907 5.07164 7.05265 4.99795 6.46864C4.97641 6.33402 4.95862 6.19655 4.9455 6.06097C4.93426 5.99461 4.92396 5.9254 4.91928 5.85903C4.90616 5.74527 4.89305 5.62866 4.88275 5.51489C4.87244 5.40112 4.85652 5.27313 4.84809 5.15178C4.83966 5.03043 4.82186 4.89675 4.81437 4.77255H21.0914C21.0546 5.13092 21.0093 5.48613 20.9556 5.83818C20.9294 6.02115 20.9004 6.20129 20.862 6.38142C20.8621 6.39691 20.8595 6.41231 20.8545 6.42693C20.8254 6.60421 20.7917 6.7796 20.7552 6.95405C20.7187 7.12849 20.6793 7.32285 20.6372 7.50582C20.595 7.6888 20.5529 7.86324 20.5088 8.04432C20.4246 8.37046 20.3356 8.69375 20.2391 9.01419C20.2072 9.11753 20.1735 9.22371 20.1398 9.32705C20.1211 9.38773 20.1033 9.44935 20.0817 9.51003C20.0555 9.59441 20.0265 9.68258 19.9956 9.76695C19.7284 10.5624 19.4156 11.3415 19.0589 12.1001C19.0168 12.1949 18.9727 12.2831 18.9278 12.3732C18.8707 12.4955 18.8098 12.6168 18.747 12.7391C18.6711 12.8899 18.5925 13.0416 18.5119 13.1895C18.5035 13.2084 18.4932 13.2264 18.4829 13.2454C18.4042 13.3886 18.3283 13.5298 18.2468 13.6692C18.1579 13.8256 18.0661 13.9849 17.9724 14.1432L17.9171 14.238C17.8469 14.3575 17.7729 14.4769 17.697 14.5964C17.5903 14.7661 17.4825 14.9358 17.3701 15.0998C17.2858 15.2269 17.2025 15.3492 17.1135 15.4734C17.0657 15.5454 17.0133 15.6165 16.9608 15.6886C16.8119 15.8971 16.6602 16.1048 16.5028 16.3086C16.3454 16.1048 16.1937 15.8971 16.0448 15.6886C15.9923 15.6165 15.9399 15.5454 15.8902 15.4734C15.8041 15.3492 15.7198 15.2269 15.6364 15.0998C15.5231 14.9358 15.4163 14.7661 15.3086 14.5964C15.2324 14.4769 15.159 14.3575 15.0885 14.238C15.0707 14.2086 15.0519 14.1773 15.0341 14.1432C14.9405 13.9896 14.8468 13.8304 14.7588 13.6692C14.6773 13.5289 14.6014 13.3848 14.5227 13.2454C14.5123 13.2273 14.5029 13.2087 14.4946 13.1895C14.4131 13.0416 14.3345 12.8899 14.2586 12.7391C14.1958 12.6168 14.1359 12.4955 14.0778 12.3732C14.0338 12.2831 13.9842 12.193 13.9467 12.1001C13.9205 12.0442 13.8942 11.9883 13.8708 11.9304H16.5028C16.5028 11.9304 16.5028 11.9304 16.5028 11.9361C16.5028 11.9418 16.5028 11.9361 16.5028 11.9304C16.589 11.7712 16.6705 11.6071 16.752 11.4422C16.825 11.2971 16.8953 11.1483 16.9636 10.9994C17.0002 10.9226 17.0367 10.8459 17.0713 10.7691C17.0713 10.7691 17.076 10.7558 17.0788 10.751L17.165 10.5548C17.1763 10.5301 17.1866 10.5045 17.1969 10.4799L17.2437 10.369C17.2596 10.3348 17.2755 10.2969 17.2915 10.2581C17.3439 10.1329 17.3936 10.0106 17.4404 9.88641C17.4722 9.80677 17.5031 9.72998 17.5341 9.65034C17.5837 9.52046 17.6333 9.39057 17.6783 9.26069C17.7017 9.19717 17.7251 9.13365 17.7457 9.07108C17.7982 8.92065 17.8481 8.76864 17.8956 8.61506C17.9218 8.53542 17.9481 8.45389 17.9715 8.37425C18.0052 8.26522 18.0398 8.15335 18.0708 8.04243C18.1129 7.89358 18.1522 7.74568 18.1916 7.59684C18.2253 7.4698 18.2571 7.33991 18.2852 7.21003C18.2909 7.19462 18.2953 7.17877 18.2984 7.16262H7.48007C7.5063 7.31905 7.53533 7.47548 7.56624 7.63665C7.59715 7.79783 7.63181 7.97606 7.66834 8.14292C7.69457 8.26996 7.72079 8.397 7.75264 8.52215C7.78167 8.6653 7.81539 8.80657 7.8463 8.94593C7.98774 9.52615 8.14509 10.1016 8.32306 10.6667C8.34647 10.7435 8.36989 10.8231 8.39611 10.8999C8.44669 11.0535 8.49915 11.2099 8.55066 11.3606C8.61623 11.5503 8.6846 11.7484 8.75579 11.939C8.80262 12.0717 8.84945 12.2016 8.90471 12.3343C8.95998 12.467 9.004 12.5884 9.05364 12.7135C9.10328 12.8387 9.16136 12.979 9.21662 13.1089C9.3234 13.3658 9.43673 13.6227 9.55194 13.8749C9.66715 14.1271 9.78704 14.3783 9.91067 14.6334C9.97062 14.7576 10.0334 14.8799 10.098 15.0041C10.2853 15.3729 10.4858 15.7388 10.69 16.0991C10.7612 16.2214 10.8286 16.3408 10.8998 16.4574C10.9419 16.5257 10.9813 16.5949 11.0225 16.6641C11.0965 16.7836 11.1667 16.9021 11.2426 17.0215C11.3288 17.1619 11.4177 17.306 11.5095 17.4406C11.6013 17.5752 11.6903 17.7193 11.7849 17.8568C12.2332 18.5097 12.7072 19.1443 13.2067 19.7605C14.2033 20.9981 15.3066 22.1434 16.5037 23.183C17.7009 22.1432 18.8046 20.9978 19.8017 19.7605C20.3012 19.1449 20.7733 18.5068 21.2179 17.8464C23.8457 13.9651 25.4335 9.46001 25.8262 4.77161C25.8943 3.98471 25.9286 3.1896 25.9292 2.38628V0H0V2.38628C0 2.69819 0.00561989 3.00915 0.0131131 3.31822C0.0131131 3.47465 0.0206063 3.62824 0.0290361 3.78183C0.0290361 3.82923 0.0290361 3.87663 0.0290361 3.92498C0.034656 4.08426 0.0421492 4.24353 0.0533889 4.39902C0.0608821 4.52321 0.0683753 4.64551 0.0768051 4.76971C0.134253 5.64762 0.224796 6.51446 0.348433 7.37025C0.372786 7.53237 0.396202 7.69354 0.422428 7.85566C0.432731 7.93814 0.445845 8.01778 0.458958 8.09457C0.485184 8.24247 0.5086 8.39131 0.537636 8.53732C0.543485 8.58897 0.552242 8.64025 0.563862 8.6909C0.597582 8.88999 0.636921 9.0853 0.67626 9.28155C0.715599 9.47779 0.757748 9.68732 0.801771 9.88641C0.804949 9.90688 0.809328 9.92714 0.814884 9.94709C0.859843 10.1462 0.903865 10.3396 0.951635 10.5358C0.990974 10.7103 1.03219 10.8828 1.07715 11.0525C1.1221 11.2222 1.15863 11.3711 1.20266 11.5266C1.28383 11.8337 1.37032 12.1384 1.46211 12.4405C1.52205 12.6396 1.58294 12.8415 1.64944 13.0397C1.8096 13.5384 1.97726 14.0313 2.15804 14.5168C2.22079 14.6865 2.28636 14.859 2.35192 15.0259C2.43529 15.243 2.52239 15.4601 2.61138 15.6753C2.70036 15.8905 2.79215 16.1048 2.883 16.319C2.97386 16.5333 3.07033 16.7438 3.16868 16.9552C3.26703 17.1666 3.36257 17.3771 3.46466 17.5837C3.79499 18.267 4.14779 18.9376 4.52307 19.5955C4.60175 19.7339 4.68043 19.8714 4.76098 20.0098C4.89773 20.245 5.04198 20.4839 5.18528 20.7124C5.27895 20.8659 5.37261 21.0195 5.47377 21.1703C5.48595 21.1936 5.50005 21.2158 5.51592 21.2366C5.60959 21.3855 5.70325 21.5334 5.80628 21.6822C5.95521 21.9079 6.10788 22.1307 6.26243 22.3506C6.35609 22.4776 6.44039 22.6047 6.53218 22.7298C6.70734 22.9763 6.88811 23.22 7.07169 23.4608C8.08225 24.789 9.18598 26.0417 10.3743 27.2094C10.9825 27.8061 11.611 28.3797 12.2598 28.9302C13.5944 30.0598 15.0118 31.0851 16.5 31.9972C17.9883 31.0853 19.4058 30.06 20.7402 28.9302C21.3902 28.3784 22.019 27.8048 22.6266 27.2094C23.8135 26.0412 24.9162 24.7884 25.9264 23.4608C30.0328 18.0685 32.4665 11.5644 32.9194 4.77161C32.9738 3.98471 33.0006 3.1896 33 2.38628V0H32.9194Z" fill="url(#paint0_linear_2001_8180)"/>
<defs>
<linearGradient id="paint0_linear_2001_8180" x1="8.29683" y1="-5.54902" x2="28.2177" y2="23.1475" gradientUnits="userSpaceOnUse">
<stop stop-color="#84CAFF"/>
<stop offset="1" stop-color="#2E90FA"/>
</linearGradient>
</defs>
</svg>
