<svg width="130" height="49" viewBox="0 0 130 49" fill="none" xmlns="http://www.w3.org/2000/svg">
<path d="M0.766113 10.9672L12.3917 10.9695L19.4608 10.9707V3.95996L0.766113 10.9672Z" fill="#FF9D28"/>
<path d="M19.46 3.95988V28.7114L28.2892 0.649414L19.46 3.95988Z" fill="#68C5ED"/>
<path d="M19.4607 10.97L12.3916 10.9688L19.4607 28.7107V10.97Z" fill="#044D80"/>
<path d="M0.766113 10.9668L14.2045 15.5215L12.3917 10.9691L0.766113 10.9668Z" fill="#E54747"/>
<path d="M44.5918 22.1949C44.4893 22.2975 44.3185 22.4255 44.0797 22.5793C43.8405 22.7332 43.5291 22.8869 43.1451 23.0409C42.761 23.1945 42.2913 23.3267 41.7367 23.4382C41.1817 23.549 40.5461 23.6047 39.8291 23.6047C38.4462 23.6047 37.2511 23.3824 36.2441 22.9383C35.2366 22.4943 34.4044 21.8743 33.7474 21.0799C33.0901 20.2852 32.608 19.3455 32.3007 18.2601C31.9934 17.175 31.8398 15.9831 31.8398 14.6842C31.8398 13.3858 32.0063 12.185 32.3392 11.0827C32.672 9.98041 33.1713 9.02807 33.837 8.2245C34.5028 7.42153 35.3351 6.7934 36.3338 6.34039C37.3324 5.8879 38.5059 5.66113 39.8546 5.66113C40.5204 5.66113 41.1222 5.72114 41.6599 5.84055C42.1977 5.96021 42.667 6.10132 43.0683 6.26351C43.4692 6.42614 43.8022 6.59669 44.067 6.77619C44.3314 6.9556 44.532 7.10548 44.6688 7.22472C44.8224 7.36178 44.9545 7.52397 45.0657 7.71174C45.1765 7.90002 45.2321 8.10509 45.2321 8.32703C45.2321 8.66907 45.1041 9.01068 44.848 9.35238C44.592 9.69442 44.3103 10.0105 44.0029 10.3008C43.7981 10.0958 43.5677 9.88675 43.3116 9.6729C43.0555 9.4593 42.7695 9.27154 42.4538 9.10891C42.1377 8.94672 41.7792 8.81009 41.3783 8.69877C40.977 8.5878 40.5289 8.5321 40.034 8.5321C39.1633 8.5321 38.4336 8.70756 37.8446 9.0576C37.2557 9.40808 36.7819 9.86505 36.4235 10.429C36.065 10.993 35.8089 11.6382 35.6552 12.3644C35.5016 13.0909 35.4248 13.8299 35.4248 14.5817C35.4248 15.3851 35.5016 16.1541 35.6552 16.8886C35.8088 17.6235 36.0733 18.2731 36.4491 18.8368C36.8243 19.4007 37.3153 19.8537 37.9214 20.1953C38.5271 20.5374 39.2825 20.7081 40.1876 20.7081C40.6652 20.7081 41.1051 20.6484 41.5063 20.5287C41.9072 20.4092 42.2617 20.2638 42.5689 20.0927C42.8762 19.9222 43.1451 19.7429 43.3755 19.5547C43.606 19.3667 43.7981 19.2046 43.9517 19.0675C44.0542 19.1874 44.1734 19.3328 44.3102 19.5034C44.4477 19.6758 44.5759 19.8555 44.6943 20.0417C44.8135 20.2299 44.916 20.4178 45.0015 20.6054C45.0868 20.7938 45.1295 20.9644 45.1295 21.118C45.1295 21.3405 45.0868 21.5283 45.0015 21.6821C44.9159 21.8359 44.7794 22.007 44.5918 22.1949ZM57.7879 20.2289C57.7879 21.5871 57.9851 22.5757 58.3804 23.1946C58.0713 23.3147 57.7836 23.4008 57.5174 23.4524C57.251 23.504 56.972 23.5297 56.6802 23.5297C56.062 23.5297 55.5938 23.4093 55.2763 23.1687C54.9584 22.9283 54.7566 22.5844 54.6709 22.1372C54.2929 22.533 53.795 22.8681 53.1768 23.1432C52.5585 23.4178 51.8026 23.5557 50.9098 23.5557C50.4461 23.5557 49.9825 23.4913 49.5188 23.3632C49.055 23.2341 48.6341 23.0245 48.2564 22.7335C47.8784 22.4419 47.5694 22.052 47.329 21.5636C47.0883 21.0751 46.9684 20.4797 46.9684 19.7772C46.9684 18.9032 47.1785 18.1917 47.5995 17.6436C48.0202 17.0949 48.5483 16.6623 49.1839 16.3451C49.8191 16.0283 50.5061 15.8103 51.2448 15.69C51.983 15.5699 52.6616 15.493 53.2798 15.4583C53.486 15.4414 53.6876 15.4325 53.8853 15.4325H54.4391V14.9631C54.4391 14.3023 54.2628 13.8328 53.911 13.5548C53.5587 13.2768 52.9876 13.1374 52.1978 13.1374C51.4593 13.1374 50.8023 13.2578 50.2272 13.4984C49.6516 13.7393 49.0892 14.0141 48.5398 14.3236C48.2991 14.0314 48.1058 13.7092 47.9602 13.3566C47.8142 13.0045 47.7412 12.7421 47.7412 12.57C47.7412 12.3295 47.874 12.0974 48.1405 11.8737C48.4066 11.6506 48.7717 11.4483 49.2354 11.2677C49.6992 11.0872 50.2313 10.9414 50.8327 10.8294C51.4336 10.7177 52.0691 10.6617 52.739 10.6617C53.6663 10.6617 54.452 10.7564 55.096 10.9454C55.74 11.1348 56.2638 11.4269 56.6674 11.8222C57.0708 12.2179 57.3585 12.7119 57.5304 13.305C57.7018 13.8982 57.788 14.5904 57.788 15.3809L57.7879 20.2289ZM54.4904 17.2376H54.1299C54.0094 17.2376 53.8891 17.2465 53.7692 17.2635C53.3397 17.2981 52.9146 17.3496 52.4941 17.418C52.0731 17.487 51.6995 17.6073 51.3735 17.7792C51.0471 17.9512 50.781 18.1748 50.5749 18.4495C50.3688 18.7248 50.2658 19.0774 50.2658 19.507C50.2658 19.9884 50.403 20.3965 50.6779 20.7318C50.9524 21.0672 51.4161 21.2348 52.069 21.2348C52.395 21.2348 52.7043 21.1921 52.9964 21.1056C53.2882 21.0201 53.5458 20.9082 53.7692 20.7707C53.9922 20.6331 54.1685 20.4828 54.2974 20.3192C54.4261 20.156 54.4905 20.0057 54.4905 19.8681L54.4904 17.2376ZM64.202 12.1573C64.4757 11.8309 64.904 11.4998 65.486 11.1644C66.068 10.8292 66.8042 10.6616 67.6945 10.6616C68.3282 10.6616 68.9316 10.7691 69.5053 10.9839C70.0784 11.199 70.5879 11.5473 71.0331 12.0284C71.4783 12.5099 71.8335 13.1461 72.099 13.9366C72.3643 14.7277 72.4971 15.6992 72.4971 16.8507C72.4971 18.1916 72.3428 19.2965 72.0348 20.1645C71.7264 21.033 71.3286 21.7207 70.8409 22.2277C70.353 22.7348 69.8091 23.0916 69.2102 23.2978C68.6109 23.504 68.0115 23.6074 67.4125 23.6074C66.916 23.6074 66.4835 23.5514 66.1157 23.4397C65.7474 23.3277 65.4351 23.2035 65.1783 23.0658C64.9215 22.9284 64.7247 22.791 64.5879 22.6531C64.451 22.5157 64.3652 22.4209 64.3311 22.3693V28.7086H60.8275V11.0225C60.9137 11.0057 61.0176 10.9884 61.139 10.9711C61.243 10.9542 61.3641 10.9412 61.5025 10.9323C61.6409 10.9239 61.8053 10.9195 61.9956 10.9195C62.5664 10.9195 63.051 11.0142 63.449 11.2032C63.8469 11.3926 64.0982 11.7104 64.202 12.1573ZM68.839 16.928C68.839 16.4123 68.7963 15.9312 68.711 15.484C68.6257 15.0372 68.4848 14.6503 68.2884 14.3235C68.0919 13.9971 67.827 13.7433 67.4942 13.5627C67.1608 13.3822 66.7556 13.2921 66.2777 13.2921C65.5605 13.2921 65.061 13.4298 64.7791 13.7045C64.4975 13.9798 64.3566 14.2808 64.3566 14.6072V20.0743C64.493 20.2121 64.736 20.3752 65.0862 20.5643C65.4365 20.7536 65.8418 20.8478 66.3031 20.8478C67.1741 20.8478 67.8144 20.5043 68.2243 19.8164C68.6342 19.1289 68.839 18.1659 68.839 16.928ZM75.2011 21.3637C75.0807 21.0201 75.0035 20.6588 74.9693 20.2805C74.9347 19.9025 74.9178 19.5244 74.9178 19.1457V7.18013C75.0377 7.16325 75.1666 7.14595 75.3042 7.12856C75.424 7.11168 75.5529 7.09886 75.6905 7.0899C75.8278 7.08147 75.9651 7.07707 76.1026 7.07707C76.3772 7.07707 76.6522 7.1029 76.9271 7.15438C77.2015 7.20604 77.4506 7.30918 77.6742 7.4638C77.8972 7.6185 78.0775 7.82934 78.2151 8.09562C78.3524 8.36233 78.4211 8.71057 78.4211 9.13999V10.9709H82.0278V13.5757H78.4211V19.0749C78.4211 20.2742 78.9106 20.8736 79.8896 20.8736C80.13 20.8736 80.3573 20.8351 80.5723 20.7576C80.7868 20.6803 80.98 20.5944 81.1519 20.4998C81.3235 20.4053 81.4739 20.3065 81.6027 20.2032C81.7315 20.1 81.8217 20.0228 81.8731 19.9712C82.1307 20.3497 82.3279 20.6772 82.4656 20.9537C82.6029 21.2305 82.6717 21.4902 82.6717 21.7329C82.6717 21.9587 82.5817 22.1801 82.4012 22.3969C82.2207 22.6137 81.9673 22.8136 81.6411 22.9957C81.3149 23.1778 80.92 23.3252 80.4562 23.4381C79.9926 23.551 79.4857 23.6074 78.9364 23.6074C77.8713 23.6074 77.0428 23.401 76.4504 22.9885C75.8579 22.5757 75.4412 22.0341 75.2011 21.3637ZM90.901 21.0284C91.3316 21.0284 91.7108 20.9813 92.0385 20.8865C92.3658 20.7923 92.6587 20.6762 92.9173 20.5386C93.1756 20.4012 93.3999 20.2507 93.5896 20.0873C93.779 19.9241 93.9513 19.7737 94.1068 19.6359C94.3133 19.8936 94.5286 20.2249 94.7528 20.6286C94.9767 21.033 95.0889 21.3637 95.0889 21.6215C95.0889 21.9999 94.874 22.3437 94.445 22.6531C94.0843 22.9284 93.573 23.1648 92.9122 23.3622C92.2508 23.5598 91.4735 23.6588 90.5809 23.6588C89.7732 23.6588 88.9791 23.5557 88.198 23.3493C87.4164 23.1432 86.7207 22.782 86.1113 22.2661C85.5014 21.7506 85.0076 21.0587 84.6299 20.1904C84.2521 19.3223 84.0633 18.2265 84.0633 16.9023C84.0633 15.8191 84.2308 14.8868 84.5654 14.1044C84.9005 13.3222 85.3468 12.6732 85.9054 12.1574C86.4631 11.6416 87.0942 11.2637 87.7986 11.0226C88.5026 10.7822 89.224 10.6617 89.9626 10.6617C90.9243 10.6617 91.74 10.8124 92.4097 11.1129C93.0797 11.4139 93.6246 11.818 94.0456 12.325C94.4662 12.8322 94.7709 13.4124 94.9601 14.0657C95.1487 14.7192 95.2434 15.4067 95.2434 16.1287V16.4897C95.2434 16.6276 95.239 16.7734 95.2305 16.9281C95.2218 17.0829 95.2133 17.2336 95.2049 17.3793C95.196 17.5258 95.1831 17.6417 95.1664 17.7276H87.5667C87.6356 18.6732 87.9285 19.4597 88.4455 20.0873C88.9621 20.715 89.7807 21.0284 90.901 21.0284ZM92.0748 15.7934C92.0748 14.9682 91.9149 14.2977 91.5954 13.7819C91.2758 13.2663 90.7013 13.0082 89.8726 13.0082C89.1641 13.0082 88.5986 13.2533 88.1755 13.7433C87.7521 14.2333 87.5409 14.9166 87.5409 15.7933L92.0748 15.7934ZM101.34 12.2225C101.443 12.0691 101.581 11.8986 101.752 11.7108C101.924 11.5231 102.134 11.3525 102.384 11.1991C102.632 11.0456 102.907 10.9174 103.208 10.8152C103.508 10.7128 103.83 10.6617 104.174 10.6617C104.38 10.6617 104.599 10.679 104.831 10.7128C105.063 10.7471 105.277 10.8111 105.475 10.9046C105.672 10.9985 105.831 11.1262 105.951 11.2882C106.071 11.4502 106.132 11.6505 106.132 11.8891C106.132 12.2642 106.037 12.695 105.848 13.1813C105.659 13.668 105.471 14.0831 105.282 14.4268C104.989 14.1861 104.698 14.0013 104.406 13.8723C104.114 13.7435 103.77 13.6789 103.375 13.6789C102.843 13.6789 102.396 13.8341 102.036 14.1443C101.675 14.4546 101.495 14.8253 101.495 15.2563V23.6045H97.9915V11.0225C98.0771 11.0057 98.1802 10.9884 98.3005 10.9711C98.4035 10.9542 98.5236 10.9412 98.6612 10.9323C98.7985 10.9239 98.9615 10.9195 99.1506 10.9195C99.7 10.9195 100.177 11.0262 100.58 11.2391C100.984 11.4517 101.237 11.7797 101.34 12.2225ZM111.301 12.2225C111.404 12.0691 111.541 11.8986 111.713 11.7108C111.885 11.5231 112.095 11.3525 112.344 11.1991C112.593 11.0456 112.868 10.9174 113.169 10.8152C113.469 10.7128 113.791 10.6617 114.135 10.6617C114.341 10.6617 114.56 10.679 114.792 10.7128C115.023 10.7471 115.238 10.8111 115.436 10.9046C115.633 10.9985 115.792 11.1262 115.912 11.2882C116.032 11.4502 116.093 11.6505 116.093 11.8891C116.093 12.2642 115.998 12.695 115.809 13.1813C115.62 13.668 115.431 14.0831 115.242 14.4268C114.95 14.1861 114.658 14.0013 114.367 13.8723C114.075 13.7435 113.731 13.6789 113.336 13.6789C112.804 13.6789 112.357 13.8341 111.997 14.1443C111.636 14.4546 111.456 14.8253 111.456 15.2563V23.6045H107.952V11.0225C108.038 11.0057 108.141 10.9884 108.261 10.9711C108.364 10.9542 108.485 10.9412 108.622 10.9323C108.759 10.9239 108.922 10.9195 109.111 10.9195C109.661 10.9195 110.138 11.0262 110.541 11.2391C110.944 11.4517 111.198 11.7797 111.301 12.2225ZM128.02 20.2289C128.02 21.5871 128.217 22.5757 128.613 23.1946C128.303 23.3147 128.016 23.4008 127.75 23.4524C127.483 23.504 127.204 23.5297 126.912 23.5297C126.294 23.5297 125.826 23.4093 125.508 23.1687C125.19 22.9283 124.989 22.5844 124.903 22.1372C124.525 22.533 124.027 22.8681 123.409 23.1432C122.791 23.4178 122.035 23.5557 121.142 23.5557C120.678 23.5557 120.215 23.4913 119.751 23.3632C119.287 23.2341 118.866 23.0245 118.489 22.7335C118.111 22.4419 117.801 22.052 117.561 21.5636C117.32 21.0751 117.201 20.4797 117.201 19.7772C117.201 18.9032 117.411 18.1917 117.832 17.6436C118.252 17.0949 118.781 16.6623 119.416 16.3451C120.051 16.0283 120.738 15.8103 121.477 15.69C122.215 15.5699 122.894 15.493 123.512 15.4583C123.718 15.4414 123.92 15.4325 124.117 15.4325H124.671V14.9631C124.671 14.3023 124.495 13.8328 124.143 13.5548C123.791 13.2768 123.22 13.1374 122.43 13.1374C121.691 13.1374 121.035 13.2578 120.459 13.4984C119.884 13.7393 119.321 14.0141 118.772 14.3236C118.531 14.0314 118.338 13.7092 118.192 13.3566C118.046 13.0045 117.973 12.7421 117.973 12.57C117.973 12.3295 118.106 12.0974 118.373 11.8737C118.639 11.6506 119.004 11.4483 119.467 11.2677C119.931 11.0872 120.463 10.9414 121.065 10.8294C121.666 10.7177 122.301 10.6617 122.971 10.6617C123.898 10.6617 124.684 10.7564 125.328 10.9454C125.972 11.1348 126.496 11.4269 126.899 11.8222C127.303 12.2179 127.59 12.7119 127.763 13.305C127.934 13.8982 128.02 14.5904 128.02 15.3809V20.2289ZM124.723 17.2376H124.362C124.242 17.2376 124.121 17.2465 124.001 17.2635C123.572 17.2981 123.147 17.3496 122.726 17.418C122.305 17.487 121.932 17.6073 121.606 17.7792C121.279 17.9512 121.013 18.1748 120.807 18.4495C120.601 18.7248 120.498 19.0774 120.498 19.507C120.498 19.9884 120.635 20.3965 120.91 20.7318C121.185 21.0672 121.648 21.2348 122.301 21.2348C122.627 21.2348 122.936 21.1921 123.229 21.1056C123.52 21.0201 123.778 20.9082 124.001 20.7707C124.224 20.6331 124.401 20.4828 124.529 20.3192C124.658 20.156 124.723 20.0057 124.723 19.8681L124.723 17.2376Z" fill="white"/>
<path d="M38.8204 34.2002L40.651 38.6013L45.4023 38.9822L41.7823 42.0831L42.8882 46.7196L38.8204 44.235L34.7527 46.7196L35.8586 42.0831L32.2386 38.9822L36.9899 38.6013L38.8204 34.2002Z" fill="#FF9D28"/>
<path d="M53.5841 34.2002L55.4146 38.6013L60.166 38.9822L56.5459 42.0831L57.6519 46.7196L53.5841 44.235L49.5163 46.7196L50.6223 42.0831L47.0023 38.9822L51.7536 38.6013L53.5841 34.2002Z" fill="#FF9D28"/>
<path d="M68.3483 34.2002L70.1788 38.6013L74.9301 38.9822L71.3101 42.0831L72.4161 46.7196L68.3483 44.235L64.2805 46.7196L65.3865 42.0831L61.7664 38.9822L66.5178 38.6013L68.3483 34.2002Z" fill="#FF9D28"/>
<path d="M83.112 34.2002L84.9425 38.6013L89.6938 38.9822L86.0738 42.0831L87.1797 46.7196L83.112 44.235L79.0442 46.7196L80.1501 42.0831L76.5301 38.9822L81.2814 38.6013L83.112 34.2002Z" fill="#FF9D28"/>
<path d="M97.8756 34.2002L99.7061 38.6013L104.457 38.9822L100.837 42.0831L101.943 46.7196L97.8756 44.235L93.8078 46.7196L94.9138 42.0831L91.2938 38.9822L96.0451 38.6013L97.8756 34.2002Z" fill="#FF9D28"/>
<path d="M115.663 46.3617V44.0881H110.333V42.9365L115.574 35.8794H116.932V42.8479H118.232V44.0881H116.932V46.3617H115.663ZM111.868 42.8479H115.663V37.8282L111.868 42.8479Z" fill="white"/>
<path d="M119.623 46.3617V44.6934H121.291V46.3617H119.623Z" fill="white"/>
<path d="M123.692 46.3617C123.692 45.279 123.839 44.2013 124.135 43.1284C124.43 42.0458 124.853 40.9975 125.404 39.9837C125.965 38.97 126.635 38.0152 127.412 37.1196H121.359V35.8794H128.8V37.031C127.924 38.0349 127.201 39.029 126.63 40.0133C126.069 40.9877 125.655 41.9965 125.39 43.0399C125.124 44.0733 124.991 45.1806 124.991 46.3617H123.692Z" fill="white"/>
</svg>
