<svg width="250" height="93" viewBox="0 0 250 93" fill="none" xmlns="http://www.w3.org/2000/svg">
<path d="M84.2252 23.8498C84.2252 30.1187 79.1307 35.2006 72.8462 35.2006C66.5618 35.2006 61.4672 30.1187 61.4672 23.8498C61.4672 17.5809 66.5618 12.499 72.8462 12.499C79.1307 12.499 84.2252 17.5809 84.2252 23.8498Z" fill="url(#paint0_linear_2106_4329)"/>
<path d="M65.5231 34.5264C58.4411 36.808 53.4502 42.2754 53.4502 48.4862H92.2422C92.2422 42.2754 87.2513 36.808 80.1693 34.5264C78.1413 36.0817 75.602 37.0064 72.8462 37.0064C70.0904 37.0064 67.5511 36.0817 65.5231 34.5264Z" fill="url(#paint1_linear_2106_4329)"/>
<path d="M188.533 23.8498C188.533 30.1187 183.438 35.2006 177.154 35.2006C170.869 35.2006 165.775 30.1187 165.775 23.8498C165.775 17.5809 170.869 12.499 177.154 12.499C183.438 12.499 188.533 17.5809 188.533 23.8498Z" fill="url(#paint2_linear_2106_4329)"/>
<path d="M169.831 34.5264C162.749 36.808 157.758 42.2754 157.758 48.4862H196.55C196.55 42.2754 191.559 36.808 184.477 34.5264C182.449 36.0817 179.91 37.0064 177.154 37.0064C174.398 37.0064 171.859 36.0817 169.831 34.5264Z" fill="url(#paint3_linear_2106_4329)"/>
<path d="M171.117 21.7578C171.117 30.2039 164.267 37.0508 155.818 37.0508C147.369 37.0508 140.52 30.2039 140.52 21.7578C140.52 13.3117 147.369 6.46484 155.818 6.46484C164.267 6.46484 171.117 13.3117 171.117 21.7578Z" fill="url(#paint4_linear_2106_4329)"/>
<path d="M145.973 36.1425C136.451 39.2165 129.741 46.5828 129.741 54.9505H181.895C181.895 46.5828 175.185 39.2165 165.664 36.1425C162.937 38.2379 159.523 39.4838 155.818 39.4838C152.113 39.4838 148.699 38.2379 145.973 36.1425Z" fill="url(#paint5_linear_2106_4329)"/>
<path d="M109.48 21.7578C109.48 30.2039 102.631 37.0508 94.1818 37.0508C85.7328 37.0508 78.8834 30.2039 78.8834 21.7578C78.8834 13.3117 85.7328 6.46484 94.1818 6.46484C102.631 6.46484 109.48 13.3117 109.48 21.7578Z" fill="url(#paint6_linear_2106_4329)"/>
<path d="M84.3363 36.1425C74.815 39.2165 68.105 46.5828 68.105 54.9505H120.259C120.259 46.5828 113.549 39.2165 104.027 36.1425C101.301 38.2379 97.8869 39.4838 94.1818 39.4838C90.4768 39.4838 87.0628 38.2379 84.3363 36.1425Z" fill="url(#paint7_linear_2106_4329)"/>
<path d="M143.965 19.0313C143.965 29.5419 135.474 38.0625 125 38.0625C114.526 38.0625 106.035 29.5419 106.035 19.0313C106.035 8.52059 114.526 0 125 0C135.474 0 143.965 8.52059 143.965 19.0313Z" fill="url(#paint8_linear_2106_4329)"/>
<path d="M112.795 36.9322C100.992 40.7576 92.6733 49.9245 92.6733 60.3377H157.327C157.327 49.9245 149.009 40.7576 137.205 36.9322C133.825 39.5398 129.593 41.0902 125 41.0902C120.407 41.0902 116.175 39.5398 112.795 36.9322Z" fill="url(#paint9_linear_2106_4329)"/>
<path d="M111.734 92.3141V69.6854H114.967V92.3141H111.734Z" fill="#697586"/>
<path d="M111.734 92.3141V69.6854H114.967V92.3141H111.734Z" fill="url(#paint10_linear_2106_4329)"/>
<path d="M128.821 75.0193C130.222 75.0193 131.45 75.2887 132.506 75.8275C133.584 76.3662 134.424 77.1852 135.028 78.2843C135.631 79.3834 135.933 80.7735 135.933 82.4544V92.3141H132.829V82.81C132.829 81.1506 132.42 79.9006 131.601 79.0601C130.804 78.2196 129.672 77.7994 128.207 77.7994C127.108 77.7994 126.148 78.0149 125.33 78.4459C124.511 78.877 123.875 79.5127 123.422 80.3532C122.991 81.1937 122.776 82.2389 122.776 83.4889V92.3141H119.672V75.1809H122.646V79.8036L122.161 78.5752C122.722 77.4546 123.584 76.5818 124.748 75.9568C125.911 75.3318 127.269 75.0193 128.821 75.0193Z" fill="#697586"/>
<path d="M128.821 75.0193C130.222 75.0193 131.45 75.2887 132.506 75.8275C133.584 76.3662 134.424 77.1852 135.028 78.2843C135.631 79.3834 135.933 80.7735 135.933 82.4544V92.3141H132.829V82.81C132.829 81.1506 132.42 79.9006 131.601 79.0601C130.804 78.2196 129.672 77.7994 128.207 77.7994C127.108 77.7994 126.148 78.0149 125.33 78.4459C124.511 78.877 123.875 79.5127 123.422 80.3532C122.991 81.1937 122.776 82.2389 122.776 83.4889V92.3141H119.672V75.1809H122.646V79.8036L122.161 78.5752C122.722 77.4546 123.584 76.5818 124.748 75.9568C125.911 75.3318 127.269 75.0193 128.821 75.0193Z" fill="url(#paint11_linear_2106_4329)"/>
<path d="M140.06 92.3141V75.1809H143.163V92.3141H140.06ZM141.611 71.8836C141.008 71.8836 140.501 71.6896 140.092 71.3017C139.704 70.9138 139.51 70.4397 139.51 69.8794C139.51 69.2975 139.704 68.8126 140.092 68.4247C140.501 68.0367 141.008 67.8428 141.611 67.8428C142.215 67.8428 142.71 68.0367 143.098 68.4247C143.508 68.791 143.713 69.2544 143.713 69.8147C143.713 70.3966 143.519 70.8923 143.131 71.3017C142.743 71.6896 142.236 71.8836 141.611 71.8836Z" fill="#697586"/>
<path d="M140.06 92.3141V75.1809H143.163V92.3141H140.06ZM141.611 71.8836C141.008 71.8836 140.501 71.6896 140.092 71.3017C139.704 70.9138 139.51 70.4397 139.51 69.8794C139.51 69.2975 139.704 68.8126 140.092 68.4247C140.501 68.0367 141.008 67.8428 141.611 67.8428C142.215 67.8428 142.71 68.0367 143.098 68.4247C143.508 68.791 143.713 69.2544 143.713 69.8147C143.713 70.3966 143.519 70.8923 143.131 71.3017C142.743 71.6896 142.236 71.8836 141.611 71.8836Z" fill="url(#paint12_linear_2106_4329)"/>
<path d="M153.355 92.508C151.631 92.508 150.295 92.0447 149.347 91.118C148.399 90.1913 147.925 88.8659 147.925 87.1418V71.431H151.028V87.0125C151.028 87.9392 151.254 88.6504 151.707 89.1461C152.181 89.6417 152.849 89.8896 153.711 89.8896C154.681 89.8896 155.489 89.6202 156.136 89.0814L157.105 91.312C156.631 91.7214 156.06 92.0231 155.392 92.2171C154.746 92.4111 154.067 92.508 153.355 92.508ZM145.015 77.7347V75.1809H155.942V77.7347H145.015Z" fill="#697586"/>
<path d="M153.355 92.508C151.631 92.508 150.295 92.0447 149.347 91.118C148.399 90.1913 147.925 88.8659 147.925 87.1418V71.431H151.028V87.0125C151.028 87.9392 151.254 88.6504 151.707 89.1461C152.181 89.6417 152.849 89.8896 153.711 89.8896C154.681 89.8896 155.489 89.6202 156.136 89.0814L157.105 91.312C156.631 91.7214 156.06 92.0231 155.392 92.2171C154.746 92.4111 154.067 92.508 153.355 92.508ZM145.015 77.7347V75.1809H155.942V77.7347H145.015Z" fill="url(#paint13_linear_2106_4329)"/>
<path d="M159.241 92.3141V75.1809H162.344V92.3141H159.241ZM160.793 71.8836C160.189 71.8836 159.683 71.6896 159.273 71.3017C158.885 70.9138 158.691 70.4397 158.691 69.8794C158.691 69.2975 158.885 68.8126 159.273 68.4247C159.683 68.0367 160.189 67.8428 160.793 67.8428C161.396 67.8428 161.892 68.0367 162.28 68.4247C162.689 68.791 162.894 69.2544 162.894 69.8147C162.894 70.3966 162.7 70.8923 162.312 71.3017C161.924 71.6896 161.418 71.8836 160.793 71.8836Z" fill="#697586"/>
<path d="M159.241 92.3141V75.1809H162.344V92.3141H159.241ZM160.793 71.8836C160.189 71.8836 159.683 71.6896 159.273 71.3017C158.885 70.9138 158.691 70.4397 158.691 69.8794C158.691 69.2975 158.885 68.8126 159.273 68.4247C159.683 68.0367 160.189 67.8428 160.793 67.8428C161.396 67.8428 161.892 68.0367 162.28 68.4247C162.689 68.791 162.894 69.2544 162.894 69.8147C162.894 70.3966 162.7 70.8923 162.312 71.3017C161.924 71.6896 161.418 71.8836 160.793 71.8836Z" fill="url(#paint14_linear_2106_4329)"/>
<path d="M177.289 92.3141V88.6935L177.127 88.0146V81.8402C177.127 80.5256 176.739 79.5127 175.963 78.8015C175.209 78.0688 174.067 77.7024 172.537 77.7024C171.524 77.7024 170.533 77.8748 169.563 78.2196C168.593 78.5429 167.774 78.9847 167.106 79.545L165.813 77.2175C166.697 76.5063 167.752 75.9675 168.981 75.6012C170.231 75.2133 171.535 75.0193 172.892 75.0193C175.242 75.0193 177.052 75.5904 178.323 76.7326C179.595 77.8748 180.231 79.6205 180.231 81.9695V92.3141H177.289ZM171.664 92.508C170.393 92.508 169.272 92.2925 168.302 91.8615C167.354 91.4305 166.621 90.8378 166.104 90.0835C165.587 89.3077 165.328 88.4349 165.328 87.4651C165.328 86.5384 165.544 85.6979 165.975 84.9436C166.427 84.1893 167.149 83.5859 168.14 83.1333C169.153 82.6807 170.511 82.4544 172.214 82.4544H177.644V84.685H172.343C170.791 84.685 169.746 84.9436 169.207 85.4608C168.668 85.978 168.399 86.603 168.399 87.3358C168.399 88.1763 168.733 88.8551 169.401 89.3723C170.069 89.868 170.996 90.1159 172.181 90.1159C173.345 90.1159 174.358 89.8572 175.22 89.34C176.104 88.8228 176.739 88.0685 177.127 87.0772L177.741 89.2107C177.332 90.2236 176.61 91.0318 175.576 91.6352C174.541 92.2171 173.237 92.508 171.664 92.508Z" fill="#697586"/>
<path d="M177.289 92.3141V88.6935L177.127 88.0146V81.8402C177.127 80.5256 176.739 79.5127 175.963 78.8015C175.209 78.0688 174.067 77.7024 172.537 77.7024C171.524 77.7024 170.533 77.8748 169.563 78.2196C168.593 78.5429 167.774 78.9847 167.106 79.545L165.813 77.2175C166.697 76.5063 167.752 75.9675 168.981 75.6012C170.231 75.2133 171.535 75.0193 172.892 75.0193C175.242 75.0193 177.052 75.5904 178.323 76.7326C179.595 77.8748 180.231 79.6205 180.231 81.9695V92.3141H177.289ZM171.664 92.508C170.393 92.508 169.272 92.2925 168.302 91.8615C167.354 91.4305 166.621 90.8378 166.104 90.0835C165.587 89.3077 165.328 88.4349 165.328 87.4651C165.328 86.5384 165.544 85.6979 165.975 84.9436C166.427 84.1893 167.149 83.5859 168.14 83.1333C169.153 82.6807 170.511 82.4544 172.214 82.4544H177.644V84.685H172.343C170.791 84.685 169.746 84.9436 169.207 85.4608C168.668 85.978 168.399 86.603 168.399 87.3358C168.399 88.1763 168.733 88.8551 169.401 89.3723C170.069 89.868 170.996 90.1159 172.181 90.1159C173.345 90.1159 174.358 89.8572 175.22 89.34C176.104 88.8228 176.739 88.0685 177.127 87.0772L177.741 89.2107C177.332 90.2236 176.61 91.0318 175.576 91.6352C174.541 92.2171 173.237 92.508 171.664 92.508Z" fill="url(#paint15_linear_2106_4329)"/>
<path d="M190.241 92.508C188.517 92.508 187.181 92.0447 186.232 91.118C185.284 90.1913 184.81 88.8659 184.81 87.1418V71.431H187.913V87.0125C187.913 87.9392 188.14 88.6504 188.592 89.1461C189.066 89.6417 189.734 89.8896 190.596 89.8896C191.566 89.8896 192.374 89.6202 193.021 89.0814L193.991 91.312C193.517 91.7214 192.945 92.0231 192.277 92.2171C191.631 92.4111 190.952 92.508 190.241 92.508ZM181.9 77.7347V75.1809H192.827V77.7347H181.9Z" fill="#697586"/>
<path d="M190.241 92.508C188.517 92.508 187.181 92.0447 186.232 91.118C185.284 90.1913 184.81 88.8659 184.81 87.1418V71.431H187.913V87.0125C187.913 87.9392 188.14 88.6504 188.592 89.1461C189.066 89.6417 189.734 89.8896 190.596 89.8896C191.566 89.8896 192.374 89.6202 193.021 89.0814L193.991 91.312C193.517 91.7214 192.945 92.0231 192.277 92.2171C191.631 92.4111 190.952 92.508 190.241 92.508ZM181.9 77.7347V75.1809H192.827V77.7347H181.9Z" fill="url(#paint16_linear_2106_4329)"/>
<path d="M196.126 92.3141V75.1809H199.23V92.3141H196.126ZM197.678 71.8836C197.075 71.8836 196.568 71.6896 196.159 71.3017C195.771 70.9138 195.577 70.4397 195.577 69.8794C195.577 69.2975 195.771 68.8126 196.159 68.4247C196.568 68.0367 197.075 67.8428 197.678 67.8428C198.281 67.8428 198.777 68.0367 199.165 68.4247C199.574 68.791 199.779 69.2544 199.779 69.8147C199.779 70.3966 199.585 70.8923 199.197 71.3017C198.809 71.6896 198.303 71.8836 197.678 71.8836Z" fill="#697586"/>
<path d="M196.126 92.3141V75.1809H199.23V92.3141H196.126ZM197.678 71.8836C197.075 71.8836 196.568 71.6896 196.159 71.3017C195.771 70.9138 195.577 70.4397 195.577 69.8794C195.577 69.2975 195.771 68.8126 196.159 68.4247C196.568 68.0367 197.075 67.8428 197.678 67.8428C198.281 67.8428 198.777 68.0367 199.165 68.4247C199.574 68.791 199.779 69.2544 199.779 69.8147C199.779 70.3966 199.585 70.8923 199.197 71.3017C198.809 71.6896 198.303 71.8836 197.678 71.8836Z" fill="url(#paint17_linear_2106_4329)"/>
<path d="M208.032 92.3141L200.532 75.1809H203.765L210.424 90.6977H208.873L215.661 75.1809H218.7L211.2 92.3141H208.032Z" fill="#697586"/>
<path d="M208.032 92.3141L200.532 75.1809H203.765L210.424 90.6977H208.873L215.661 75.1809H218.7L211.2 92.3141H208.032Z" fill="url(#paint18_linear_2106_4329)"/>
<path d="M227.135 92.508C225.304 92.508 223.687 92.1309 222.286 91.3766C220.907 90.6223 219.83 89.5879 219.054 88.2732C218.299 86.9586 217.922 85.45 217.922 83.7475C217.922 82.045 218.289 80.5364 219.021 79.2218C219.776 77.9072 220.799 76.8835 222.092 76.1507C223.407 75.3964 224.883 75.0193 226.521 75.0193C228.181 75.0193 229.646 75.3857 230.918 76.1184C232.189 76.8511 233.18 77.8856 233.892 79.2218C234.624 80.5364 234.991 82.0773 234.991 83.8445C234.991 83.9738 234.98 84.1247 234.958 84.2971C234.958 84.4695 234.948 84.6311 234.926 84.782H220.347V82.5514H233.31L232.049 83.3273C232.071 82.2281 231.844 81.2476 231.37 80.3855C230.896 79.5235 230.239 78.8554 229.398 78.3813C228.579 77.8856 227.62 77.6378 226.521 77.6378C225.444 77.6378 224.485 77.8856 223.644 78.3813C222.804 78.8554 222.146 79.5343 221.672 80.4179C221.198 81.2799 220.961 82.2713 220.961 83.3919V83.9091C220.961 85.0513 221.22 86.075 221.737 86.9802C222.276 87.8638 223.019 88.5534 223.967 89.0491C224.916 89.5448 226.004 89.7926 227.232 89.7926C228.245 89.7926 229.161 89.6202 229.98 89.2754C230.821 88.9306 231.553 88.4133 232.178 87.7237L233.892 89.7279C233.116 90.6331 232.146 91.3227 230.982 91.7969C229.84 92.271 228.558 92.508 227.135 92.508Z" fill="#697586"/>
<path d="M227.135 92.508C225.304 92.508 223.687 92.1309 222.286 91.3766C220.907 90.6223 219.83 89.5879 219.054 88.2732C218.299 86.9586 217.922 85.45 217.922 83.7475C217.922 82.045 218.289 80.5364 219.021 79.2218C219.776 77.9072 220.799 76.8835 222.092 76.1507C223.407 75.3964 224.883 75.0193 226.521 75.0193C228.181 75.0193 229.646 75.3857 230.918 76.1184C232.189 76.8511 233.18 77.8856 233.892 79.2218C234.624 80.5364 234.991 82.0773 234.991 83.8445C234.991 83.9738 234.98 84.1247 234.958 84.2971C234.958 84.4695 234.948 84.6311 234.926 84.782H220.347V82.5514H233.31L232.049 83.3273C232.071 82.2281 231.844 81.2476 231.37 80.3855C230.896 79.5235 230.239 78.8554 229.398 78.3813C228.579 77.8856 227.62 77.6378 226.521 77.6378C225.444 77.6378 224.485 77.8856 223.644 78.3813C222.804 78.8554 222.146 79.5343 221.672 80.4179C221.198 81.2799 220.961 82.2713 220.961 83.3919V83.9091C220.961 85.0513 221.22 86.075 221.737 86.9802C222.276 87.8638 223.019 88.5534 223.967 89.0491C224.916 89.5448 226.004 89.7926 227.232 89.7926C228.245 89.7926 229.161 89.6202 229.98 89.2754C230.821 88.9306 231.553 88.4133 232.178 87.7237L233.892 89.7279C233.116 90.6331 232.146 91.3227 230.982 91.7969C229.84 92.271 228.558 92.508 227.135 92.508Z" fill="url(#paint19_linear_2106_4329)"/>
<path d="M242.597 92.508C241.175 92.508 239.817 92.3141 238.524 91.9262C237.253 91.5382 236.251 91.0641 235.518 90.5038L236.811 88.047C237.544 88.5426 238.449 88.9629 239.526 89.3077C240.604 89.6525 241.703 89.8249 242.824 89.8249C244.268 89.8249 245.302 89.6202 245.927 89.2107C246.574 88.8012 246.897 88.2301 246.897 87.4974C246.897 86.9586 246.703 86.5384 246.315 86.2367C245.927 85.9349 245.41 85.7087 244.763 85.5578C244.138 85.4069 243.438 85.2776 242.662 85.1699C241.886 85.0406 241.11 84.8897 240.335 84.7173C239.559 84.5233 238.847 84.2647 238.201 83.9415C237.554 83.5966 237.037 83.1333 236.649 82.5514C236.261 81.948 236.067 81.1506 236.067 80.1592C236.067 79.1248 236.358 78.2196 236.94 77.4438C237.522 76.668 238.341 76.0753 239.397 75.6658C240.475 75.2348 241.746 75.0193 243.212 75.0193C244.332 75.0193 245.464 75.1594 246.606 75.4395C247.77 75.6982 248.718 76.0753 249.451 76.571L248.125 79.0278C247.349 78.5106 246.541 78.155 245.701 77.961C244.86 77.7671 244.02 77.6701 243.179 77.6701C241.822 77.6701 240.809 77.8964 240.141 78.3489C239.472 78.78 239.138 79.3403 239.138 80.0299C239.138 80.6118 239.332 81.0644 239.72 81.3877C240.13 81.6894 240.647 81.9264 241.272 82.0988C241.919 82.2713 242.63 82.4221 243.406 82.5514C244.181 82.6592 244.957 82.81 245.733 83.004C246.509 83.1764 247.209 83.4242 247.834 83.7475C248.481 84.0708 248.998 84.5233 249.386 85.1052C249.795 85.6871 250 86.4629 250 87.4327C250 88.4672 249.698 89.3616 249.095 90.1159C248.492 90.8702 247.64 91.4628 246.541 91.8938C245.442 92.3033 244.128 92.508 242.597 92.508Z" fill="#697586"/>
<path d="M242.597 92.508C241.175 92.508 239.817 92.3141 238.524 91.9262C237.253 91.5382 236.251 91.0641 235.518 90.5038L236.811 88.047C237.544 88.5426 238.449 88.9629 239.526 89.3077C240.604 89.6525 241.703 89.8249 242.824 89.8249C244.268 89.8249 245.302 89.6202 245.927 89.2107C246.574 88.8012 246.897 88.2301 246.897 87.4974C246.897 86.9586 246.703 86.5384 246.315 86.2367C245.927 85.9349 245.41 85.7087 244.763 85.5578C244.138 85.4069 243.438 85.2776 242.662 85.1699C241.886 85.0406 241.11 84.8897 240.335 84.7173C239.559 84.5233 238.847 84.2647 238.201 83.9415C237.554 83.5966 237.037 83.1333 236.649 82.5514C236.261 81.948 236.067 81.1506 236.067 80.1592C236.067 79.1248 236.358 78.2196 236.94 77.4438C237.522 76.668 238.341 76.0753 239.397 75.6658C240.475 75.2348 241.746 75.0193 243.212 75.0193C244.332 75.0193 245.464 75.1594 246.606 75.4395C247.77 75.6982 248.718 76.0753 249.451 76.571L248.125 79.0278C247.349 78.5106 246.541 78.155 245.701 77.961C244.86 77.7671 244.02 77.6701 243.179 77.6701C241.822 77.6701 240.809 77.8964 240.141 78.3489C239.472 78.78 239.138 79.3403 239.138 80.0299C239.138 80.6118 239.332 81.0644 239.72 81.3877C240.13 81.6894 240.647 81.9264 241.272 82.0988C241.919 82.2713 242.63 82.4221 243.406 82.5514C244.181 82.6592 244.957 82.81 245.733 83.004C246.509 83.1764 247.209 83.4242 247.834 83.7475C248.481 84.0708 248.998 84.5233 249.386 85.1052C249.795 85.6871 250 86.4629 250 87.4327C250 88.4672 249.698 89.3616 249.095 90.1159C248.492 90.8702 247.64 91.4628 246.541 91.8938C245.442 92.3033 244.128 92.508 242.597 92.508Z" fill="url(#paint20_linear_2106_4329)"/>
<path d="M0 92.3141L10.2476 69.6854H13.4479L23.7278 92.3141H20.3335L11.185 71.4957H12.4781L3.32965 92.3141H0ZM4.3641 86.6569L5.23692 84.0708H17.9736L18.9111 86.6569H4.3641Z" fill="url(#paint21_linear_2106_4329)"/>
<path d="M31.9277 92.508C30.4622 92.508 29.1691 92.2386 28.0485 91.6999C26.9493 91.1611 26.0873 90.3422 25.4623 89.243C24.8589 88.1224 24.5572 86.7216 24.5572 85.0406V75.1809H27.6605V84.685C27.6605 86.366 28.0592 87.6267 28.8566 88.4672C29.6756 89.3077 30.8178 89.7279 32.2833 89.7279C33.3608 89.7279 34.2983 89.5124 35.0957 89.0814C35.8931 88.6288 36.5073 87.9823 36.9383 87.1418C37.3693 86.2798 37.5848 85.2453 37.5848 84.0384V75.1809H40.6882V92.3141H37.7465V87.6914L38.2314 88.9198C37.671 90.062 36.8305 90.9456 35.7099 91.5706C34.5892 92.1955 33.3285 92.508 31.9277 92.508Z" fill="url(#paint22_linear_2106_4329)"/>
<path d="M50.8633 92.508C49.1392 92.508 47.803 92.0447 46.8548 91.118C45.9065 90.1913 45.4324 88.8659 45.4324 87.1418V71.431H48.5358V87.0125C48.5358 87.9392 48.762 88.6504 49.2146 89.1461C49.6887 89.6417 50.3568 89.8896 51.2189 89.8896C52.1887 89.8896 52.9968 89.6202 53.6434 89.0814L54.6132 91.312C54.139 91.7214 53.5679 92.0231 52.8999 92.2171C52.2533 92.4111 51.5745 92.508 50.8633 92.508ZM42.523 77.7347V75.1809H53.4494V77.7347H42.523Z" fill="url(#paint23_linear_2106_4329)"/>
<path d="M56.7487 92.3141V75.1809H59.8521V92.3141H56.7487ZM58.3004 71.8836C57.697 71.8836 57.1906 71.6896 56.7811 71.3017C56.3932 70.9138 56.1992 70.4397 56.1992 69.8794C56.1992 69.2975 56.3932 68.8126 56.7811 68.4247C57.1906 68.0367 57.697 67.8428 58.3004 67.8428C58.9039 67.8428 59.3995 68.0367 59.7875 68.4247C60.1969 68.791 60.4017 69.2544 60.4017 69.8147C60.4017 70.3966 60.2077 70.8923 59.8198 71.3017C59.4319 71.6896 58.9254 71.8836 58.3004 71.8836Z" fill="url(#paint24_linear_2106_4329)"/>
<path d="M69.0748 92.508C67.6524 92.508 66.2947 92.3141 65.0017 91.9262C63.7301 91.5382 62.728 91.0641 61.9953 90.5038L63.2883 88.047C64.0211 88.5426 64.9262 88.9629 66.0038 89.3077C67.0813 89.6525 68.1804 89.8249 69.3011 89.8249C70.745 89.8249 71.7795 89.6202 72.4045 89.2107C73.051 88.8012 73.3743 88.2301 73.3743 87.4974C73.3743 86.9586 73.1803 86.5384 72.7924 86.2367C72.4045 85.9349 71.8872 85.7087 71.2407 85.5578C70.6157 85.4069 69.9153 85.2776 69.1395 85.1699C68.3636 85.0406 67.5878 84.8897 66.812 84.7173C66.0361 84.5233 65.3249 84.2647 64.6784 83.9415C64.0319 83.5966 63.5146 83.1333 63.1267 82.5514C62.7388 81.948 62.5448 81.1506 62.5448 80.1592C62.5448 79.1248 62.8358 78.2196 63.4176 77.4438C63.9995 76.668 64.8185 76.0753 65.8745 75.6658C66.952 75.2348 68.2236 75.0193 69.689 75.0193C70.8097 75.0193 71.9411 75.1594 73.0833 75.4395C74.2471 75.6982 75.1953 76.0753 75.9281 76.571L74.6027 79.0278C73.8268 78.5106 73.0187 78.155 72.1782 77.961C71.3377 77.7671 70.4972 77.6701 69.6567 77.6701C68.299 77.6701 67.2861 77.8964 66.618 78.3489C65.9499 78.78 65.6159 79.3403 65.6159 80.0299C65.6159 80.6118 65.8098 81.0644 66.1977 81.3877C66.6072 81.6894 67.1244 81.9264 67.7494 82.0988C68.396 82.2713 69.1071 82.4221 69.883 82.5514C70.6588 82.6592 71.4347 82.81 72.2105 83.004C72.9863 83.1764 73.6868 83.4242 74.3117 83.7475C74.9583 84.0708 75.4755 84.5233 75.8634 85.1052C76.2729 85.6871 76.4776 86.4629 76.4776 87.4327C76.4776 88.4672 76.1759 89.3616 75.5725 90.1159C74.9691 90.8702 74.1178 91.4628 73.0187 91.8938C71.9196 92.3033 70.6049 92.508 69.0748 92.508Z" fill="url(#paint25_linear_2106_4329)"/>
<path d="M100.172 75.0193C101.552 75.0193 102.769 75.2887 103.825 75.8275C104.881 76.3662 105.7 77.1852 106.282 78.2843C106.886 79.3834 107.187 80.7735 107.187 82.4544V92.3141H104.084V82.81C104.084 81.1506 103.696 79.9006 102.92 79.0601C102.144 78.2196 101.056 77.7994 99.6551 77.7994C98.6207 77.7994 97.7155 78.0149 96.9397 78.4459C96.1638 78.877 95.5604 79.5127 95.1294 80.3532C94.7199 81.1937 94.5152 82.2389 94.5152 83.4889V92.3141H91.4118V82.81C91.4118 81.1506 91.0239 79.9006 90.2481 79.0601C89.4938 78.2196 88.4054 77.7994 86.983 77.7994C85.9701 77.7994 85.0758 78.0149 84.2999 78.4459C83.5241 78.877 82.9207 79.5127 82.4896 80.3532C82.0586 81.1937 81.8431 82.2389 81.8431 83.4889V92.3141H78.7397V75.1809H81.7138V79.739L81.2289 78.5752C81.7677 77.4546 82.5974 76.5818 83.7181 75.9568C84.8387 75.3318 86.1426 75.0193 87.6296 75.0193C89.2675 75.0193 90.6791 75.4288 91.8644 76.2477C93.0497 77.0451 93.8255 78.2627 94.1919 79.9006L92.9312 79.3834C93.4484 78.0688 94.3535 77.0128 95.6466 76.2154C96.9397 75.418 98.4482 75.0193 100.172 75.0193Z" fill="url(#paint26_linear_2106_4329)"/>
<defs>
<linearGradient id="paint0_linear_2106_4329" x1="72.8462" y1="12.499" x2="72.8462" y2="48.4862" gradientUnits="userSpaceOnUse">
<stop stop-color="#005AAA"/>
<stop offset="1" stop-color="#5DB1FD"/>
</linearGradient>
<linearGradient id="paint1_linear_2106_4329" x1="72.8462" y1="12.499" x2="72.8462" y2="48.4862" gradientUnits="userSpaceOnUse">
<stop stop-color="#005AAA"/>
<stop offset="1" stop-color="#5DB1FD"/>
</linearGradient>
<linearGradient id="paint2_linear_2106_4329" x1="177.154" y1="12.499" x2="177.154" y2="48.4862" gradientUnits="userSpaceOnUse">
<stop stop-color="#005AAA"/>
<stop offset="1" stop-color="#5DB1FD"/>
</linearGradient>
<linearGradient id="paint3_linear_2106_4329" x1="177.154" y1="12.499" x2="177.154" y2="48.4862" gradientUnits="userSpaceOnUse">
<stop stop-color="#005AAA"/>
<stop offset="1" stop-color="#5DB1FD"/>
</linearGradient>
<linearGradient id="paint4_linear_2106_4329" x1="155.818" y1="6.46484" x2="155.818" y2="54.9505" gradientUnits="userSpaceOnUse">
<stop stop-color="#FF6939"/>
<stop offset="1" stop-color="#F8931E"/>
</linearGradient>
<linearGradient id="paint5_linear_2106_4329" x1="155.818" y1="6.46484" x2="155.818" y2="54.9505" gradientUnits="userSpaceOnUse">
<stop stop-color="#FF6939"/>
<stop offset="1" stop-color="#F8931E"/>
</linearGradient>
<linearGradient id="paint6_linear_2106_4329" x1="94.1818" y1="6.46484" x2="94.1818" y2="54.9505" gradientUnits="userSpaceOnUse">
<stop stop-color="#FF6939"/>
<stop offset="1" stop-color="#F8931E"/>
</linearGradient>
<linearGradient id="paint7_linear_2106_4329" x1="94.1818" y1="6.46484" x2="94.1818" y2="54.9505" gradientUnits="userSpaceOnUse">
<stop stop-color="#FF6939"/>
<stop offset="1" stop-color="#F8931E"/>
</linearGradient>
<linearGradient id="paint8_linear_2106_4329" x1="125" y1="0" x2="125" y2="60.3377" gradientUnits="userSpaceOnUse">
<stop stop-color="#005AAA"/>
<stop offset="1" stop-color="#5DB1FD"/>
</linearGradient>
<linearGradient id="paint9_linear_2106_4329" x1="125" y1="0" x2="125" y2="60.3377" gradientUnits="userSpaceOnUse">
<stop stop-color="#005AAA"/>
<stop offset="1" stop-color="#5DB1FD"/>
</linearGradient>
<linearGradient id="paint10_linear_2106_4329" x1="180.867" y1="67.8428" x2="180.867" y2="92.508" gradientUnits="userSpaceOnUse">
<stop stop-color="#FF6939"/>
<stop offset="1" stop-color="#F8931E"/>
</linearGradient>
<linearGradient id="paint11_linear_2106_4329" x1="180.867" y1="67.8428" x2="180.867" y2="92.508" gradientUnits="userSpaceOnUse">
<stop stop-color="#FF6939"/>
<stop offset="1" stop-color="#F8931E"/>
</linearGradient>
<linearGradient id="paint12_linear_2106_4329" x1="180.867" y1="67.8428" x2="180.867" y2="92.508" gradientUnits="userSpaceOnUse">
<stop stop-color="#FF6939"/>
<stop offset="1" stop-color="#F8931E"/>
</linearGradient>
<linearGradient id="paint13_linear_2106_4329" x1="180.867" y1="67.8428" x2="180.867" y2="92.508" gradientUnits="userSpaceOnUse">
<stop stop-color="#FF6939"/>
<stop offset="1" stop-color="#F8931E"/>
</linearGradient>
<linearGradient id="paint14_linear_2106_4329" x1="180.867" y1="67.8428" x2="180.867" y2="92.508" gradientUnits="userSpaceOnUse">
<stop stop-color="#FF6939"/>
<stop offset="1" stop-color="#F8931E"/>
</linearGradient>
<linearGradient id="paint15_linear_2106_4329" x1="180.867" y1="67.8428" x2="180.867" y2="92.508" gradientUnits="userSpaceOnUse">
<stop stop-color="#FF6939"/>
<stop offset="1" stop-color="#F8931E"/>
</linearGradient>
<linearGradient id="paint16_linear_2106_4329" x1="180.867" y1="67.8428" x2="180.867" y2="92.508" gradientUnits="userSpaceOnUse">
<stop stop-color="#FF6939"/>
<stop offset="1" stop-color="#F8931E"/>
</linearGradient>
<linearGradient id="paint17_linear_2106_4329" x1="180.867" y1="67.8428" x2="180.867" y2="92.508" gradientUnits="userSpaceOnUse">
<stop stop-color="#FF6939"/>
<stop offset="1" stop-color="#F8931E"/>
</linearGradient>
<linearGradient id="paint18_linear_2106_4329" x1="180.867" y1="67.8428" x2="180.867" y2="92.508" gradientUnits="userSpaceOnUse">
<stop stop-color="#FF6939"/>
<stop offset="1" stop-color="#F8931E"/>
</linearGradient>
<linearGradient id="paint19_linear_2106_4329" x1="180.867" y1="67.8428" x2="180.867" y2="92.508" gradientUnits="userSpaceOnUse">
<stop stop-color="#FF6939"/>
<stop offset="1" stop-color="#F8931E"/>
</linearGradient>
<linearGradient id="paint20_linear_2106_4329" x1="180.867" y1="67.8428" x2="180.867" y2="92.508" gradientUnits="userSpaceOnUse">
<stop stop-color="#FF6939"/>
<stop offset="1" stop-color="#F8931E"/>
</linearGradient>
<linearGradient id="paint21_linear_2106_4329" x1="53.5936" y1="67.8428" x2="53.5936" y2="92.508" gradientUnits="userSpaceOnUse">
<stop stop-color="#005AAA"/>
<stop offset="1" stop-color="#5DB1FD"/>
</linearGradient>
<linearGradient id="paint22_linear_2106_4329" x1="53.5936" y1="67.8428" x2="53.5936" y2="92.508" gradientUnits="userSpaceOnUse">
<stop stop-color="#005AAA"/>
<stop offset="1" stop-color="#5DB1FD"/>
</linearGradient>
<linearGradient id="paint23_linear_2106_4329" x1="53.5936" y1="67.8428" x2="53.5936" y2="92.508" gradientUnits="userSpaceOnUse">
<stop stop-color="#005AAA"/>
<stop offset="1" stop-color="#5DB1FD"/>
</linearGradient>
<linearGradient id="paint24_linear_2106_4329" x1="53.5936" y1="67.8428" x2="53.5936" y2="92.508" gradientUnits="userSpaceOnUse">
<stop stop-color="#005AAA"/>
<stop offset="1" stop-color="#5DB1FD"/>
</linearGradient>
<linearGradient id="paint25_linear_2106_4329" x1="53.5936" y1="67.8428" x2="53.5936" y2="92.508" gradientUnits="userSpaceOnUse">
<stop stop-color="#005AAA"/>
<stop offset="1" stop-color="#5DB1FD"/>
</linearGradient>
<linearGradient id="paint26_linear_2106_4329" x1="53.5936" y1="67.8428" x2="53.5936" y2="92.508" gradientUnits="userSpaceOnUse">
<stop stop-color="#005AAA"/>
<stop offset="1" stop-color="#5DB1FD"/>
</linearGradient>
</defs>
</svg>
