<svg width="174" height="40" viewBox="0 0 174 40" fill="none" xmlns="http://www.w3.org/2000/svg">
<path d="M74.6014 31.791V38H69.4308V16.6276H74.551L74.5166 18.1351C75.8219 16.7493 77.4458 16.2484 79.046 16.2484C83.3989 16.2484 85.7955 19.8415 85.7955 23.9349C85.7955 27.9365 83.3057 31.6129 79.046 31.6129C77.2311 31.6129 75.776 31.1312 74.551 29.7215C74.5518 31.5127 74.6014 31.0087 74.6014 31.791ZM74.3026 23.8856C74.3026 25.6505 75.6385 27.1658 77.4236 27.1658C79.1798 27.1658 80.5462 25.6205 80.5462 23.8856C80.5462 22.1637 79.1798 20.6084 77.4236 20.6084C75.6239 20.6084 74.3026 22.1275 74.3026 23.8856Z" fill="#131316"/>
<path d="M104.032 23.9488C104.032 28.9339 100.085 31.7671 95.4229 31.7671C90.6596 31.7671 86.7714 29.0225 86.7714 23.9488C86.7714 18.6376 90.6596 16.0518 95.4229 16.0518C99.947 16.0518 104.032 18.3763 104.032 23.9488ZM98.6822 23.9649C98.6822 22.2847 97.5435 20.6153 95.4229 20.6153C93.4474 20.6153 92.1513 21.8038 92.1513 23.9079C92.1513 26.076 93.277 27.1959 95.4229 27.1959C97.4404 27.1959 98.6822 25.7993 98.6822 23.9649Z" fill="#131316"/>
<path d="M11.4004 16.7647C8.64695 15.6603 0.80929 14.9882 0.80929 21.4223C0.80929 22.4797 1.52917 25.2775 5.12168 25.3877C6.67072 25.434 7.20719 25.8949 7.20719 26.6479C7.20719 27.4356 5.44876 28.6996 1.80963 26.3897L0 30.1639C6.96647 33.7771 12.4756 30.742 12.3656 26.2425C12.283 22.8782 10.1983 21.9556 7.66724 21.7591C6.15947 21.6319 5.96384 20.9722 6.01733 20.6361C6.22519 19.0662 8.56518 19.6704 9.76421 20.1714L11.4004 16.7647Z" fill="#131316"/>
<path d="M12.066 16.6437H17.355L19.1647 23.5487L19.3825 24.7565L19.6064 23.5642L21.5704 16.6437H26.77L28.7118 23.585L28.9434 24.8328L29.1887 23.585L31.0855 16.6437H36.1628L31.3063 31.2599H26.2649L24.2466 23.9634L24.0533 22.9815L23.853 23.9495L21.7683 31.2599H16.8323L12.066 16.6437Z" fill="#131316"/>
<path d="M41.9899 16.6437H36.9125V31.2592H41.9899V16.6437Z" fill="#131316"/>
<path d="M36.4532 11.3211C36.4532 9.65472 37.7921 8.29977 39.4114 8.29977C41.0636 8.29977 42.3911 9.65472 42.3911 11.3211C42.3911 12.9912 41.0636 14.3477 39.4114 14.3477C37.7921 14.3477 36.4532 12.9912 36.4532 11.3211Z" fill="#131316"/>
<path d="M42.9115 30.2094C49.8971 33.8288 55.4551 30.8006 55.3435 26.2933C55.2595 22.9191 53.1113 21.9911 50.5772 21.803C49.0786 21.6843 48.8853 21.0092 48.9349 20.6793C49.1703 18.9159 52.1026 19.8985 53.0754 20.4011L54.7543 16.9351C52.4579 15.7651 43.7223 14.5805 43.7223 21.4662C43.7223 22.5291 44.4422 25.3191 48.0332 25.4324C49.5822 25.4856 50.1172 25.9488 50.1172 26.6987C50.1172 27.4764 48.3526 28.7543 44.7119 26.4444L42.9115 30.2094Z" fill="#131316"/>
<path d="M67.2529 16.9366C64.9625 15.7659 56.1307 14.6098 56.1307 21.5024C56.1307 22.5645 56.9552 25.3207 60.5409 25.4332C62.0853 25.4848 62.618 25.9503 62.618 26.698C62.618 27.4872 60.8282 28.7782 57.1279 26.3889L55.2992 30.1462C62.3222 33.8681 67.949 30.8137 67.8451 26.2933C67.7588 22.9183 65.6159 21.9919 63.0734 21.803C61.5641 21.6851 61.3884 21.0076 61.4312 20.6793C61.6681 18.9166 64.5973 19.8985 65.5731 20.4003L67.2529 16.9366Z" fill="#131316"/>
<path d="M126.602 20.9645H123.772V31.253H118.679V20.9645H116.976V16.6769H118.679V12.0648H123.772V16.6769H126.602V20.9645Z" fill="#131316"/>
<path d="M115.829 21.3969C115.303 21.1803 114.529 21.0731 113.97 21.0731C111.483 21.0731 110.579 22.869 110.579 25.1681V31.2214H105.46V16.6083H110.579V18.3702C111.419 17.1393 113.191 16.4927 114.614 16.4927C115.02 16.4927 115.431 16.5351 115.829 16.6083V21.3969Z" fill="#131316"/>
<path d="M153.032 13.5207C153.126 14.2931 153.194 15.1063 153.234 15.9513C154.305 16.074 155.27 16.2711 156.077 16.5333C155.5 14.9585 154.205 14.0585 153.032 13.5207Z" fill="#131316"/>
<path d="M152.33 16.6085C151.118 16.5339 149.789 16.552 148.387 16.6777C147.462 16.7598 146.56 16.884 145.699 17.0431C145.556 17.7551 145.44 18.4942 145.356 19.2527C145.236 20.3516 145.192 21.4165 145.215 22.4261C146.317 22.4669 147.479 22.4677 148.678 22.4235C149.827 22.3813 150.936 22.3005 151.986 22.1869C152.11 21.2653 152.204 20.3009 152.263 19.3051C152.317 18.3848 152.339 17.4826 152.33 16.6085Z" fill="#131316"/>
<path d="M153.048 22.0583C153.114 21.4364 153.167 20.7987 153.206 20.1483C153.276 18.9589 153.293 17.7984 153.262 16.6863C154.424 16.8101 155.455 17.0247 156.312 17.3147C156.679 18.7972 156.601 20.2321 156.176 21.4898C155.238 21.7128 154.185 21.9052 153.048 22.0583Z" fill="#131316"/>
<path d="M151.871 22.9718C151.155 23.0438 150.416 23.1016 149.659 23.1433C148.112 23.2292 146.624 23.2233 145.244 23.1434C145.282 23.8254 145.352 24.4782 145.451 25.0946C146.864 25.8583 148.736 26.1505 151.088 25.8024C151.159 25.7919 151.229 25.7803 151.299 25.7676C151.521 24.9028 151.714 23.9657 151.871 22.9718Z" fill="#131316"/>
<path d="M152.533 25.4114C152.699 24.6005 152.841 23.7435 152.955 22.8498C153.962 22.7241 154.915 22.5699 155.797 22.3924C155.101 23.7589 153.96 24.8356 152.533 25.4114Z" fill="#131316"/>
<path d="M143.215 22.9648C143.567 23.5423 144.004 24.0513 144.527 24.478C144.466 24.0299 144.42 23.5641 144.39 23.0835C143.987 23.0502 143.595 23.0105 143.215 22.9648Z" fill="#131316"/>
<path fill-rule="evenodd" clip-rule="evenodd" d="M125.667 37.9609H152.899L174 2H146.147L125.667 37.9609ZM149.404 5.99297C149.443 5.99605 149.481 5.99913 149.52 6.00376C151.047 6.21502 152.261 8.70915 152.863 12.3445C155.296 12.587 157.723 14.5951 158.382 17.0538C158.698 18.2308 158.77 19.5009 158.593 20.7477C160.002 20.1806 160.807 19.5191 160.754 18.838C160.711 18.3293 160.199 17.8684 159.326 17.4754C160.896 17.937 161.859 18.5505 161.924 19.2573C162.008 20.1485 160.654 21.0327 158.397 21.7391C157.702 24.4709 155.759 26.9318 152.505 27.8325C152.294 27.8907 152.086 27.943 151.878 27.9895C150.865 31.2489 149.417 33.2579 147.927 33.0511C146.878 32.9054 145.979 31.6846 145.324 29.7562C145.869 30.8761 146.534 31.5636 147.277 31.6684C148.456 31.8309 149.609 30.4969 150.516 28.2139C148.886 28.3831 147.38 28.1718 146.081 27.6066C146.542 28.8754 147.166 29.8289 147.9 30.3428C146.711 30.1495 145.745 28.9393 145.122 27.1012C143.891 26.3285 142.905 25.1828 142.255 23.6936C142.135 23.4202 142.042 23.1109 141.974 22.7878C139.383 22.3563 137.534 21.6315 136.969 20.8096C137.941 21.4049 139.675 21.8757 141.873 22.1588C141.779 21.3204 141.837 20.4826 142.017 19.9995C142.175 19.5606 142.185 19.6362 142.238 20.0277C142.296 20.4687 142.409 21.3104 142.847 22.2689C143.333 22.3166 143.838 22.3558 144.358 22.3857C144.326 21.3297 144.369 20.2126 144.495 19.0623C144.564 18.4328 144.653 17.8225 144.76 17.2343C141.439 17.973 138.882 19.2337 138.19 20.5699C138.143 18.9003 140.949 17.2386 144.928 16.3872C145.125 15.4875 145.363 14.6474 145.637 13.8787C144.788 14.229 144.064 14.9001 142.704 16.2545C143.455 14.6351 144.68 13.4432 146.113 12.6862C147.207 10.2512 148.679 8.7942 150.181 8.84314C149.152 9.2964 148.142 10.4958 147.303 12.1843C148.303 11.8951 149.438 11.9161 149.475 12.2552C149.545 12.9635 148.488 13.4568 147.984 13.4837C147.477 13.5103 147.056 13.544 146.685 13.6007C146.378 14.4011 146.108 15.2745 145.885 16.2023C146.592 16.0797 147.33 15.9825 148.089 15.9146C149.565 15.7836 151.002 15.7724 152.315 15.8663C152.287 14.9221 152.223 14.0154 152.127 13.1592C151.8 13.045 151.506 12.958 151.272 12.8885C150.866 12.7682 150.639 12.7008 150.723 12.6367C151.142 12.4653 151.579 12.3669 152.022 12.3332C151.563 9.10278 150.622 6.72191 149.404 5.99297Z" fill="#131316"/>
<path d="M153.032 13.5207C153.126 14.2931 153.194 15.1063 153.234 15.9513C154.305 16.074 155.27 16.2711 156.077 16.5333C155.5 14.9585 154.205 14.0585 153.032 13.5207Z" fill="#E23E1F"/>
<path d="M152.33 16.6085C151.118 16.5339 149.789 16.552 148.387 16.6777C147.462 16.7598 146.56 16.884 145.699 17.0431C145.556 17.7551 145.44 18.4942 145.356 19.2527C145.236 20.3516 145.192 21.4165 145.215 22.4261C146.317 22.4669 147.479 22.4677 148.678 22.4235C149.827 22.3813 150.937 22.3005 151.986 22.1869C152.111 21.2653 152.204 20.3009 152.263 19.3051C152.317 18.3848 152.339 17.4826 152.33 16.6085Z" fill="#E23E1F"/>
<path d="M153.048 22.0583C153.114 21.4364 153.167 20.7987 153.206 20.1483C153.276 18.9589 153.293 17.7984 153.262 16.6863C154.424 16.8101 155.455 17.0247 156.312 17.3147C156.679 18.7972 156.601 20.2321 156.176 21.4898C155.238 21.7128 154.185 21.9052 153.048 22.0583Z" fill="#E23E1F"/>
<path d="M151.871 22.9718C151.155 23.0438 150.416 23.1016 149.659 23.1433C148.112 23.2292 146.624 23.2233 145.244 23.1434C145.282 23.8254 145.352 24.4782 145.451 25.0946C146.864 25.8583 148.736 26.1505 151.088 25.8024C151.159 25.7919 151.229 25.7803 151.299 25.7676C151.521 24.9028 151.714 23.9657 151.871 22.9718Z" fill="#E23E1F"/>
<path d="M152.533 25.4114C152.699 24.6005 152.841 23.7435 152.955 22.8498C153.962 22.7241 154.915 22.5699 155.797 22.3924C155.101 23.7589 153.96 24.8356 152.533 25.4114Z" fill="#E23E1F"/>
<path d="M143.215 22.9648C143.567 23.5423 144.004 24.0513 144.527 24.478C144.466 24.0299 144.42 23.5641 144.39 23.0835C143.988 23.0502 143.595 23.0105 143.215 22.9648Z" fill="#E23E1F"/>
<path fill-rule="evenodd" clip-rule="evenodd" d="M125.667 37.9609H152.899L174 2H146.147L125.667 37.9609ZM149.404 5.99297C149.443 5.99605 149.481 5.99913 149.52 6.00376C151.047 6.21502 152.261 8.70915 152.863 12.3445C155.297 12.587 157.723 14.5951 158.382 17.0538C158.698 18.2308 158.77 19.5009 158.593 20.7477C160.002 20.1806 160.807 19.5191 160.754 18.838C160.712 18.3293 160.2 17.8684 159.326 17.4754C160.896 17.937 161.859 18.5505 161.924 19.2573C162.008 20.1485 160.654 21.0327 158.397 21.7391C157.702 24.4709 155.759 26.9318 152.505 27.8325C152.294 27.8907 152.086 27.943 151.878 27.9895C150.865 31.2489 149.417 33.2579 147.927 33.0511C146.878 32.9054 145.979 31.6846 145.324 29.7562C145.869 30.8761 146.534 31.5636 147.277 31.6684C148.456 31.8309 149.609 30.4969 150.516 28.2139C148.886 28.3831 147.38 28.1718 146.081 27.6066C146.542 28.8754 147.166 29.8289 147.9 30.3428C146.711 30.1495 145.745 28.9393 145.122 27.1012C143.891 26.3285 142.905 25.1828 142.255 23.6936C142.135 23.4202 142.042 23.1109 141.974 22.7878C139.383 22.3563 137.534 21.6315 136.969 20.8096C137.941 21.4049 139.675 21.8757 141.873 22.1588C141.779 21.3204 141.837 20.4826 142.017 19.9995C142.175 19.5606 142.185 19.6362 142.238 20.0277C142.296 20.4687 142.409 21.3104 142.847 22.2689C143.333 22.3166 143.838 22.3558 144.358 22.3857C144.326 21.3297 144.369 20.2126 144.495 19.0623C144.564 18.4328 144.653 17.8225 144.76 17.2343C141.439 17.973 138.882 19.2337 138.19 20.5699C138.143 18.9003 140.95 17.2386 144.928 16.3872C145.125 15.4875 145.363 14.6474 145.637 13.8787C144.788 14.229 144.064 14.9001 142.704 16.2545C143.455 14.6351 144.68 13.4432 146.113 12.6862C147.207 10.2512 148.679 8.7942 150.181 8.84314C149.152 9.2964 148.142 10.4958 147.303 12.1843C148.303 11.8951 149.438 11.9161 149.475 12.2552C149.545 12.9635 148.488 13.4568 147.984 13.4837C147.477 13.5103 147.056 13.544 146.685 13.6007C146.378 14.4011 146.108 15.2745 145.885 16.2023C146.592 16.0797 147.33 15.9825 148.089 15.9146C149.565 15.7836 151.002 15.7724 152.315 15.8663C152.287 14.9221 152.223 14.0154 152.127 13.1592C151.8 13.045 151.506 12.958 151.272 12.8885C150.866 12.7682 150.639 12.7008 150.723 12.6367C151.142 12.4653 151.579 12.3669 152.022 12.3332C151.563 9.10278 150.622 6.72191 149.404 5.99297Z" fill="#E23E1F"/>
</svg>
