<svg width="144" height="40" viewBox="0 0 144 40" fill="none" xmlns="http://www.w3.org/2000/svg">
<path fill-rule="evenodd" clip-rule="evenodd" d="M8.85714 8C10.2857 8 12.381 8.288 15.1429 8.864V13.28C13.0952 12.416 11.2381 11.984 9.47619 11.984C7 11.984 5.80952 12.704 5.80952 14.144C5.80952 14.672 6.04762 15.104 6.57143 15.44C7 15.728 8.14286 16.304 10 17.168C12.6667 18.416 14.4762 19.52 15.3333 20.432C16.381 21.536 16.9048 22.976 16.9048 24.704C16.9048 27.2 15.8571 29.12 13.8095 30.416C12.1429 31.472 9.95238 32 7.28571 32C5.04762 32 2.7619 31.712 0.47619 31.136V26.576C2.95238 27.392 5.14286 27.824 7 27.824C9.61905 27.824 10.9524 27.104 10.9524 25.616C10.9524 25.088 10.7619 24.608 10.381 24.224C10 23.84 9 23.264 7.38095 22.592C4.47619 21.344 2.61905 20.288 1.7619 19.376C0.571429 18.272 0 16.784 0 15.008C0 12.704 0.809524 10.976 2.47619 9.776C4.09524 8.576 6.2381 8 8.85714 8ZM136 8C137.476 8 139.381 8.24 141.714 8.72L142.238 8.816V13.232C140.19 12.368 138.286 11.936 136.571 11.936C134.143 11.936 132.905 12.656 132.905 14.096C132.905 14.624 133.143 15.056 133.667 15.392C134.048 15.632 135.19 16.208 137.095 17.12C139.762 18.368 141.524 19.472 142.429 20.384C143.476 21.488 144 22.928 144 24.656C144 27.152 142.952 29.072 140.905 30.368C139.238 31.424 137.048 31.952 134.381 31.952C132.143 31.952 129.857 31.664 127.571 31.088V26.528C130 27.344 132.19 27.776 134.095 27.776C136.714 27.776 138 27.056 138 25.568C138 25.04 137.81 24.56 137.429 24.176C137.048 23.792 136.048 23.216 134.429 22.544C131.571 21.296 129.667 20.24 128.762 19.328C127.619 18.176 127.048 16.688 127.048 14.912C127.048 12.656 127.857 10.88 129.524 9.68C131.238 8.576 133.381 8 136 8ZM59.9524 8.384L65.4762 23.168L71.1429 8.384H78.6667V31.52H72.8571V15.152L66.4286 31.76H62.619L56.3333 15.152V31.52H52V8.384H59.9524ZM26.4286 8.384V31.52H20.3333V8.384H26.4286ZM47.7619 8.384V12.56H37.9524V17.792H46.4762V21.632H37.9524V27.104H48V31.52H32.0476V8.384H47.7619ZM100 8.384V12.56H90.1905V17.792H98.7143V21.632H90.1905V27.104H100.238V31.52H84.2857V8.384H100ZM111.381 8.384L118.905 23.888V8.384H123.238V31.52H116.333L108.619 15.824V31.52H104.286V8.384H111.381Z" fill="url(#paint0_linear_2096_4175)"/>
<defs>
<linearGradient id="paint0_linear_2096_4175" x1="144" y1="20" x2="0" y2="20" gradientUnits="userSpaceOnUse">
<stop stop-color="#009999"/>
<stop offset="1" stop-color="#009999"/>
</linearGradient>
</defs>
</svg>
