<svg width="130" height="40" viewBox="0 0 130 40" fill="none" xmlns="http://www.w3.org/2000/svg">
<path fill-rule="evenodd" clip-rule="evenodd" d="M0.0128977 20L0.0257441 40H20.0375H40.0493V20.0129V0.0257124L20.0247 0.0128818L0 0L0.0128977 20ZM32.3634 4.3505C34.8503 4.57568 36.224 5.88154 36.4987 8.28127C36.7157 10.1782 36.0477 11.4633 34.1472 12.8052L33.4232 13.3164L33.9981 13.3474C35.2661 13.4157 36.1683 14.0933 36.7272 15.3974C37.5099 17.224 37.0372 20.0311 35.7827 21.0054C35.5444 21.1905 35.071 21.5642 34.7308 21.836C34.0042 22.4164 34.0252 22.413 34.3153 21.9044C36.0284 18.9021 34.5674 15.08 31.7068 15.08C31.0035 15.08 30.8746 15.1327 29.9281 15.8078C28.913 16.5319 28.9292 16.5134 29.3445 16.4769C31.9409 16.249 33.6328 19.3357 32.6554 22.5176C32.3235 23.5982 32.1542 23.8374 31.1791 24.6027C29.9043 25.6033 29.6993 25.7527 29.7987 25.6094C32.045 22.3692 30.2147 17.9526 26.7934 18.3575C26.2736 18.419 26.23 18.4346 25.8817 18.684C25.7076 18.8087 25.3618 19.0551 25.1135 19.2317C24.8651 19.4083 24.6041 19.5992 24.5335 19.656L24.4052 19.7592L24.9703 19.7398C27.9523 19.6379 29.5143 23.4704 27.8598 26.8288C27.5399 27.4781 27.7429 27.2813 26.0102 28.6221C25.1772 29.2667 25.1716 29.2697 25.385 28.9598C25.7313 28.4572 26.0022 27.6901 26.1281 26.8561C26.5986 23.7383 24.6753 21.2996 22.0405 21.6732L21.6012 21.7355L20.7426 22.3463C19.6132 23.1498 19.6601 23.0831 20.1972 23.1243C22.8438 23.3275 24.3454 25.8614 23.7002 29.0352C23.3918 30.5516 23.2161 30.8047 21.5999 32.0605C20.101 33.2252 20.175 33.1778 20.431 32.8084C21.4138 31.3897 21.6155 29.0272 20.8866 27.4735C20.217 26.0464 19.0526 25.178 17.3051 24.8025L16.8764 24.7104L17.1007 24.6444C19.2723 24.0049 20.5419 22.2988 20.5474 20.0129C20.5535 17.4487 19.28 15.7674 16.8688 15.1565C15.6767 14.8544 15.7158 14.8561 9.05147 14.8263L2.92761 14.7988L4.44113 13.9658L5.95466 13.1329L12.0492 13.1527C17.2643 13.1697 18.2029 13.1839 18.5533 13.2512C21.0026 13.7216 22.3957 14.8897 22.9067 16.9016C23.3067 18.4765 23.0124 20.1506 22.1497 21.2083C21.8151 21.6186 21.8217 21.6208 22.3151 21.265C22.4981 21.1331 22.9587 20.8059 23.3387 20.5379C24.8486 19.4731 25.3514 18.5439 25.4209 16.6902C25.51 14.3116 24.4488 12.5558 22.5132 11.8791C21.3924 11.4873 20.6826 11.4503 14.3105 11.4515C11.4421 11.452 9.08842 11.4457 9.08008 11.4373C9.07174 11.4291 9.31121 11.2905 9.61226 11.1295C9.91331 10.9685 10.5363 10.629 10.9969 10.3751L11.8341 9.91332L17.5992 9.92942C22.9392 9.94429 23.4001 9.95242 23.8505 10.0392C26.4525 10.5408 27.7983 12.1838 27.8122 14.8755C27.8197 16.3369 27.5504 17.1118 26.7326 17.9817C26.5943 18.1289 26.4969 18.2493 26.5162 18.2493C26.6045 18.2493 28.4638 16.8847 28.728 16.626C30.4966 14.8942 30.4488 11.2029 28.6381 9.69162C27.1425 8.44321 26.7345 8.38545 19.3978 8.38402C14.0403 8.383 14.536 8.43054 15.3393 7.9947C15.5306 7.89088 16.0154 7.62538 16.4167 7.40465L17.1462 7.00332L22.4305 7.00434C29.3408 7.00562 29.5584 7.03507 30.8799 8.14765C32.5112 9.52094 32.8081 12.9766 31.4326 14.5798C31.128 14.9347 31.0777 15.0061 31.1694 14.9527C31.2458 14.9083 32.3117 14.1596 32.6537 13.9102C35.2133 12.0435 34.9513 7.503 32.2065 6.16069C31.0585 5.59921 31.1814 5.60933 25.1045 5.5757L19.8328 5.54646L20.3446 5.25907C20.6261 5.10096 21.1328 4.81936 21.4706 4.63323L22.0848 4.29488L26.9126 4.29448C30.0259 4.29422 31.9616 4.3141 32.3634 4.3505ZM101.508 12.9734C99.7283 13.6104 100.181 16.0257 102.081 16.0257C103.08 16.0257 103.678 15.4979 103.732 14.5688C103.8 13.388 102.652 12.5642 101.508 12.9734ZM105.894 19.8084C105.894 23.5617 105.894 26.6499 105.894 26.671C105.894 26.6921 106.562 26.7154 107.378 26.7229L108.862 26.7364V19.8603V12.9841H107.378H105.894V19.8084ZM67.4056 13.6003C63.4346 14.092 61.1447 16.5564 61.1382 20.3451C61.1329 23.4334 62.6088 25.6302 65.2375 26.4468C67.1184 27.0312 69.8501 26.957 72.191 26.2578L72.6005 26.1356L72.6136 22.6775L72.6268 19.2196L70.1825 19.2328L67.7383 19.2461L67.7245 20.409L67.7107 21.572H68.7043C69.8986 21.572 69.7669 21.3948 69.7566 22.9864C69.7475 24.3881 69.7785 24.2948 69.2951 24.3772C65.9604 24.9454 63.6017 22.3834 64.3595 19.0161C64.9408 16.4326 68.0766 15.2539 71.2087 16.4414C71.4003 16.5141 71.5634 16.5653 71.5711 16.5552C71.5788 16.5451 71.6491 16.2838 71.7274 15.9745C71.8056 15.6653 71.9395 15.1554 72.0247 14.8415C72.1099 14.5276 72.1661 14.2353 72.1495 14.192C72.0042 13.8139 68.8538 13.4209 67.4056 13.6003ZM80.8662 13.6287C80.2726 13.6771 79.4754 13.7612 79.1388 13.8108L78.7678 13.8656V20.2677V26.6699L79.0076 26.7027C81.6007 27.0577 84.9287 26.8061 86.317 26.1501C89.222 24.7776 89.1653 20.722 86.2281 19.7985C85.8641 19.684 85.8631 19.69 86.2799 19.4892C88.2738 18.5281 88.5998 15.9859 86.9054 14.6122C86.4409 14.2357 85.581 13.8726 84.7948 13.7209C84.3903 13.643 81.518 13.5755 80.8662 13.6287ZM48.4302 13.6825C48.3795 13.7029 48.3662 15.0588 48.3662 20.2216V26.7349H49.7559H51.1455L51.1123 22.7604C51.0939 20.5745 51.057 18.4187 51.0303 17.9699C51.0034 17.521 50.9876 17.1476 50.995 17.1403C51.0024 17.1329 51.1663 17.4771 51.3592 17.9053C52.0032 19.3344 52.5854 20.4569 54.0733 23.1379C54.4301 23.7808 55.025 24.8532 55.3955 25.5211L56.069 26.7354L57.63 26.7224L59.191 26.7093V20.1918V13.6742H57.8347H56.4784L56.4628 16.3835C56.4478 18.9839 56.4979 20.9411 56.6112 22.1778C56.6716 22.8387 56.6584 22.9008 56.5301 22.5571C56.262 21.8386 55.0575 19.3265 54.6118 18.556C54.506 18.3732 54.3438 18.0857 54.2513 17.917C54.1589 17.7483 53.7624 17.0467 53.3702 16.3579C52.978 15.6691 52.4943 14.818 52.2955 14.4666C52.0966 14.1151 51.8991 13.7873 51.8567 13.7381C51.7816 13.6511 48.635 13.6 48.4302 13.6825ZM83.4173 15.7977C84.5317 15.9372 85.0591 16.4512 85.0013 17.3414C84.9352 18.3589 84.1555 18.8116 82.469 18.8116H81.7363V17.3323V15.853L81.9538 15.8242C82.1729 15.7952 82.4792 15.7699 82.8124 15.7534C82.9117 15.7485 83.1839 15.7684 83.4173 15.7977ZM93.2649 17.0735C92.1242 17.1935 90.3705 17.745 90.4515 17.9583C90.4642 17.9918 90.5834 18.3988 90.7162 18.8627C91.0041 19.8678 90.9718 19.8248 91.3101 19.6535C93.1296 18.7327 95.2993 19.0342 95.2993 20.2079V20.3962L94.9282 20.3972C91.4264 20.4063 89.2408 22.2936 89.8729 24.7625C90.4285 26.9319 93.5023 27.7024 95.2293 26.1051C95.6016 25.7608 95.5863 25.7646 95.6282 26.0064C95.6464 26.1119 95.6851 26.3189 95.7142 26.4665L95.7672 26.7349H97.1013H98.4356L98.4005 26.4665C98.3168 25.8254 98.2697 24.3665 98.2706 22.441C98.2717 19.986 98.233 19.6895 97.8033 18.8627C97.0877 17.4853 95.4579 16.8428 93.2649 17.0735ZM114.545 17.0773C111.795 17.5669 110.182 20.1752 110.733 23.239C111.271 26.228 114.326 27.6242 118.163 26.6351C119.2 26.3678 119.157 26.4443 118.927 25.2643C118.72 24.2013 118.805 24.2885 118.139 24.4506C115.664 25.0538 113.805 24.5197 113.496 23.1162L113.46 22.9521H116.503H119.546L119.576 22.7604C119.938 20.4446 119.062 18.2804 117.432 17.4646C116.694 17.095 115.411 16.9229 114.545 17.0773ZM100.595 17.2908C100.581 17.326 100.576 19.4595 100.583 22.032L100.596 26.7093L102.068 26.7229L103.539 26.7365V21.9817V17.2269H102.079C100.958 17.2269 100.613 17.2417 100.595 17.2908ZM120.071 17.2846C120.071 17.3163 120.252 17.7936 120.474 18.3453C120.696 18.8969 121.488 20.8665 122.235 22.7221C122.981 24.5777 123.608 26.1719 123.627 26.2648C123.754 26.8675 122.525 28.0061 121.376 28.3491C121.207 28.3996 121.052 28.4542 121.032 28.4706C121.003 28.4946 121.28 29.7108 121.561 30.7887L121.612 30.9831L121.852 30.9485C123.974 30.6429 125.493 29.1124 126.884 25.8802C127.372 24.7447 130 17.4828 130 17.268C130 17.2454 129.289 17.2269 128.419 17.2269H126.839L126.807 17.3419C126.723 17.6534 125.583 22.2455 125.446 22.8243C125.36 23.1898 125.276 23.5234 125.259 23.5656C125.242 23.6077 125.14 23.3021 125.032 22.8864C124.876 22.2834 123.773 18.5883 123.416 17.4697L123.338 17.2269H121.705C120.526 17.2269 120.071 17.243 120.071 17.2846ZM12.6944 18.6599C14.0412 18.8239 14.6761 19.4017 14.7758 20.554C14.8759 21.7114 14.3454 22.5231 13.256 22.8795C13.0091 22.9602 12.7279 22.9739 10.9657 22.9911L8.95684 23.0106V20.8089V18.6071H10.6088C11.5173 18.6071 12.4559 18.6309 12.6944 18.6599ZM115.822 19.1023C116.383 19.283 116.75 19.8229 116.868 20.6391L116.899 20.8563H115.177H113.455L113.488 20.6391C113.661 19.5002 114.777 18.7652 115.822 19.1023ZM83.7712 21.0852C84.8177 21.3363 85.2898 21.8682 85.2921 22.7988C85.2952 24.0924 84.4418 24.6629 82.5552 24.6281L81.7619 24.6135L81.7484 22.778L81.735 20.9425L82.5929 20.9754C83.0648 20.9935 83.595 21.0429 83.7712 21.0852ZM95.4016 22.9457C95.4016 23.9374 95.2065 24.3236 94.5395 24.6515C93.5113 25.1571 92.5204 24.5092 92.7422 23.4764C92.8993 22.7448 93.7379 22.3111 95.0306 22.2929L95.4016 22.2876V22.9457ZM13.8446 27.1014C15.1939 27.5121 15.7537 29.1698 14.9921 30.4993C14.4633 31.4224 14.0181 31.54 11.0508 31.54H8.95684V29.2619V26.9839L11.2728 27.0038C13.1586 27.0199 13.6363 27.0381 13.8446 27.1014Z" fill="#153D57"/>
</svg>
