<svg width="130" height="40" viewBox="0 0 130 40" fill="none" xmlns="http://www.w3.org/2000/svg">
<path d="M42.9342 3.84077H64.9928V10.5158H50.0669V16.5479H64.1019V23.1287H50.0669V29.7094H65.7475L65.7487 36.3242H42.9354L42.9342 3.84077Z" fill="#00083B"/>
<path d="M125.063 11.7285C123.919 10.267 121.634 9.58078 119.897 9.58078C117.886 9.58078 115.096 10.4949 115.096 12.9176C115.096 18.8122 130 15.0196 130 26.3529C130 33.5728 124.194 37 117.52 37C113.36 37 109.702 35.7664 106.639 32.9324L111.713 27.3574C113.177 29.2773 115.554 30.4192 117.93 30.4192C120.263 30.4192 122.869 29.3231 122.869 27.0378C122.869 21.0975 107.691 24.2955 107.691 13.5109C107.691 6.61058 113.68 3 120.035 3C123.691 3 127.212 3.95994 129.954 6.38141L125.063 11.7285Z" fill="#00083B"/>
<path fill-rule="evenodd" clip-rule="evenodd" d="M86.8274 3.07989C79.6278 3.07989 76.841 8.93906 76.4073 17.5903C77.445 12.9281 81.4857 9.99984 86.7724 9.99984C91.9739 9.99984 95.9635 12.8338 97.0811 17.3638C96.6867 8.66798 94.0899 3.07989 86.8274 3.07989ZM97.064 22.7449C95.9229 27.233 91.9464 30.0381 86.7724 30.0381C81.4608 30.0381 77.4057 27.085 76.3916 22.3835C76.765 31.2914 79.5282 36.9358 86.8274 36.9358C93.8999 36.9358 96.6055 31.239 97.064 22.7449ZM92.9827 3.57754C98.1056 6.03305 101.284 11.7311 101.284 19.3688C101.284 27.4608 98.3493 33.9355 92.7443 36.5364C99.8338 34.3075 104.122 28.0318 104.122 20.0196C104.122 12.0965 99.9308 5.87066 92.9827 3.57754ZM72.1976 20.7949C72.1976 12.4331 75.3971 5.92304 81.1516 3.39288C73.8524 5.52099 69.4226 11.8739 69.4226 20.0196C69.4226 28.1418 73.8288 34.4816 81.0926 36.6281C75.65 34.2813 72.1976 28.4902 72.1976 20.7949Z" fill="#00083B"/>
<path d="M12.7391 36.3242V35.439H15.1381V4.7732H12.7391V3.84077H18.9757L33.8479 30.3158V4.7732H29.8177V3.84077H36.4866V4.7732H34.9511V36.3242H33.4627L16.2413 5.00632V35.439H20.1274V36.3242H12.7391Z" fill="#00083B"/>
<path d="M0 36.3242V35.439H2.44748V4.76928H0V3.84339H8.13247V4.76928H5.66139V35.439H8.13247V36.3242H0Z" fill="#00083B"/>
</svg>
