<svg width="76" height="40" viewBox="0 0 76 40" fill="none" xmlns="http://www.w3.org/2000/svg">
<g clip-path="url(#clip0_2095_4066)">
<path d="M75.0933 38.9951H75.3094L75.5478 39.7179H75.5491L75.7838 38.9951H75.9999V39.8743H75.8682V39.1429H75.8657L75.6211 39.8743H75.4734L75.2275 39.1429H75.225V39.8743H75.0933V38.9951ZM74.3122 39.1072H74.5791V39.8743H74.7133V39.1072H74.9815V38.9951H74.3122V39.1072Z" fill="black"/>
<path d="M74.3122 32.5043V33.7954C74.1711 33.7735 74.1551 33.7732 74.1226 33.7698C73.6818 33.7363 73.2012 33.8259 72.9512 33.8869C72.422 34.0161 71.9931 34.2062 71.6787 34.4701C71.6787 34.4701 71.5345 34.5787 71.429 34.7064V39.8743H70.1112V32.6637H71.429V33.1781C72.1598 32.7469 72.9584 32.5044 73.9158 32.5043C74.0092 32.5043 74.2405 32.5043 74.3122 32.5043ZM68.8752 35.6703V36.4937H63.6279C63.699 38.0363 64.8681 38.8084 66.0224 38.8084C66.9265 38.8084 67.5811 38.5956 68.2853 38.0743L68.576 37.8594V39.2509L68.5026 39.3041C67.902 39.7467 66.9976 39.9999 66.0244 39.9999C63.8369 39.9999 62.3103 38.4129 62.3103 36.2682C62.3103 34.1235 63.8003 32.5043 65.7811 32.5043C67.719 32.5043 68.8752 33.6873 68.8752 35.6703ZM67.5488 35.3512C67.4434 34.2384 66.8491 33.6959 65.738 33.6959C64.7648 33.6959 64.0306 34.3108 63.7399 35.3512H67.5488ZM58.1316 32.5043C57.533 32.5043 56.8138 32.7192 56.1421 33.0917V28.8242H54.8243V39.8743H56.1421V34.7052C56.394 34.1624 57.5093 33.7431 58.0519 33.7431C59.2361 33.7431 59.811 34.2411 59.811 35.2628V39.8743H61.1287V35.0734C61.1287 33.3684 60.1189 32.5043 58.1316 32.5043ZM53.4096 34.8361V39.7062L53.2761 39.7424C52.6819 39.9041 51.9261 39.9999 51.2543 39.9999C48.5134 39.9999 47.9385 38.7977 47.9385 37.7914C47.9385 36.3701 49.2347 35.5531 51.4933 35.5531H52.0919V34.8999C52.0919 33.8935 51.2866 33.7424 50.8086 33.7424C49.9904 33.7424 49.3854 33.9978 48.8557 34.2722L48.5909 34.4105V33.1105L48.6856 33.0595C49.3574 32.702 50.1519 32.5043 50.9206 32.5043C52.5903 32.5043 53.4096 33.3448 53.4096 34.8361ZM52.0919 36.6829H51.5579C50.6988 36.6829 49.2562 36.8275 49.2562 37.7935C49.2562 38.6722 50.3672 38.8573 51.3017 38.8573C51.545 38.8573 51.8249 38.8339 52.0919 38.7914V36.6829ZM46.7932 35.0722V39.8743H45.4756V35.2616C45.4756 34.2403 44.9007 33.7424 43.7164 33.7424C43.1739 33.7424 42.0585 34.1616 41.8066 34.7041V39.8743H40.4889V32.6637H41.8066V33.0914C42.4784 32.719 43.1976 32.5043 43.7961 32.5043C45.7835 32.5043 46.7932 33.368 46.7932 35.0722ZM39.0743 34.8361V39.7062L38.9408 39.7424C38.3465 39.9041 37.5908 39.9999 36.919 39.9999C34.178 39.9999 33.6031 38.7977 33.6031 37.7914C33.6031 36.3701 34.8994 35.5531 37.158 35.5531H37.7566V34.8999C37.7566 33.8935 36.9513 33.7424 36.4733 33.7424C35.6551 33.7424 35.0501 33.9978 34.5204 34.2722L34.2556 34.4105V33.1105L34.3503 33.0595C35.0221 32.702 35.8166 32.5043 36.5852 32.5043C38.255 32.5043 39.0743 33.3448 39.0743 34.8361ZM37.7566 36.6829H37.2226C36.3635 36.6829 34.9209 36.8275 34.9209 37.7935C34.9209 38.6722 36.0319 38.8573 36.9664 38.8573C37.2097 38.8573 37.4896 38.8339 37.7566 38.7914V36.6829ZM31.14 32.7191V28.8242H32.4579V39.7457L32.3179 39.7776C31.5922 39.9436 30.7955 39.9999 30.0159 39.9999C27.421 39.9999 25.8081 38.4829 25.8081 36.268C25.8081 34.0531 27.4533 32.5043 29.8092 32.5043C30.2162 32.5043 30.7416 32.5701 31.14 32.717V32.7191ZM31.14 33.9552C30.7955 33.7978 30.3282 33.7106 29.8092 33.7106C28.1877 33.7106 27.1411 34.6808 27.1411 36.268C27.1411 37.8552 28.2436 38.8083 30.0159 38.8083C30.4746 38.8083 30.8299 38.7912 31.14 38.7529V33.9552Z" fill="black"/>
<path d="M33.388 10.3594C33.8605 11.1273 34.4292 12.2756 34.4292 13.7422C34.4292 17.3652 30.8096 20.77 22.0467 24.2175C21.8254 24.3046 16.6803 26.2343 16.5 26.3034C12.605 27.796 7.56714 29.636 7.56714 31.9744C7.56714 34.768 10.8765 38.5998 17.5997 39.9997C17.4299 39.4679 17.2652 38.8399 17.2652 37.9078C17.2652 29.4314 34.8738 22.5631 34.8738 14.4923C34.8738 12.8211 34.3094 11.6402 33.388 10.3594Z" fill="url(#paint0_radial_2095_4066)"/>
<path d="M16.5001 26.304C16.4992 26.3042 16.5007 26.3037 16.5001 26.304C16.6807 26.2355 21.8255 24.3051 22.0468 24.2181C30.8097 20.7706 34.4293 17.3658 34.4293 13.7428C34.4293 12.2761 33.8606 11.1279 33.3881 10.3599C29.2488 3.63312 15.2954 0.212111 3.02812 0.00569798C1.83238 -0.0144219 0.703258 0.0220675 0 0.0631721C0 0.0631721 17.0891 17.0394 17.1782 24.259C17.1883 25.0799 16.9797 25.7746 16.5001 26.304Z" fill="url(#paint1_radial_2095_4066)"/>
</g>
<defs>
<radialGradient id="paint0_radial_2095_4066" cx="0" cy="0" r="1" gradientUnits="userSpaceOnUse" gradientTransform="translate(17.6104 40.0555) rotate(-59.8538) scale(34.2954 46.6901)">
<stop stop-color="#00A0FE"/>
<stop offset="0.296311" stop-color="#3B01E3"/>
</radialGradient>
<radialGradient id="paint1_radial_2095_4066" cx="0" cy="0" r="1" gradientUnits="userSpaceOnUse" gradientTransform="translate(34.4469 13.0952) rotate(-159.811) scale(36.0835 19.4688)">
<stop offset="0.0511204" stop-color="#DF09FF"/>
<stop offset="1" stop-color="#5A27FE"/>
</radialGradient>
<clipPath id="clip0_2095_4066">
<rect width="76" height="40" fill="white"/>
</clipPath>
</defs>
</svg>
