<svg width="250" height="52" viewBox="0 0 250 52" fill="none" xmlns="http://www.w3.org/2000/svg">
<path d="M107.186 42.8031V51.7241H99.757V21.0166H107.114L107.064 23.1826C108.939 21.1916 111.273 20.4718 113.572 20.4718C119.826 20.4718 123.269 25.6344 123.269 31.5156C123.269 37.2651 119.692 42.5473 113.572 42.5473C110.964 42.5473 108.874 41.8552 107.114 39.8298C107.115 42.4034 107.186 41.6791 107.186 42.8031ZM106.757 31.4448C106.757 33.9807 108.676 36.1578 111.241 36.1578C113.764 36.1578 115.727 33.9375 115.727 31.4448C115.727 28.9709 113.764 26.7362 111.241 26.7362C108.655 26.7362 106.757 28.9188 106.757 31.4448Z" fill="#131316"/>
<path d="M149.472 31.5356C149.472 38.6981 143.801 42.7688 137.102 42.7688C130.258 42.7688 124.672 38.8254 124.672 31.5356C124.672 23.9046 130.258 20.1894 137.102 20.1894C143.602 20.1894 149.472 23.5292 149.472 31.5356ZM141.785 31.5588C141.785 29.1447 140.149 26.7462 137.102 26.7462C134.264 26.7462 132.401 28.4537 132.401 31.4769C132.401 34.5919 134.019 36.2009 137.102 36.2009C140.001 36.2009 141.785 34.1944 141.785 31.5588Z" fill="#131316"/>
<path d="M16.3798 21.2137C12.4238 19.6268 1.16277 18.6612 1.16277 27.9056C1.16277 29.4249 2.19708 33.4447 7.35874 33.603C9.58437 33.6695 10.3552 34.3317 10.3552 35.4136C10.3552 36.5453 7.82868 38.3614 2.60005 35.0426L0 40.4654C10.0093 45.6568 17.9247 41.296 17.7666 34.8311C17.648 29.9974 14.6527 28.6719 11.0162 28.3895C8.84982 28.2068 8.56873 27.2589 8.64559 26.7761C8.94424 24.5203 12.3063 25.3885 14.029 26.1083L16.3798 21.2137Z" fill="#131316"/>
<path d="M17.3362 21.0399H24.9354L27.5354 30.9608L27.8484 32.6961L28.1701 30.983L30.9919 21.0399H38.4627L41.2527 31.0129L41.5854 32.8057L41.9378 31.0129L44.663 21.0399H51.9581L44.9803 42.0401H37.7369L34.8371 31.5566L34.5593 30.1458L34.2716 31.5367L31.2763 42.0401H24.1844L17.3362 21.0399Z" fill="#131316"/>
<path d="M60.3303 21.0399H53.0352V42.039H60.3303V21.0399Z" fill="#131316"/>
<path d="M52.3753 13.3923C52.3753 10.9982 54.299 9.0514 56.6256 9.0514C58.9995 9.0514 60.9067 10.9982 60.9067 13.3923C60.9067 15.792 58.9995 17.741 56.6256 17.741C54.299 17.741 52.3753 15.792 52.3753 13.3923Z" fill="#131316"/>
<path d="M61.6545 40.5308C71.6912 45.731 79.6769 41.3801 79.5166 34.9042C79.3958 30.0561 76.3094 28.7228 72.6684 28.4526C70.5152 28.2821 70.2375 27.312 70.3088 26.8381C70.647 24.3044 74.86 25.7163 76.2578 26.4383L78.67 21.4584C75.3706 19.7774 62.8194 18.0754 62.8194 27.9687C62.8194 29.4958 63.8537 33.5045 69.0132 33.6673C71.2388 33.7437 72.0074 34.4092 72.0074 35.4867C72.0074 36.604 69.4722 38.4401 64.2413 35.1213L61.6545 40.5308Z" fill="#131316"/>
<path d="M96.6277 21.4607C93.337 19.7786 80.6475 18.1175 80.6475 28.0208C80.6475 29.5467 81.8323 33.5067 86.984 33.6684C89.2031 33.7426 89.9684 34.4114 89.9684 35.4856C89.9684 36.6195 87.3969 38.4744 82.0804 35.0415L79.4529 40.44C89.5435 45.7875 97.628 41.399 97.4786 34.9042C97.3546 30.055 94.2758 28.7239 90.6228 28.4526C88.4543 28.2832 88.2017 27.3098 88.2632 26.8381C88.6036 24.3055 92.8122 25.7163 94.2143 26.4372L96.6277 21.4607Z" fill="#131316"/>
<path d="M181.899 27.2478H177.834V42.0302H170.516V27.2478H168.07V21.0875H170.516V14.4609H177.834V21.0875H181.899V27.2478Z" fill="#131316"/>
<path d="M166.422 27.869C165.665 27.5579 164.554 27.4039 163.75 27.4039C160.177 27.4039 158.877 29.9841 158.877 33.2874V41.9848H151.523V20.9889H158.878V23.5204C160.085 21.7519 162.63 20.8228 164.675 20.8228C165.259 20.8228 165.85 20.8837 166.422 20.9889V27.869Z" fill="#131316"/>
<path d="M219.873 16.5527C220.008 17.6625 220.107 18.8309 220.164 20.045C221.703 20.2213 223.09 20.5045 224.248 20.8811C223.419 18.6186 221.559 17.3254 219.873 16.5527Z" fill="#131316"/>
<path d="M218.865 20.9892C217.123 20.8821 215.215 20.9081 213.2 21.0886C211.87 21.2067 210.575 21.385 209.338 21.6136C209.132 22.6366 208.965 23.6985 208.845 24.7883C208.672 26.3672 208.609 27.8973 208.642 29.3479C210.226 29.4064 211.895 29.4076 213.617 29.3441C215.269 29.2835 216.863 29.1674 218.371 29.0042C218.55 27.6801 218.685 26.2944 218.769 24.8636C218.847 23.5413 218.877 22.2451 218.865 20.9892Z" fill="#131316"/>
<path d="M219.896 28.8194C219.992 27.9258 220.068 27.0097 220.123 26.0751C220.224 24.3663 220.248 22.6988 220.204 21.101C221.873 21.2788 223.355 21.5872 224.586 22.0039C225.113 24.1338 225.001 26.1955 224.391 28.0026C223.043 28.3231 221.531 28.5994 219.896 28.8194Z" fill="#131316"/>
<path d="M218.206 30.1319C217.177 30.2354 216.114 30.3184 215.027 30.3784C212.805 30.5018 210.667 30.4933 208.683 30.3784C208.739 31.3583 208.839 32.2962 208.981 33.1819C211.011 34.2792 213.701 34.699 217.08 34.1988C217.182 34.1838 217.283 34.1671 217.384 34.1489C217.703 32.9063 217.98 31.5598 218.206 30.1319Z" fill="#131316"/>
<path d="M219.157 33.6371C219.395 32.472 219.599 31.2407 219.763 29.9566C221.21 29.7759 222.579 29.5544 223.846 29.2995C222.847 31.2628 221.207 32.8098 219.157 33.6371Z" fill="#131316"/>
<path d="M205.769 30.1219C206.275 30.9515 206.902 31.683 207.654 32.296C207.567 31.6522 207.501 30.9829 207.457 30.2924C206.879 30.2446 206.315 30.1875 205.769 30.1219Z" fill="#131316"/>
<path fill-rule="evenodd" clip-rule="evenodd" d="M180.556 51.668H219.682L250 0H209.981L180.556 51.668ZM214.662 5.73702C214.716 5.74145 214.771 5.74588 214.827 5.75253C217.021 6.05606 218.766 9.63959 219.631 14.8628C223.127 15.2112 226.613 18.0964 227.561 21.629C228.015 23.3201 228.118 25.145 227.863 26.9363C229.889 26.1215 231.044 25.1711 230.968 24.1926C230.907 23.4617 230.172 22.7995 228.917 22.2347C231.172 22.898 232.555 23.7795 232.65 24.795C232.77 26.0755 230.824 27.3458 227.581 28.3608C226.583 32.2857 223.792 35.8216 219.116 37.1156C218.814 37.1992 218.514 37.2744 218.216 37.3412C216.76 42.0243 214.679 44.9108 212.539 44.6137C211.032 44.4044 209.74 42.6503 208.799 39.8797C209.582 41.4887 210.537 42.4764 211.605 42.6271C213.298 42.8605 214.956 40.9439 216.259 37.6637C213.917 37.9068 211.753 37.6032 209.887 36.7911C210.549 38.6142 211.445 39.984 212.501 40.7224C210.791 40.4447 209.403 38.706 208.509 36.065C206.74 34.9548 205.323 33.3087 204.39 31.169C204.217 30.7762 204.083 30.3318 203.985 29.8675C200.263 29.2475 197.606 28.2062 196.795 27.0252C198.191 27.8807 200.683 28.557 203.841 28.9639C203.706 27.7591 203.789 26.5555 204.047 25.8614C204.275 25.2308 204.289 25.3394 204.364 25.9019C204.449 26.5354 204.61 27.7448 205.239 29.122C205.938 29.1906 206.663 29.2468 207.411 29.2898C207.366 27.7726 207.427 26.1675 207.608 24.5148C207.707 23.6104 207.835 22.7335 207.988 21.8883C203.217 22.9497 199.544 24.7611 198.548 26.6808C198.482 24.282 202.514 21.8946 208.231 20.6713C208.513 19.3787 208.855 18.1716 209.248 17.0671C208.029 17.5705 206.989 18.5347 205.034 20.4806C206.113 18.1539 207.874 16.4414 209.933 15.3537C211.504 11.8552 213.62 9.76178 215.777 9.8321C214.299 10.4833 212.848 12.2066 211.643 14.6326C213.078 14.2171 214.71 14.2472 214.764 14.7345C214.864 15.7521 213.345 16.4609 212.62 16.4996C211.893 16.5378 211.287 16.5862 210.755 16.6677C210.314 17.8177 209.925 19.0725 209.605 20.4055C210.621 20.2295 211.681 20.0898 212.772 19.9923C214.892 19.804 216.957 19.788 218.844 19.9228C218.803 18.5663 218.711 17.2634 218.573 16.0333C218.103 15.8693 217.681 15.7442 217.345 15.6445C216.762 15.4715 216.435 15.3747 216.557 15.2826C217.159 15.0364 217.786 14.8949 218.423 14.8466C217.762 10.2051 216.411 6.78436 214.662 5.73702Z" fill="#131316"/>
<path d="M219.873 16.5527C220.009 17.6625 220.107 18.8309 220.165 20.045C221.703 20.2213 223.09 20.5045 224.248 20.8811C223.42 18.6186 221.56 17.3254 219.873 16.5527Z" fill="#E23E1F"/>
<path d="M218.865 20.9892C217.124 20.8821 215.215 20.9081 213.2 21.0886C211.87 21.2067 210.575 21.385 209.339 21.6136C209.132 22.6366 208.965 23.6985 208.846 24.7883C208.673 26.3672 208.609 27.8973 208.643 29.3479C210.226 29.4064 211.896 29.4076 213.618 29.3441C215.269 29.2835 216.863 29.1674 218.371 29.0042C218.55 27.6801 218.685 26.2944 218.769 24.8636C218.847 23.5413 218.878 22.2451 218.865 20.9892Z" fill="#E23E1F"/>
<path d="M219.897 28.8194C219.992 27.9258 220.068 27.0097 220.123 26.0751C220.224 24.3663 220.249 22.6988 220.204 21.101C221.874 21.2788 223.355 21.5872 224.586 22.0039C225.113 24.1338 225.001 26.1955 224.391 28.0026C223.043 28.3231 221.531 28.5994 219.897 28.8194Z" fill="#E23E1F"/>
<path d="M218.206 30.1319C217.177 30.2354 216.115 30.3184 215.027 30.3784C212.806 30.5018 210.667 30.4933 208.684 30.3784C208.739 31.3583 208.839 32.2962 208.981 33.1819C211.011 34.2792 213.701 34.699 217.081 34.1988C217.182 34.1838 217.283 34.1671 217.384 34.1489C217.703 32.9063 217.98 31.5599 218.206 30.1319Z" fill="#E23E1F"/>
<path d="M219.157 33.6371C219.395 32.472 219.599 31.2407 219.763 29.9566C221.21 29.776 222.579 29.5544 223.846 29.2995C222.847 31.2628 221.207 32.8098 219.157 33.6371Z" fill="#E23E1F"/>
<path d="M205.77 30.1219C206.275 30.9515 206.903 31.683 207.655 32.296C207.567 31.6522 207.501 30.9829 207.458 30.2924C206.879 30.2446 206.316 30.1875 205.77 30.1219Z" fill="#E23E1F"/>
<path fill-rule="evenodd" clip-rule="evenodd" d="M180.557 51.668H219.682L250 0H209.982L180.557 51.668ZM214.662 5.73703C214.717 5.74145 214.772 5.74588 214.828 5.75253C217.022 6.05606 218.766 9.63959 219.631 14.8628C223.127 15.2112 226.614 18.0964 227.561 21.629C228.015 23.3201 228.119 25.145 227.863 26.9363C229.889 26.1215 231.044 25.1711 230.968 24.1926C230.908 23.4617 230.172 22.7995 228.917 22.2347C231.172 22.898 232.556 23.7795 232.65 24.795C232.77 26.0755 230.824 27.3458 227.582 28.3608C226.584 32.2857 223.792 35.8216 219.116 37.1156C218.814 37.1992 218.514 37.2744 218.216 37.3412C216.76 42.0243 214.679 44.9108 212.539 44.6137C211.032 44.4044 209.741 42.6503 208.8 39.8797C209.582 41.4887 210.538 42.4765 211.605 42.6271C213.299 42.8605 214.956 40.9439 216.259 37.6637C213.917 37.9068 211.754 37.6032 209.887 36.7911C210.55 38.6142 211.445 39.984 212.501 40.7224C210.792 40.4447 209.404 38.706 208.509 36.065C206.74 34.9548 205.323 33.3087 204.39 31.169C204.218 30.7762 204.084 30.3318 203.986 29.8675C200.263 29.2475 197.606 28.2062 196.795 27.0252C198.192 27.8807 200.683 28.557 203.841 28.9639C203.706 27.7592 203.789 26.5555 204.047 25.8614C204.275 25.2308 204.29 25.3394 204.365 25.9019C204.449 26.5354 204.61 27.7448 205.24 29.122C205.938 29.1906 206.664 29.2468 207.411 29.2898C207.366 27.7726 207.427 26.1675 207.608 24.5148C207.708 23.6104 207.835 22.7335 207.988 21.8883C203.218 22.9497 199.544 24.7611 198.549 26.6808C198.482 24.282 202.514 21.8946 208.231 20.6713C208.513 19.3787 208.856 18.1716 209.248 17.0671C208.029 17.5705 206.989 18.5347 205.035 20.4806C206.113 18.1539 207.874 16.4414 209.933 15.3537C211.504 11.8552 213.62 9.76178 215.777 9.8321C214.299 10.4833 212.848 12.2066 211.643 14.6326C213.079 14.2171 214.711 14.2472 214.764 14.7345C214.864 15.7521 213.345 16.4609 212.621 16.4996C211.893 16.5378 211.287 16.5862 210.755 16.6677C210.314 17.8177 209.926 19.0725 209.605 20.4056C210.622 20.2295 211.681 20.0899 212.772 19.9923C214.892 19.804 216.957 19.788 218.844 19.9228C218.803 18.5663 218.712 17.2634 218.574 16.0334C218.103 15.8693 217.682 15.7442 217.345 15.6445C216.762 15.4715 216.436 15.3747 216.557 15.2826C217.159 15.0364 217.786 14.8949 218.423 14.8466C217.763 10.2051 216.411 6.78436 214.662 5.73703Z" fill="#E23E1F"/>
</svg>
