<?xml version="1.0" encoding="UTF-8"?> <svg xmlns="http://www.w3.org/2000/svg" width="142" height="41" viewBox="0 0 142 41" fill="none"><g id="Real company logo" clip-path="url(#clip0_354_36357)"><path id="Vector" d="M68.9984 29.6397C68.6315 29.6397 68.448 29.5648 68.448 29.1902V11.6621C68.448 11.3625 68.5397 11.2127 68.9984 11.2127H79.3643C83.4005 11.2127 85.6938 13.0105 85.6938 16.0816V24.6959C85.6938 27.767 83.4005 29.5648 79.3643 29.5648H68.9984V29.6397ZM78.7221 25.8944C80.2816 25.8944 80.832 25.37 80.832 24.0217V16.7558C80.832 15.4075 80.1899 14.8831 78.7221 14.8831H73.3099V25.8195H78.7221V25.8944ZM93.7664 29.1902C93.7664 29.4899 93.6746 29.6397 93.216 29.6397H89.3632C88.9962 29.6397 88.8128 29.5648 88.8128 29.1902V11.6621C88.8128 11.3625 88.9045 11.2127 89.3632 11.2127H103.215C103.582 11.2127 103.765 11.2876 103.765 11.6621V14.5086C103.765 14.8082 103.674 14.958 103.215 14.958H93.7664V18.9281H102.022C102.389 18.9281 102.573 19.003 102.573 19.3775V22.2239C102.573 22.5236 102.481 22.6734 102.022 22.6734H93.7664V29.1902ZM106.884 29.6397C106.517 29.6397 106.334 29.5648 106.334 29.1902V11.6621C106.334 11.3625 106.426 11.2127 106.884 11.2127H117.25C121.286 11.2127 123.58 13.0105 123.58 16.0816V24.6959C123.58 27.767 121.286 29.5648 117.25 29.5648H106.884V29.6397ZM116.608 25.8944C118.167 25.8944 118.718 25.37 118.718 24.0217V16.7558C118.718 15.4075 118.076 14.8831 116.608 14.8831H111.196V25.8195H116.608V25.8944ZM126.79 29.6397C126.423 29.6397 126.24 29.5648 126.24 29.1902V26.3438C126.24 26.0442 126.332 25.8944 126.79 25.8944L134.863 25.9693C136.422 25.9693 136.973 25.8944 136.973 24.546V24.0966C136.973 23.1228 136.697 22.8232 135.597 22.5985L130.643 21.2502C128.441 20.7258 126.24 20.1266 126.24 16.8307V15.4075C126.24 12.3363 128.533 10.988 132.569 10.988L140.092 11.0629C140.459 11.0629 140.642 11.1378 140.642 11.5123V14.3588C140.642 14.6584 140.55 14.8082 140.092 14.8082L133.212 14.7333C131.652 14.7333 131.102 14.7333 131.102 16.0816V16.4562C131.102 17.4299 131.377 17.5798 132.478 17.8794L137.431 19.2277C139.541 19.752 141.835 20.3513 141.835 23.6472V25.0704C141.835 28.1415 139.541 29.6397 135.505 29.6397H126.79ZM40.4694 40.2764L68.448 0.950537C68.6315 0.725818 68.448 0.501099 68.1728 0.501099H28.911L28.6358 0.650911L0.657225 39.9018C0.473759 40.1266 0.657225 40.3513 0.932424 40.3513H40.1025C40.2859 40.4262 40.3777 40.3513 40.4694 40.2764Z" fill="#0F1924"></path><path id="Vector_2" d="M45.6065 26.4186L36.5249 21.9991C36.4331 21.9991 36.3414 21.9991 36.4331 22.074L41.8454 29.4897L41.7537 29.6396H27.2598L27.1681 29.4897L32.6721 22.074C32.6721 21.9991 32.6721 21.9242 32.5804 21.9991L23.4988 26.4186L23.3153 26.3437V14.5085L23.4988 14.4336L32.4886 18.853C32.5804 18.853 32.6721 18.853 32.5804 18.7781L27.1681 11.3624L27.2598 11.2126H41.7537L41.8454 11.3624L36.4331 18.7781C36.4331 18.853 36.4331 18.9279 36.5249 18.853L45.5147 14.4336L45.6982 14.5085V26.4186C45.7899 26.4186 45.6982 26.4935 45.6065 26.4186Z" fill="#F9FAFB"></path></g><defs><clipPath id="clip0_354_36357"><rect width="140.833" height="40" fill="white" transform="translate(0.583374 0.426086)"></rect></clipPath></defs></svg> 