<svg width="538" height="177" viewBox="0 0 538 177" fill="none" xmlns="http://www.w3.org/2000/svg">
<g clip-path="url(#clip0_2106_4342)">
<path d="M273.44 60.0502C273.72 59.1602 269.58 62.7002 264.68 58.3102C266.22 58.1502 267.92 54.2302 264.23 50.5202C265.92 50.1402 262.69 53.7702 263.66 53.6302C268.99 56.6602 274.12 52.4602 274.12 51.7702C278.98 55.2802 282.89 54.1702 283.14 53.4202C289.13 57.8202 289.09 62.9602 287.07 59.0402C288.47 59.6702 291.81 56.0502 289.5 50.3102C290.42 50.2902 278.46 50.5802 275.56 45.5402C277.24 45.6102 283.6 41.4202 281.05 35.9902C282.37 36.4902 289.46 32.1002 287.31 26.2202C288.22 27.1102 274.33 27.9502 271.29 22.0302C272.7 21.4702 282.76 23.1202 282.57 15.6002C285.67 21.6402 281.95 19.9802 281.15 17.6902C284.31 23.6402 290.81 22.1702 290.52 20.0202C293.12 25.8802 289.99 30.4302 289.59 28.7802C292.23 34.1802 296.23 34.4402 296.16 33.0302C298.41 38.2702 298.06 41.0802 298.03 40.0302C300.22 45.0702 293.33 51.0802 292.86 50.4902C296.47 57.3402 298.57 57.0102 296.87 52.5802C297.58 53.5102 306.99 49.3602 306.07 43.6402C306.27 44.1802 295.08 43.3602 293.57 38.0502C294.51 38.7502 303.48 35.3802 302.53 29.7302C302.95 30.8202 300.07 28.8702 298.93 22.9002C299.56 24.3002 292.17 22.8002 290.56 16.5602C291.67 18.1802 301.85 14.7802 300.87 8.22023C301.22 8.73023 292.4 4.21023 293.62 1.61023C297.52 9.23023 293.92 10.1702 293.88 9.95023C295.65 16.6302 297.81 18.7402 297.65 17.2502C299.37 23.7102 296.32 27.6702 296.16 26.4402C298.22 32.5502 301.03 34.7002 301.4 33.4602C303.99 39.6702 306.99 37.8702 308.56 33.8502C310.28 36.2702 306.9 33.8002 307.83 27.3302C309.07 28.8202 323.54 31.5602 324.97 25.5002C325.07 26.8302 325 23.9502 326.37 17.5802C326.36 19.2002 321.03 15.1002 322.1 8.35023C322.42 10.1502 322.92 7.73023 324.11 0.990234C324.78 2.50023 320.22 1.90023 321 2.10023C320.77 9.21023 331.28 11.4502 332.19 9.12023C331.01 15.8602 321.99 17.2802 322.14 15.2502C321.36 21.6602 331.18 25.6102 331.82 24.0302C330.38 30.0002 318.34 30.1702 318.26 28.7902C317.63 34.7002 314.75 37.9802 314.89 36.8802C315.01 42.5402 322.65 45.1202 325.69 42.9102C328.25 45.9602 330.75 43.5902 333.32 39.0202C334.59 38.9202 342.72 38.8302 344.66 31.7602C343.03 31.6802 328.51 31.7602 329.32 24.5202C328.4 26.0002 342.35 23.9102 344.2 17.8002C342.64 18.1302 332.09 18.9002 334.45 15.7702C334.25 20.7502 339.17 19.0002 342.03 17.6902C341.34 23.7502 341.69 26.2502 344.23 24.6702C343.85 31.8302 348.69 31.2802 350.74 31.4702C348.55 37.8802 337.71 34.1902 337.52 34.2402C335.25 39.1602 343.22 46.0002 343.86 45.2902C340.55 50.2402 335.57 54.1702 335.59 51.9402C330.89 53.4302 321.82 56.2902 326.7 55.9502C329.77 59.0902 328.23 46.1602 332.99 41.9102C335.58 42.9102 336.14 44.1802 341.4 39.8102C343.5 40.9302 344.23 37.8002 350.3 34.0702C350.61 36.7502 354.49 46.9702 354.46 46.6302C351.44 49.5502 347.36 48.1802 346.54 47.5102C342.94 50.8402 341.79 53.3502 341.42 52.4902C337.87 55.6502 338.54 61.3702 338.2 60.8502C333.55 64.2402 322.56 60.2202 324.54 61.7202C325.41 66.3502 331.38 56.6602 336.67 54.6702C337.5 56.4902 339.99 68.8602 344.15 67.7602C344.85 68.8902 347.5 58.6002 351.79 57.0202C353.38 59.0502 361.98 62.7502 364.76 62.4102C361.64 65.0002 357.64 71.5302 357.83 72.2202C353.62 74.1802 347.61 69.0102 347.8 68.9102C342.83 71.5702 344.09 67.6402 342.64 66.1502C338.19 67.1102 336.31 76.4102 334.86 74.7702C331.01 74.5402 329.41 66.5602 330.66 68.2602C330.12 73.3702 332.14 72.7802 336.27 74.9602C337.84 78.5302 337.77 77.6502 343.44 77.9002C345.62 79.1802 352.94 79.4502 353.08 75.4402C348.44 72.3702 343.98 79.3102 341.16 78.2202C335.63 78.2002 337.37 73.0702 334.84 70.6902C329.91 70.2002 328.17 74.7402 325.07 72.4702C320.71 71.8802 322.71 73.6602 319.18 74.1202C315.2 76.0302 311.09 72.8602 312.54 75.7602C314.17 79.9202 317.96 70.0002 322.21 69.5902C325.53 71.2102 325.54 71.1702 330.26 70.8402C333.12 72.3802 333.5 76.4202 338.06 78.0602C339.53 80.5202 333.81 84.7802 336.71 87.9002C337 90.9002 348.52 88.0502 350.98 91.7702C349.17 95.0602 339.99 89.6402 337.48 88.0602C334.15 87.1502 332.12 85.5602 330.72 84.4302C327.56 83.6602 323.04 88.2402 321.28 87.3902C318.43 86.3802 317.69 81.5202 315.85 80.4302C311.28 79.1602 312.2 73.8302 314.89 74.9602C316.23 76.6002 317.76 77.2702 320.78 78.0902C322.36 79.5902 323.49 82.6302 326.45 83.5302C327.87 84.7602 331.59 82.8802 334.89 83.7402C335.95 85.0602 332.23 97.2702 335.33 99.0502C336.8 99.8802 335.53 101.74 337.87 103.9C337.9 104.6 343.07 104.14 339.65 105.44C335.8 104.47 333.22 102.15 332.11 102.74C328.73 101.46 325.92 101.94 324.48 102.1C321.63 100.41 324.34 90.1502 323.01 89.2502C320.31 87.8802 317.38 89.8902 315.92 88.7702C312.63 86.1302 311.34 88.2102 307.69 87.3002C305.43 86.5202 303.1 86.6102 300.6 88.1102C300.14 89.1002 301.7 91.8402 303.56 94.2302C306.25 95.4302 308.01 96.5002 309.7 97.1602C313.57 96.6802 313.16 100.02 316.65 100.77C320.03 99.9002 323.14 90.1502 327.18 92.4702C328.38 93.3302 326.68 101.01 329.39 103.25C331.55 104.45 329.45 102.29 329.52 104.09C327.89 103.82 329.45 107.12 327.14 108.55C324.27 107.41 322.04 103.65 320.27 104.67C316.3 103.61 316.74 108.52 313.53 108.9C310.94 106.87 308.23 114.01 305.32 114.76C303.43 112.26 300.07 106.35 300.02 109.97C302.42 113.16 305.81 112.3 310.32 115.43C313.33 114.63 310.28 109.22 312.77 109.28C315.21 106.85 319.68 110.85 320.72 113.3C321.75 113.68 332.31 118.95 331.19 124.15C328.39 124.59 322.66 126.31 319.87 129.35C316.42 127.45 316 125.16 312.79 128.13C309.75 126.3 311.01 115.8 307.64 116.44C303.86 113.2 301.75 124.03 296.36 125.4C294.09 122.49 296.1 116.86 292.82 121.58C291.86 122.49 296.73 116.84 299.85 119.38C303.02 117.87 306.06 118.37 307.9 121.22C310.91 120.24 317.91 121.65 318.94 125.92C319.47 125.76 311.27 120.45 306.9 122.48C305.12 120.38 302.75 125.68 299.22 127.69C297.54 124.97 294.84 125.83 291.22 127.78C288.36 124.61 281.02 124.65 282.55 128.73C287.8 127.95 290.02 122.43 292.28 126.03C297.11 125.08 294.94 130.88 297.5 135.01C302.02 133.54 313.27 130.22 312.67 136.89C312.27 137.67 302.52 131.94 297.84 134.7C295.08 131.89 295.12 126 289.98 128.39C287.67 125.95 287.67 125.82 282.08 128.2C280.23 125.77 277.23 138.98 271.53 140.2C271.57 135.66 279.87 135.66 280.71 138.13C285.46 134.63 283.97 129.85 283.76 135.02C287.92 135.82 294.54 138.5 291.17 145.75C290.64 145.88 283.15 141.68 276.91 145.16C275.77 141.84 274.08 146.61 270.19 150.65C271.66 147.21 273.15 142.97 271.29 150.53C274.2 149.21 276.82 151.15 275.12 157.67C278.38 157.59 268.89 163.75 267.83 164.87C272.27 156.73 271.91 157.7 269.95 157.89C273.16 149.81 272.71 151.22 269.31 151.04C271.31 144.15 274.2 153.28 267.9 157.52C268.58 153.48 265.41 139.43 260.12 142.89C260.81 139.86 259.86 149.62 254.82 154.01C255.69 150.89 256.86 144.62 257.37 150.11C262.07 147.08 260.89 155.28 260.42 160.39C266.14 156.91 270.06 152.5 269.6 157.25C274.88 153.97 278.68 149.71 278.66 154.24C283.65 151.18 283.47 160.32 283.54 165.42C291.42 162.58 294.7 166.93 294.95 168.25C297.25 160.62 291.47 158.67 290.78 159.87C292.83 152.57 289.35 151.8 288.53 152.58C290.71 145.7 296 146.88 295.58 147.35C297.35 140.78 291.61 138.37 291.52 138.51C294.31 132.09 298.33 140.93 297.31 148.76C298.28 147.44 290.67 150.18 289.27 156.81C290.79 155.37 303.26 157.36 302.78 164.05C303.84 164.01 298.66 166.73 299.09 169.62C300.93 163.41 294.67 159.73 294.13 161.02C295.78 154.44 297.98 152.78 297.32 154.18C298.64 147.69 304.01 145.84 303.59 147.1C304.59 139.34 301.7 133.73 302.2 140.35C303.97 140.32 299.15 140.59 298.74 147.34C300.14 147.05 303.94 146.47 303.83 153.58C304.94 152.93 305.01 152.92 304.96 160.43C306 159.38 306.54 159.59 306.99 167.43C308.35 166.11 305.31 159.07 304.79 159.31C305.37 152.93 309.82 150.54 309.63 151.93C310 145.64 308.66 143.05 308.53 144.36C309.3 136.79 310.4 134.94 311.44 140.85C312.38 139.48 321.45 139.75 322.6 145.95C322.67 144.79 308.62 150.39 308.74 156.91C309.54 155.38 323.6 155.55 324.53 162.12C324.59 161.95 316.97 169.35 318.91 170.98C320.4 162.64 316.36 161.48 317.49 162.11C318.25 153.98 326.39 156.04 328.14 156.33C328.28 148.54 329.56 148.86 331.51 148.71C331.46 141.36 325.17 142.67 329.48 144.23C331.49 139.39 321.49 139.28 321.94 145.98C321.5 145.8 318.02 145.8 318.24 152.91C318.01 152.33 319.45 152.33 319.77 159.85C319.45 158.87 321.68 160.19 323.26 168C323.97 166.88 325.63 158.25 327.88 158.55C327.97 152.04 327.9 148.88 329.77 150.41C330.7 142.64 335.61 140.98 337.44 147.01C336.37 144.98 340.51 147.11 342.23 153.47C340.68 151.55 336.49 153.85 337.86 160.22C336.49 158.12 340.75 160.36 342.35 166.89C340.65 165.8 332.63 172.8 332.64 175.04C330.45 166.84 341.56 163.86 342.56 165.22C340.27 157.46 327.94 159.94 328.1 161.06C326.66 153.54 331.67 152.54 332.06 153.2C330.39 146.14 328.08 146.6 328.25 146.89C326.8 140.2 324.68 132.55 328.57 134.18C330.9 130.27 337.55 134.56 341.11 140.38C341.56 139.97 336.61 143.64 340.12 150.02C340.63 149.05 339.44 149.94 343.12 156.71C343.45 155.35 347.03 149.86 352.01 155.77C352.61 153.67 343.07 155.29 344.47 155.43C342.52 149.37 351.25 146.29 353.34 147.49C350.88 141.57 351.05 139.46 353.24 140.57C350.81 133.11 341.12 131.97 343.84 137.05C343 136.03 348.61 135.61 354.07 139.75C354.25 137.52 355.71 145.68 361.01 149.78C362.7 146.87 368.62 136.11 370.21 143.1C365.47 143.14 360.96 137.45 360.79 142.92C355.21 141.87 358.8 146.55 358.5 152.58C353.05 150.97 358.15 157.62 357.81 164.33C352.4 162.03 347.27 155.35 346.25 161.93C341.51 159.77 338.06 153.72 336.19 159.78C332.1 157.18 343.44 162.67 347.9 164.14C347.15 158.18 348.46 156.42 352.21 158.77C351.33 153 353.42 151.95 357.39 154.16C356.29 148.6 358.48 147.69 362.73 149.73C361.4 144.38 353.24 134.01 357.13 135.32C356.28 130.73 362.75 133.65 367.18 135.15C366.93 129.59 371.41 127.81 375.27 131.34" stroke="#FE7902" stroke-width="2" stroke-linecap="round" stroke-linejoin="round"/>
<path d="M273.17 59.2805C273.17 59.2805 268.17 27.7705 273.17 29.3105C278.17 30.8505 291.02 29.2605 291.02 29.2605C291.02 29.2605 285.72 15.2905 291.02 17.3105C296.32 19.3305 308.92 10.9805 308.92 10.9805C308.92 10.9805 318.52 42.8505 321.14 45.0305C323.76 47.2105 354.77 52.4505 354.77 52.4505C354.77 52.4505 322.99 69.4305 323.76 74.3305C324.53 79.2305 332.93 111.8 330.74 117.92C328.56 124.04 286.22 121.43 286.22 121.43L263.55 157.36C263.55 157.36 286.02 146.02 291.46 147.21C296.9 148.4 322.89 129.68 325.94 131.23C329 132.77 357.84 163.77 357.84 163.77" stroke="#FE7902" stroke-width="3" stroke-linecap="round" stroke-linejoin="round"/>
<path d="M284.3 58.4296C284.3 58.4296 256.14 31.9296 266.6 36.7296C277.06 41.5296 288.77 52.7496 287.91 48.1396C287.05 43.5296 279.2 19.7396 279.2 19.7396C279.2 19.7396 300.12 46.9696 298.51 41.2496C296.89 35.5296 295.81 9.25957 295.81 9.25957C295.81 9.25957 304.03 40.4096 311.58 36.7296C319.13 33.0496 325.94 -8.20043 327.25 9.25957C328.56 26.7196 318.52 40.6596 327.25 41.9696C335.98 43.2796 337.29 29.4296 337.29 29.4296C337.29 29.4296 335.99 16.2396 339.04 18.8596C342.09 21.4796 347.74 29.4296 347.74 29.4296C347.74 29.4296 340.85 48.6396 337.29 48.0796C333.73 47.5196 329.41 52.0096 329.41 52.0096L352.16 41.9696C352.16 41.9696 356.29 43.3996 353.84 45.4596C351.39 47.5296 330.66 59.2796 330.66 59.2796C330.66 59.2796 359.29 57.6796 358.75 61.1696C358.21 64.6596 342.98 71.6696 342.98 71.6696L332.06 67.7996L343.81 79.6496L351.25 76.3196L350.78 85.6596L327.7 76.8196L319.93 82.6796L338.16 78.6596L344.73 91.2796C311.69 82.0096 308.64 80.7596 318.14 87.3196C326.42 93.0396 359.3 99.6396 340.44 100.48C321.58 101.32 312.89 94.5596 312.89 94.5596C312.89 94.5596 304.27 96.5796 310.32 101.35C316.37 106.13 326.82 102.99 326.82 102.99C326.82 102.99 337.31 104.86 335.12 107.02C332.93 109.18 314.96 108.27 314.96 108.27C314.96 108.27 300.81 101.48 302.42 106.15C304.03 110.82 311.58 115.38 311.58 115.38C311.58 115.38 320.99 109.41 322.44 111.38C323.89 113.35 326.37 117.88 326.37 117.88L307.05 121.39L296.71 114.51L290.64 117.92C290.64 117.92 312.09 119.27 314.65 126C317.21 132.73 282.28 124.45 282.28 124.45L307.66 133.53L273.51 132.47L288.47 131.19L287.89 140.07C287.89 140.07 274.38 139.94 271.34 140.7C268.31 141.46 274.67 162.58 274.67 162.58L277.27 147.17C277.27 147.17 232.14 139.1 258.3 147.17C284.46 155.24 293.62 162.58 293.62 162.58L299.19 138.3C299.19 138.3 298.09 171.55 301.97 165.88C305.85 160.21 307.03 136.81 307.03 136.81L311.11 162.58C311.11 162.58 310.68 129.86 314.16 137.85C317.64 145.83 320.28 166.59 320.28 166.59L328.09 136.53V162.59C328.09 162.59 336.64 138.07 337.83 144.36C339.02 150.64 338.24 168.95 338.24 168.95L331.63 136.82L348.19 162.59C348.19 162.59 344.68 131.38 347.52 137.52C350.36 143.66 359.62 151.06 359.62 151.06L341.19 162.59C341.19 162.59 360.43 136.07 361.73 140.08" stroke="#FE7902" stroke-width="3" stroke-linecap="round" stroke-linejoin="round"/>
<path d="M43.04 86.0495L18.72 78.3495C13.4 76.6395 12.93 73.7895 12.93 70.8495C12.93 66.0995 15.4 64.1995 18.54 64.1995H53.5V54.2295H15.2C4.65 54.2295 0 60.7795 0 70.2795C0 79.7795 2.56 85.0095 11.3 87.7595L37.52 96.0295C43.31 97.8295 43.98 100.969 43.98 103.529C43.98 105.809 43.69 110.749 37.71 110.749H0.85V120.729H42.65C52.91 120.729 56.9 113.409 56.9 103.629C56.9 93.1795 52.72 89.0895 43.03 86.0495H43.04Z" fill="#131316"/>
<path d="M91.3898 70.3701H73.8098C68.1098 70.3701 65.2598 73.2201 65.2598 78.9201V136.87H76.3798V120.72H91.3898C107.54 120.72 112.01 110.65 112.01 95.4501C112.01 80.2501 107.55 70.3701 91.3898 70.3701ZM88.6398 112.17H76.3898V81.3901C76.3898 79.7801 77.4298 78.9201 79.2398 78.9201H88.6498C99.3898 78.9201 100.53 85.9501 100.53 95.4501C100.53 104.95 99.3898 112.17 88.6498 112.17H88.6398Z" fill="#131316"/>
<path d="M151.14 70.3701H122.55V78.9201H147.15C151.9 78.9201 154.18 81.3901 154.18 86.1401V89.3701H131.38C122.83 89.3701 118.84 95.5401 118.84 105.04C118.84 115.49 122.83 120.72 131.38 120.72H156.75C162.45 120.72 165.3 117.87 165.3 112.17V85.1901C165.3 76.6401 160.64 70.3701 151.14 70.3701ZM154.18 109.32C154.18 111.22 153.23 112.17 151.33 112.17H135.65C131.85 112.17 130.33 109.79 130.33 105.05C130.33 100.31 131.85 97.9301 135.65 97.9301H154.18V109.33V109.32Z" fill="#131316"/>
<path d="M175.18 89.3694V120.719H186.3V92.3094C186.3 83.3794 189.43 78.9094 198.36 78.9094H203.02V70.3594H195.52C182.03 70.3594 175.19 75.8694 175.19 89.3594L175.18 89.3694Z" fill="#131316"/>
<path d="M234.08 94.3101C234.08 92.6901 234.75 91.6501 235.7 90.7001L254.61 70.3701H241.69L226.49 87.0901C224.97 88.7101 222.98 90.8901 222.98 94.6901C222.98 98.2001 224.98 100.96 226.49 102.67L243.4 120.72H257.08L236.46 98.7701C235.13 97.3501 234.08 95.9201 234.08 94.3101Z" fill="#131316"/>
<path d="M219.64 54.2197H208.52V120.72H219.64V54.2197Z" fill="#131316"/>
<path d="M391.49 106V54.2197H378.95V110.75C378.95 118.35 382.94 120.73 388.64 120.73H431.96V110.75H396.24C392.44 110.75 391.49 109.8 391.49 106Z" fill="#131316"/>
<path d="M448.58 53.46H437.46V63.72H448.58V53.46Z" fill="#131316"/>
<path d="M448.58 70.3701H437.46V120.72H448.58V70.3701Z" fill="#131316"/>
<path d="M461.12 70.37H454.09V78.92H461.12V120.72H472.24V78.92H486.02V70.37H472.24C472.24 62.1 478.03 61.63 484.12 61.63C484.79 61.63 485.36 61.63 486.02 61.72V53.55C485.07 53.55 484.12 53.46 483.17 53.46C470.82 53.46 461.13 57.07 461.13 70.37H461.12Z" fill="#131316"/>
<path d="M500.54 99.2498H529.8C535.5 99.2498 537.59 95.4498 537.59 89.7498C537.59 73.5998 527.61 69.7998 513.36 69.7998C496.26 69.7998 489.04 75.4998 489.04 95.4498C489.04 111.6 491.89 120.72 508.04 120.72H535.97V112.17H511.36C501.86 112.17 500.53 106.85 500.53 99.2498H500.54ZM513.37 78.3498C520.02 78.3498 526.1 81.0998 526.1 87.7598C526.1 89.1798 525.81 90.7098 523.63 90.7098H500.54C500.54 82.1598 503.87 78.3598 513.37 78.3598V78.3498Z" fill="#131316"/>
<path d="M294.71 139.19C304.5 131.95 318.21 120.35 327.32 109.49C335.12 100.18 341.86 92.1398 346.44 80.4598L346.58 80.1098C349.12 73.5498 350.41 66.7698 350.41 59.9398C350.41 52.3398 348.75 45.1898 345.48 38.6898C342.23 32.2298 337.64 26.9798 331.84 23.0998C326.11 19.2498 319.24 17.2998 311.42 17.2998C301.98 17.2998 293.93 19.2698 287.52 23.1598C281.09 27.0498 276.13 32.2598 272.76 38.6298C271.51 40.9898 270.5 43.4398 269.7 45.9498L282.76 51.8098C283.03 50.6798 283.33 49.5998 283.64 48.6898C284.64 45.6798 286.17 42.8198 288.18 40.1998C289.96 37.8698 292.73 35.8298 296.9 33.7898C300.27 32.1298 304.39 31.2898 309.13 31.2898C312.59 31.2898 315.96 31.8798 319.13 33.0498C322.36 34.2398 325.26 36.0698 327.75 38.5198C330.22 40.9498 332.23 43.9698 333.73 47.5198C335.24 51.0698 336 55.4098 336 60.3998C336 76.1398 327.22 89.0498 318.62 99.6098C310.47 109.62 300.75 118.17 291.36 126.44C284.14 132.8 276.67 139.37 270 146.54C268.27 148.4 268.39 150.67 269.08 152.17C269.77 153.67 271.43 155.28 274.02 155.28H354.76V141.71H291.3L294.69 139.2L294.71 139.19Z" fill="#131316"/>
</g>
<defs>
<clipPath id="clip0_2106_4342">
<rect width="537.6" height="176.05" fill="white"/>
</clipPath>
</defs>
</svg>
