<svg width="250" height="83" viewBox="0 0 250 83" fill="none" xmlns="http://www.w3.org/2000/svg">
<path fill-rule="evenodd" clip-rule="evenodd" d="M246.994 31.147C245.357 31.147 243.973 29.8867 243.973 28.1596C243.973 26.4495 245.357 25.1871 246.994 25.1871C248.615 25.1871 250 26.4495 250 28.1596C250 29.8861 248.615 31.147 246.994 31.147ZM246.994 25.6843C245.632 25.6843 244.571 26.7492 244.571 28.1596C244.571 29.5942 245.632 30.6503 246.994 30.6503C248.339 30.6503 249.401 29.5942 249.401 28.1596C249.401 26.7492 248.339 25.6843 246.994 25.6843ZM247.473 28.3721L248.45 29.8861H247.867L246.962 28.3967H246.365V29.8861H245.845V26.4495H247.152C247.962 26.4495 248.364 26.7492 248.364 27.4266C248.364 28.0409 247.978 28.309 247.473 28.3721ZM247.073 26.8899H246.365V27.9548H246.986C247.426 27.9548 247.82 27.9239 247.82 27.395C247.82 26.9697 247.435 26.8899 247.073 26.8899ZM228.18 34.2458L227.327 36.8672H237.98L235.596 44.1299H224.931L224.012 46.9117H234.717L232.161 54.6738H210.616L220.044 26.0511H241.549L238.872 34.2458H228.18ZM198.02 54.6738L194.691 41.8118L190.762 54.6738H182.054L171.932 54.6746L171.632 49.5133H164.346L161.67 54.6746H144.462L140.786 43.1432L137.172 54.6746H126.132L135.314 26.0503H147.694C157.551 26.0503 158.779 31.4892 158.108 34.4702C157.162 38.6963 155.428 41.3099 150.335 42.8657L153.226 49.1979L167.169 26.0511H179.657L181.568 48.8634L188.965 26.0511H199.511L202.8 38.729L206.675 26.0511H217.754L208.472 54.6738H198.02ZM146.245 33.4282H143.964L142.803 37.1494H145.249C147.084 37.1272 147.956 36.8229 148.378 35.4735C148.758 34.2638 147.823 33.4282 146.245 33.4282ZM171.205 34.6899L167.333 42.8048H171.383L171.205 34.6899ZM124.292 34.8426L117.902 54.6738H106.894L113.284 34.8426H104.713L107.541 26.0511H134.463L131.633 34.8426H124.292ZM35.0903 42.3494C34.9846 42.3491 34.8843 42.3915 34.809 42.4656C34.7337 42.54 34.6908 42.6413 34.6899 42.747C34.6899 42.9661 34.8696 43.1449 35.0917 43.1449L83.9706 43.634C83.9055 44.9403 83.7765 46.2424 83.5846 47.5361L33.3157 47.978C33.2099 47.9777 33.1083 48.0192 33.0329 48.0937C32.9579 48.1681 32.9153 48.2691 32.9147 48.3748C32.9147 48.5939 33.0941 48.7718 33.3157 48.7718L83.2927 49.2533C83.0405 50.5766 82.7226 51.887 82.3402 53.1789L31.5418 53.6058C31.4895 53.6055 31.4374 53.6155 31.389 53.6354C31.3402 53.655 31.2962 53.6841 31.2588 53.7212C31.2214 53.758 31.1918 53.8017 31.1713 53.8501C31.1511 53.8985 31.1403 53.9503 31.14 54.0026C31.14 54.2217 31.3197 54.3996 31.5418 54.3996L81.7927 54.8841C76.1589 71.2401 60.4781 83.0042 42.0143 83.0042C29.1544 83.0042 17.6478 77.2948 9.94198 68.3041L49.3627 69.21L50.1649 66.6606L9.28137 67.5145C8.04215 65.996 6.91219 64.3915 5.89998 62.7134L51.3872 63.6091L52.1885 61.0614L5.41421 61.8906C4.53313 60.3508 3.75298 58.7557 3.07875 57.115L53.1347 58.0106L53.9363 55.4621L2.7433 56.2777C2.14255 54.7225 1.63791 53.1318 1.2322 51.5149L54.9094 52.4097L55.7099 49.862L1.02966 50.669C0.670354 49.0936 0.404328 47.4985 0.232975 45.8918L56.6569 46.8112L57.4577 44.2627L0.154652 45.0855C0.0158776 43.4877 -0.0295587 41.8829 0.0185737 40.2798L58.4244 41.2111L59.2243 38.6626L0.0510108 39.494C0.128544 37.8632 0.300224 36.2576 0.565258 34.6805L60.1918 35.6127L60.994 33.0638L0.706083 33.8908C4.32559 14.6066 21.4429 0 42.0129 0C59.2938 0 74.1383 10.3101 80.5885 25.0416L40.3966 25.4661C40.344 25.4658 40.2919 25.4759 40.2432 25.4957C40.1945 25.5155 40.1502 25.5447 40.1128 25.5816C40.0754 25.6185 40.0455 25.6624 40.0253 25.7109C40.0048 25.7593 39.994 25.8112 39.9937 25.8638C39.9937 26.0827 40.1743 26.259 40.3966 26.259L81.2888 26.7428C81.7864 28.0293 82.2167 29.3408 82.5783 30.6719L38.6219 31.0938C38.5696 31.0936 38.5176 31.1035 38.4688 31.1234C38.4204 31.1431 38.3761 31.1724 38.3387 31.2092C38.3016 31.246 38.2717 31.2897 38.2515 31.3381C38.231 31.3866 38.2204 31.4383 38.2202 31.4909C38.2202 31.7106 38.3996 31.8885 38.6219 31.8885L83.0022 32.3691C83.2974 33.6648 83.5286 34.9741 83.6953 36.2925L36.8664 36.7216C36.8138 36.7213 36.7617 36.7313 36.713 36.7509C36.6642 36.7709 36.6199 36.7999 36.5826 36.837C36.5455 36.8741 36.5155 36.9178 36.4953 36.9665C36.4751 37.0149 36.4646 37.0669 36.4646 37.1192C36.4646 37.3375 36.6424 37.5163 36.8664 37.5163L83.8773 38.0054C83.9869 39.3072 84.0354 40.6132 84.0221 41.9194L35.0903 42.3494Z" fill="#EF3C13"/>
</svg>
