<svg width="106" height="40" viewBox="0 0 106 40" fill="none" xmlns="http://www.w3.org/2000/svg">
<path d="M103.492 2.44226C102.732 2.44226 102.626 3.06142 102.626 3.6629V11.8005L95.5961 2.51302L95.5431 2.45995H91.8337V3.1145H91.975C92.2576 3.1145 92.4696 3.2914 92.6286 3.64521C92.7345 3.89288 92.7699 4.29975 92.7699 5.04275V16.9484C92.7699 17.886 93.1585 18.3636 93.918 18.3636H95.6667V18.2044C95.6667 17.0192 95.6667 16.9661 95.6667 15.7808C95.6667 14.6486 95.6667 12.5081 95.6667 7.37789L104.057 18.3106L104.092 18.3636H105.505V2.44226H103.492ZM87.4708 2.44226L84.8212 13.9587L81.8714 2.5484L81.836 2.44226H79.946L76.6782 13.9764L74.329 3.68059C74.1346 2.81376 73.6754 2.44226 72.8629 2.44226H70.178V3.07912H70.3193C70.9552 3.07912 71.1848 3.64521 71.2731 3.98133L74.4173 16.3823C74.7705 17.7798 75.1415 18.2752 76.5016 18.2752H78.003L80.7056 9.0231L82.5602 16.2762C83.0195 17.9744 83.5317 18.2752 84.7682 18.2752H86.2696L90.4559 2.44226H87.4708ZM35.1331 4.49435C36.5109 4.49435 38.2243 4.97199 38.5422 6.35184L38.5776 6.47568H39.1428V2.9199L39.0545 2.88452C38.3303 2.60147 36.8465 2.12383 34.9742 2.12383C32.4306 2.12383 30.258 2.97297 28.7389 4.56511C27.3081 6.05111 26.5309 8.10319 26.5309 10.3676C26.5309 12.6142 27.3081 14.6487 28.7212 16.0993C30.2403 17.656 32.4306 18.4875 35.0448 18.4875C36.087 18.4875 37.6414 18.3636 39.0722 17.7975L39.1605 17.7622V15.0555L38.9662 15.1263C38.8779 15.1617 38.7719 15.1971 38.6482 15.2501C38.03 15.4978 37.0055 15.94 35.6277 15.94C32.0067 15.94 29.6751 13.6934 29.6751 10.2084C29.6397 6.82948 31.9007 4.49435 35.1331 4.49435ZM67.6697 4.44128C66.239 2.84914 64.2606 2 61.929 2C59.5797 2 57.5661 2.88452 56.1177 4.52973C54.7752 6.0688 54.051 8.15627 54.051 10.4206C54.051 12.7381 54.8105 14.8432 56.1706 16.3292C57.6014 17.886 59.6151 18.7174 61.9997 18.7174C66.5746 18.7174 69.7717 15.2501 69.7717 10.2968C69.754 8.01474 69.0122 5.94496 67.6697 4.44128ZM61.929 4.63587C64.7022 4.63587 66.5569 6.97101 66.5569 10.4206C66.5569 13.1803 65.1261 16.1523 61.982 16.1523C59.6504 16.1523 57.3011 14.3656 57.3011 10.3676C57.3011 6.93562 59.1735 4.63587 61.929 4.63587ZM53.839 17.9921C52.7792 17.2491 50.271 13.2157 49.5644 11.6767C51.3484 10.5622 52.0197 9.28845 52.0197 7.04177C52.0197 4.9543 50.7655 3.22064 48.8932 2.68993C48.275 2.51302 47.6037 2.44226 46.8972 2.44226H40.8032V3.04373L40.9268 3.06143C41.6687 3.22064 41.81 3.75135 41.81 4.60049V17.0015C41.81 17.886 42.234 18.3459 43.0288 18.3459H44.8482V18.1867C44.8482 16.86 44.8482 15.4978 44.8482 14.1887C44.8482 13.5695 44.8482 12.9504 44.8482 12.3312H46.7029C46.8089 12.5435 46.9502 12.7912 47.0915 13.0919C47.6921 14.2772 48.5223 15.9047 49.5114 17.0369C50.5359 18.1867 51.5957 18.2752 53.0972 18.2752H54.263L53.839 17.9921ZM48.9815 7.3602C48.9815 8.63391 48.4339 10.0138 47.2328 10.0138H44.8129V4.75971H46.8795C48.1513 4.75971 48.9815 5.76806 48.9815 7.3602ZM66.3626 24.343V21.8487H53.1325V25.4221H53.7154L53.733 25.2983C53.839 24.6437 54.1216 24.3607 54.6516 24.3607H58.2903V36.5317C58.2903 37.3985 58.7142 37.8054 59.5621 37.8054H62.3706V37.1685L62.247 37.1509C61.5051 37.0447 61.3108 36.8678 61.3108 35.8948V24.343H66.3626ZM92.293 24.343V21.8487H79.0628V25.4221H79.6457L79.6634 25.2983C79.7694 24.6437 80.052 24.3607 80.5819 24.3607H84.2206V36.5317C84.2206 37.3985 84.6446 37.8054 85.4924 37.8054H88.301V37.1685L88.1773 37.1509C87.4354 37.0447 87.2411 36.8678 87.2411 35.8948V24.343H92.293ZM38.8072 34.3381L38.7719 34.4088C38.3833 35.0988 38.1183 35.2403 37.0938 35.2403H31.3884V30.6762H37.9593V28.1818H31.3884V24.3253H38.8779V21.8487H27.3258V22.4501L27.4494 22.4678C28.05 22.574 28.3326 23.0162 28.3326 23.8123V36.0187C28.3326 36.8147 28.4916 37.7346 29.781 37.7346H38.5422L39.4431 34.3204H38.8072V34.3381ZM105.329 34.3381L105.293 34.4088C104.905 35.0988 104.64 35.2403 103.615 35.2403H97.91V30.6762H104.481V28.1818H97.91V24.3253H105.435V21.8487H93.8827V22.4501L94.0063 22.4678C94.6069 22.574 94.8895 23.0162 94.8895 23.8123V36.0187C94.8895 36.8147 95.0485 37.7346 96.3379 37.7346H105.099L106 34.3204H105.329V34.3381ZM80.9528 37.0624C80.4406 37.0093 80.0167 36.6378 79.8047 36.0541L74.0287 21.8487H71.1671L64.6316 37.7523H66.7865C67.6697 37.7523 67.9523 37.1686 68.1643 36.5317L69.2418 33.8781H75.7244L76.7842 36.5317C77.0668 37.3631 77.3848 37.7523 78.4093 37.7523H81.0942V37.0978L80.9528 37.0624ZM74.8942 31.6668H70.1073L72.5096 25.3867L74.8942 31.6668ZM48.5046 28.5533L47.3388 28.058C47.1975 28.0049 47.0562 27.9341 46.8972 27.8811C45.802 27.4388 44.4243 26.8904 44.4419 25.7759C44.4596 24.573 45.5018 23.883 47.2858 23.9184C47.9923 23.9361 48.7165 24.0776 49.4584 24.3253C50.271 24.6084 50.8539 25.1037 51.0658 25.7052L51.1012 25.7936L51.6487 25.8113L51.6841 22.5209L51.5781 22.4678C50.9952 22.2201 49.4761 21.5833 47.3918 21.5479C45.5194 21.5125 43.9473 21.9902 42.8522 22.9101C41.8807 23.7238 41.3331 24.8383 41.3155 26.0413C41.2801 28.571 43.3821 29.7563 45.2191 30.517L46.4909 31.03C47.6037 31.4722 49.2641 32.1445 49.2465 33.4536C49.2288 34.4796 48.4163 35.5941 46.2083 35.5941C46.173 35.5941 46.12 35.5941 46.0847 35.5941C44.8129 35.5764 42.9405 35.0103 41.6334 34.285L41.4214 34.1612V35.7887C41.4038 36.6732 41.6157 37.1509 42.9052 37.5224C43.8944 37.8054 45.0425 37.9823 45.9963 38C46.067 38 46.1376 38 46.2083 38C49.953 38 52.4083 36.1779 52.4436 33.3651C52.4789 30.4639 50.6066 29.4378 48.5046 28.5533ZM7.36577 4.15823V2.65454H0V4.75971H0.353274L0.370938 4.68894C0.423929 4.31744 0.582903 4.15823 0.883186 4.15823H2.73788V10.969C2.73788 11.4644 2.98517 11.712 3.46209 11.712H5.24613V11.2875L5.17547 11.2698C4.75154 11.199 4.64556 11.1106 4.64556 10.5622V4.15823H7.36577ZM23.1571 9.65995L23.1395 9.71302C22.9275 10.1199 22.7685 10.1907 22.1856 10.1907H19.0945V7.74939H22.6626V6.21032H19.0945V4.19361H23.2101V2.67224H16.6216V3.06143L16.6922 3.07912C17.0278 3.13219 17.1868 3.37985 17.1868 3.8398V10.7568C17.1868 11.2167 17.2751 11.7474 18.017 11.7474H23.0158L23.5457 9.69533H23.1571V9.65995ZM13.0182 2.65454V3.04373L13.0888 3.06143C13.4244 3.1145 13.5834 3.36216 13.5834 3.82211V6.21032H10.3686V2.65454H7.87802V3.04373L7.94868 3.06143C8.28429 3.1145 8.44326 3.36216 8.44326 3.82211V11.712H10.3509V7.74939H13.5834V11.712H15.4911V2.67224H13.0182V2.65454ZM22.3093 26.2713C22.3093 26.2182 22.3093 26.1651 22.3093 26.112C22.3093 26.059 22.3093 26.0059 22.3093 25.9528C22.3269 25.9528 22.3623 25.9528 22.3799 25.9528C22.7155 25.9528 22.9982 25.6698 22.9982 25.316C22.9982 24.9622 22.7155 24.6791 22.3799 24.6791C22.2916 24.6791 22.2033 24.6968 22.1326 24.7322C22.0973 24.6084 22.062 24.4668 22.009 24.3076C22.2916 24.2545 22.5036 23.9892 22.5036 23.6708C22.5036 23.317 22.221 23.0339 21.8854 23.0339C21.7264 23.0339 21.5851 23.1047 21.4614 23.2108C21.3731 23.087 21.2848 22.9808 21.1788 22.857C21.3201 22.7332 21.4084 22.5563 21.4084 22.3617C21.4084 22.0079 21.1258 21.7248 20.7902 21.7248C20.5429 21.7248 20.3309 21.884 20.225 22.114C20.0837 22.0256 19.9247 21.9548 19.7834 21.884C19.854 21.7779 19.8717 21.6541 19.8717 21.5479C19.8717 21.1941 19.5891 20.9111 19.2535 20.9111C18.9178 20.9111 18.6352 21.1941 18.6352 21.5479C18.6352 21.5656 18.6352 21.601 18.6352 21.6187C18.4409 21.601 18.2996 21.601 18.1053 21.6187C18.123 21.5656 18.123 21.5125 18.123 21.4595C18.123 21.1057 17.8404 20.8226 17.5047 20.8226C17.1691 20.8226 16.8865 21.1057 16.8865 21.4595C16.8865 21.6187 16.9395 21.7602 17.0278 21.8663C16.8865 21.9194 16.7275 21.9902 16.5862 22.0786C16.5332 21.7779 16.286 21.5479 15.9857 21.5479C15.6501 21.5479 15.3674 21.831 15.3674 22.1848C15.3674 22.3971 15.4734 22.6093 15.6501 22.7155C15.3498 22.9631 15.0318 23.2639 14.7139 23.6L14.8022 23.7238C16.0033 23.0162 16.9748 22.574 18.1406 22.574C19.2535 22.574 19.9777 23.0693 20.3839 23.4762C20.9492 24.0423 21.3024 24.9799 21.3024 25.9882C21.3024 26.6074 21.1965 27.3681 20.9492 28.341H19.3594L19.748 30.1631L18.4939 29.6324L18.5822 29.8093C19.0238 30.7469 18.8472 31.8437 18.5822 32.4983L18.5116 32.6752L19.2181 32.3744C19.1651 32.9229 18.8295 33.8074 18.1053 33.8074C17.5931 33.8074 17.2221 33.4536 17.0102 32.7283C16.9395 32.5337 16.9218 32.3214 16.9218 32.1268C16.9218 31.8437 16.9925 31.6315 17.1161 31.5784C17.1338 31.5607 17.1691 31.5607 17.2045 31.5607C17.4341 31.5607 17.7697 31.9676 17.8757 32.4983L17.911 32.6752L17.9993 32.516C18.1053 32.3391 18.3349 31.8791 18.4056 31.3838C18.4233 31.26 18.4586 31.0477 18.4586 30.8708C18.4586 30.4816 18.3349 30.1278 18.123 29.8978C17.964 29.7386 17.7874 29.6501 17.5931 29.6501C17.3104 29.6501 17.0808 29.7916 16.8865 30.0924C16.8689 30.1278 16.8512 30.1455 16.8335 30.1631C16.8512 30.1278 16.8689 30.0747 16.8865 30.0216C17.0455 29.6324 17.1515 29.2963 17.1515 28.8541C17.1515 28.3587 16.9218 27.8457 16.6039 27.1381C16.5509 27.0143 16.4979 26.8904 16.4449 26.7666L16.2683 26.342L16.0917 26.7666C16.0387 26.8904 15.9857 27.0143 15.9327 27.1381C15.6147 27.8457 15.3851 28.3587 15.3851 28.8541C15.3851 29.2786 15.4911 29.6324 15.6501 30.0216C15.6677 30.0924 15.7031 30.1278 15.7031 30.1631C15.6854 30.1455 15.6677 30.1278 15.6501 30.0924C15.4558 29.8093 15.2261 29.6501 14.9435 29.6501C14.7492 29.6501 14.5549 29.7386 14.4136 29.8978C14.2016 30.1278 14.078 30.4816 14.078 30.8708C14.078 31.0477 14.0957 31.2423 14.131 31.3838C14.2193 31.8968 14.4313 32.3391 14.5372 32.516L14.6256 32.6752L14.6609 32.4983C14.7669 31.9676 15.1025 31.5607 15.3321 31.5607C15.3674 31.5607 15.3851 31.5607 15.4204 31.5784C15.5441 31.6315 15.6147 31.8437 15.6147 32.1268C15.6147 32.3214 15.5794 32.516 15.5264 32.7283C15.3321 33.3651 14.7845 33.8074 14.1663 33.8074C13.8307 33.8074 13.0358 33.7012 12.7002 32.6221C12.6472 32.4806 12.6296 32.3214 12.6119 32.1622L13.9897 32.7459L13.919 32.569C13.6364 31.9145 13.4774 30.8177 13.919 29.8801L14.0073 29.7032L12.8415 30.1985L13.707 28.5002H12.9122V25.2629C13.3714 24.9268 13.6541 24.3784 13.6541 23.7946C13.6541 23.37 13.5304 23.087 13.3538 22.8039C13.3008 22.7155 13.1771 22.574 13.0005 22.3794C12.8769 22.2378 12.7355 22.0786 12.7002 21.9194C12.7002 21.9194 12.7002 21.884 12.7002 21.8663L14.6432 22.6093V19.2835L12.9122 19.9381L13.6187 17.8152H10.3156L11.0222 19.9381L9.29112 19.2835V22.6093L11.2341 21.8663C11.2341 21.9017 11.2341 21.9194 11.2341 21.9194C11.1988 22.0609 11.0752 22.2378 10.9338 22.3794C10.7395 22.5916 10.6336 22.7332 10.5806 22.8039C10.4039 23.087 10.2803 23.37 10.2803 23.7946C10.2803 24.3961 10.5629 24.9445 11.0222 25.2629V28.5356H10.2096L11.0752 30.2339L9.90935 29.7386L9.99767 29.9155C10.4393 30.8531 10.2626 31.9499 9.99767 32.6044L9.92701 32.7813L11.3048 32.1975C11.2871 32.3568 11.2518 32.516 11.2165 32.6575C10.8809 33.7189 10.086 33.8428 9.75037 33.8428C9.13214 33.8428 8.58457 33.4182 8.39027 32.7636C8.31961 32.569 8.30195 32.3568 8.30195 32.1622C8.30195 31.8791 8.3726 31.6668 8.49625 31.6138C8.51391 31.5961 8.54924 31.5961 8.58457 31.5961C8.8142 31.5961 9.14981 32.0029 9.25579 32.5337L9.29112 32.7106L9.37944 32.5514C9.48542 32.3744 9.71505 31.9145 9.7857 31.4192C9.80337 31.2953 9.83869 31.083 9.83869 30.9061C9.83869 30.517 9.71505 30.1631 9.50308 29.9332C9.34411 29.774 9.16747 29.6855 8.97317 29.6855C8.69055 29.6855 8.46092 29.827 8.26662 30.1278C8.24896 30.1631 8.2313 30.1808 8.21363 30.1985C8.2313 30.1631 8.24896 30.1101 8.26662 30.057C8.4256 29.6678 8.53158 29.3317 8.53158 28.8894C8.53158 28.3941 8.30195 27.8811 7.984 27.1735C7.93101 27.0496 7.87802 26.9435 7.82503 26.802L7.64839 26.3774L7.47175 26.802C7.41876 26.9258 7.36577 27.0496 7.31278 27.1735C6.99483 27.8811 6.76521 28.3941 6.76521 28.8894C6.76521 29.314 6.87119 29.6678 7.03016 30.057C7.04783 30.1278 7.08315 30.1631 7.08315 30.1985C7.06549 30.1808 7.04783 30.1631 7.03016 30.1278C6.83586 29.8447 6.60623 29.6855 6.32361 29.6855C6.12931 29.6855 5.93501 29.774 5.7937 29.9332C5.58174 30.1631 5.45809 30.517 5.45809 30.9061C5.45809 31.083 5.47575 31.2776 5.51108 31.4192C5.5994 31.9322 5.81136 32.3744 5.91735 32.5514L6.00567 32.7106L6.04099 32.5337C6.14698 32.0029 6.48259 31.5961 6.71221 31.5961C6.74754 31.5961 6.76521 31.5961 6.80053 31.6138C6.92418 31.6668 6.99483 31.8791 6.99483 32.1622C6.99483 32.3568 6.95951 32.5513 6.90652 32.7636C6.69455 33.4713 6.32361 33.8428 5.81137 33.8428C5.08715 33.8428 4.75154 32.9582 4.69855 32.4098L5.4051 32.7106L5.33444 32.5337C5.05182 31.8791 4.89285 30.7823 5.33444 29.8447L5.42276 29.6678L4.16864 30.1985L4.55724 28.3764H2.96751C2.73788 27.4211 2.61423 26.6427 2.61423 26.0236C2.61423 25.0152 2.94984 24.0776 3.53274 23.5115C3.95667 23.1047 4.68089 22.6093 5.77604 22.6093C6.94184 22.6093 7.91335 23.0516 9.11448 23.7592L9.2028 23.6354C8.88485 23.2993 8.5669 22.9985 8.26662 22.7509C8.44326 22.627 8.54924 22.4324 8.54924 22.2201C8.54924 21.8663 8.26662 21.5833 7.93101 21.5833C7.63073 21.5833 7.38344 21.8133 7.33045 22.114C7.18914 22.0256 7.03016 21.9548 6.88885 21.9017C6.97717 21.7956 7.03016 21.6364 7.03016 21.4948C7.03016 21.141 6.74754 20.858 6.41193 20.858C6.07632 20.858 5.7937 21.141 5.7937 21.4948C5.7937 21.5479 5.7937 21.601 5.81137 21.6541C5.61706 21.6364 5.49342 21.6364 5.28145 21.6541C5.28145 21.6364 5.28145 21.601 5.28145 21.5833C5.28145 21.2295 4.99883 20.9464 4.66322 20.9464C4.32761 20.9464 4.04499 21.2295 4.04499 21.5833C4.04499 21.7071 4.08032 21.831 4.13331 21.9194C3.992 21.9902 3.83303 22.0609 3.69172 22.1494C3.6034 21.9194 3.37377 21.7602 3.12648 21.7602C2.79087 21.7602 2.50825 22.0432 2.50825 22.397C2.50825 22.5916 2.59657 22.7686 2.73788 22.8924C2.6319 22.9985 2.54358 23.1224 2.45526 23.2462C2.34928 23.14 2.1903 23.0693 2.03133 23.0693C1.69572 23.0693 1.4131 23.3523 1.4131 23.7061C1.4131 24.0069 1.62506 24.2722 1.90768 24.343C1.85469 24.5022 1.81936 24.6437 1.78404 24.7676C1.71338 24.7322 1.62506 24.7145 1.53674 24.7145C1.20113 24.7145 0.918514 24.9975 0.918514 25.3514C0.918514 25.7052 1.20113 25.9882 1.53674 25.9882C1.55441 25.9882 1.58974 25.9882 1.6074 25.9882C1.6074 26.0413 1.6074 26.0943 1.6074 26.1474C1.6074 26.2005 1.6074 26.2536 1.6074 26.3066C1.25412 26.2889 0.971505 26.5897 0.971505 26.9435C0.971505 27.2973 1.25412 27.598 1.58974 27.598C1.66039 27.598 1.73104 27.5803 1.8017 27.5627C1.83703 27.6865 1.85469 27.8103 1.89002 27.9342C1.57207 27.9518 1.30712 28.2349 1.30712 28.571C1.30712 28.9248 1.58974 29.2079 1.92535 29.2079C2.03133 29.2079 2.11965 29.1902 2.20797 29.1371C2.24329 29.2432 2.26096 29.3317 2.29628 29.4378C1.996 29.4909 1.76637 29.7563 1.76637 30.0747C1.76637 30.4285 2.04899 30.7115 2.3846 30.7115C2.49059 30.7115 2.5789 30.6939 2.66722 30.6408C2.91451 31.4369 3.17947 32.2329 3.44443 33.0113L3.63873 33.5774C4.13331 35.028 4.50425 36.1956 4.73388 37.0978L4.83986 37.4693H19.1475L19.2535 37.0978C19.4831 36.1956 19.854 35.028 20.3486 33.5774L20.5429 33.0113C20.8079 32.2329 21.0728 31.4369 21.3201 30.6408C21.4084 30.6939 21.4968 30.7115 21.6027 30.7115C21.9383 30.7115 22.221 30.4285 22.221 30.0747C22.221 29.7563 21.9913 29.4909 21.6911 29.4378C21.7264 29.3317 21.744 29.2256 21.7794 29.1371C21.8677 29.1902 21.956 29.2079 22.062 29.2079C22.3976 29.2079 22.6802 28.9248 22.6802 28.571C22.6802 28.2172 22.4153 27.9518 22.0973 27.9342C22.1326 27.8103 22.1503 27.6865 22.1856 27.5627C22.2563 27.5803 22.3269 27.598 22.3976 27.598C22.7332 27.598 23.0158 27.315 23.0158 26.9435C22.9452 26.5543 22.6449 26.2536 22.3093 26.2713Z" fill="#222021"/>
</svg>
