<svg width="88" height="40" viewBox="0 0 88 40" fill="none" xmlns="http://www.w3.org/2000/svg">
<path fill-rule="evenodd" clip-rule="evenodd" d="M0 2H88V38H0V2ZM76.5765 10.703C78.7445 10.6632 80.8933 11.1185 82.8629 12.035L84.6883 6.25695C82.756 5.34805 79.4614 4.97 75.8997 4.97C69.6134 4.97 63.1221 7.22 63.1221 14.69C63.1221 19.3537 66.7393 20.7914 69.8495 22.0276C72.1952 22.9598 74.2525 23.7775 74.2525 25.778C74.2525 28.766 70.6374 29.225 68.1353 29.225C65.6332 29.225 62.5968 28.559 61.0742 27.56L59.2933 33.455C62.1769 34.375 65.1746 34.878 68.1976 34.949C74.8491 34.949 82.204 32.87 82.204 24.86C82.204 19.6319 78.2771 18.0521 75.0884 16.7691C72.9086 15.8921 71.0737 15.1539 71.0737 13.484C71.0737 11.162 73.5401 10.703 76.5765 10.703ZM8.60152 5.47402H18.1736L24.0415 25.571H24.1305L28.1553 5.47402H35.3854L29.3039 34.454H19.7763L13.7749 14.402H13.6948L9.71455 34.454H2.48426L8.60152 5.47402ZM38.2081 5.47402H45.8924L43.6308 16.562H52.7131L54.9748 5.47402H62.6592L56.7023 34.454H48.9733L51.52 22.043H42.4822L39.9355 34.454H32.2601L38.2081 5.47402Z" fill="#005EB8"/>
</svg>
