<svg width="88" height="40" viewBox="0 0 88 40" fill="none" xmlns="http://www.w3.org/2000/svg">
<path d="M6.36991 3.4741H0V9.81806H6.36991V3.4741Z" fill="#0068B5"/>
<path d="M6.21123 36.5259V13.656H0.158681V36.5033H6.21123V36.5259ZM46.2895 36.7517V31.1527C45.4055 31.1527 44.6574 31.1076 44.1134 31.0173C43.4786 30.927 43.0026 30.7012 42.6852 30.3851C42.3679 30.0691 42.1638 29.6175 42.0505 29.008C41.9598 28.4436 41.9145 27.6985 41.9145 26.7955V18.826H46.2895V13.656H41.9145V4.76096H35.8619V26.8632C35.8619 28.7371 36.0206 30.3174 36.338 31.5817C36.6553 32.8234 37.1994 33.8393 37.9475 34.6069C38.6955 35.3745 39.693 35.9163 40.8944 36.255C42.1185 36.5936 43.66 36.7517 45.4961 36.7517H46.2895ZM80.9274 36.5259V3H74.8748V36.5259H80.9274ZM30.0361 15.9137C28.3586 14.1076 26.001 13.2045 23.0088 13.2045C21.558 13.2045 20.2205 13.498 19.0417 14.085C17.8403 14.672 16.8429 15.4847 16.0268 16.5232L15.7094 16.9522V13.656H9.74755V36.5033H15.7548V24.3347V25.17C15.7548 25.0345 15.7548 24.8991 15.7548 24.7636C15.8228 22.6189 16.3442 21.0385 17.3416 20.0226C18.407 18.9389 19.6991 18.3971 21.1726 18.3971C22.9181 18.3971 24.2555 18.9389 25.1396 19.9774C26.001 21.0159 26.4544 22.4834 26.4544 24.3572V36.5033H32.5523V23.5445C32.575 20.2935 31.7136 17.7198 30.0361 15.9137ZM71.7465 25.0571C71.7465 23.409 71.4518 21.8738 70.8851 20.429C70.2957 19.0066 69.4797 17.7424 68.4596 16.6587C67.4168 15.575 66.17 14.7397 64.7192 14.1301C63.2684 13.5206 61.6589 13.2271 59.9135 13.2271C58.2586 13.2271 56.6945 13.5432 55.2437 14.1527C53.7929 14.7849 52.5234 15.6202 51.458 16.6813C50.3926 17.7424 49.5312 19.0066 48.9191 20.4515C48.2844 21.8964 47.9897 23.4542 47.9897 25.1023C47.9897 26.7503 48.2844 28.3081 48.8738 29.753C49.4632 31.1979 50.3019 32.4622 51.3447 33.5232C52.3874 34.5843 53.6796 35.4422 55.1757 36.0518C56.6718 36.6839 58.3266 37 60.0948 37C65.2179 37 68.3916 34.6746 70.2957 32.5073L65.9433 29.2112C65.0366 30.2948 62.8604 31.7623 60.1401 31.7623C58.44 31.7623 57.0345 31.3785 55.9691 30.5883C54.9037 29.8207 54.1783 28.7371 53.7929 27.4051L53.7249 27.2019H71.7465V25.0571ZM53.7702 22.9575C53.7702 21.2869 55.6971 18.3745 59.8454 18.3519C63.9938 18.3519 65.9433 21.2643 65.9433 22.9349L53.7702 22.9575ZM87.8187 33.6361C87.7053 33.3652 87.5466 33.1394 87.3426 32.9363C87.1386 32.7331 86.9119 32.575 86.6399 32.4622C86.3679 32.3493 86.0732 32.2815 85.7785 32.2815C85.4611 32.2815 85.1891 32.3493 84.9171 32.4622C84.645 32.575 84.4183 32.7331 84.2143 32.9363C84.0103 33.1394 83.8516 33.3652 83.7383 33.6361C83.6249 33.907 83.5569 34.2005 83.5569 34.494C83.5569 34.8101 83.6249 35.081 83.7383 35.3519C83.8516 35.6228 84.0103 35.8486 84.2143 36.0518C84.4183 36.255 84.645 36.413 84.9171 36.5259C85.1891 36.6388 85.4838 36.7065 85.7785 36.7065C86.0958 36.7065 86.3679 36.6388 86.6399 36.5259C86.9119 36.413 87.1386 36.255 87.3426 36.0518C87.5466 35.8486 87.7053 35.6228 87.8187 35.3519C87.932 35.081 88 34.7875 88 34.494C88 34.2005 87.932 33.907 87.8187 33.6361ZM87.456 35.2165C87.3653 35.4422 87.2293 35.6454 87.0706 35.8035C86.9119 35.9615 86.7079 36.097 86.4812 36.1873C86.2545 36.2776 86.0278 36.3227 85.7558 36.3227C85.5064 36.3227 85.2571 36.2776 85.0304 36.1873C84.8037 36.097 84.5997 35.9615 84.441 35.8035C84.2823 35.6454 84.1463 35.4422 84.0556 35.2165C83.965 34.9907 83.9196 34.7649 83.9196 34.494C83.9196 34.2457 83.965 33.9973 84.0556 33.7716C84.1463 33.5458 84.2823 33.3426 84.441 33.1846C84.5997 33.0266 84.8037 32.8911 85.0304 32.8008C85.2571 32.7105 85.4838 32.6653 85.7558 32.6653C86.0052 32.6653 86.2545 32.7105 86.4812 32.8008C86.7079 32.8911 86.9119 33.0266 87.0706 33.1846C87.2293 33.3426 87.3653 33.5458 87.456 33.7716C87.5466 33.9973 87.592 34.2231 87.592 34.494C87.592 34.7649 87.5466 34.9907 87.456 35.2165ZM86.1865 34.6972C86.3679 34.6746 86.5039 34.6069 86.6172 34.494C86.7306 34.3811 86.7986 34.2231 86.7986 33.9973C86.7986 33.749 86.7306 33.5684 86.5719 33.4329C86.4359 33.2975 86.1865 33.2298 85.8918 33.2298H84.8944V35.7809H85.3704V34.7424H85.7105L86.3452 35.7809H86.8439L86.1865 34.6972ZM85.9372 34.3134C85.8691 34.3134 85.8011 34.3134 85.7105 34.3134H85.3704V33.591H85.7105C85.7785 33.591 85.8465 33.591 85.9372 33.591C86.0052 33.591 86.0732 33.6135 86.1412 33.6361C86.2092 33.6587 86.2545 33.7039 86.2772 33.749C86.3225 33.7942 86.3225 33.8619 86.3225 33.9522C86.3225 34.0425 86.2998 34.1102 86.2772 34.1554C86.2318 34.2005 86.1865 34.2457 86.1412 34.2683C86.0732 34.2908 86.0052 34.3134 85.9372 34.3134Z" fill="#0068B5"/>
<path d="M6.36991 3.47266H0V9.81661H6.36991V3.47266Z" fill="#04C7FD"/>
</svg>
