<svg width="78" height="40" viewBox="0 0 78 40" fill="none" xmlns="http://www.w3.org/2000/svg">
<g clip-path="url(#clip0_2096_4120)">
<path fill-rule="evenodd" clip-rule="evenodd" d="M23.9289 12.8322C22.6918 12.0035 21.7296 12.1395 20.8923 13.092C20.6972 12.2666 20.2119 11.5924 19.5427 11.014C21.3297 11.484 22.2669 10.8161 22.3543 9.01018C23.7883 10.2966 26.2314 9.15865 25.8783 7.56305C27.7653 8.28046 28.8524 7.71145 29.1399 5.85615C29.9865 7.13485 32.667 7.38536 33.7135 5.48511C34.0635 7.84749 34.8632 9.41841 36.1129 10.1976H36.7501C35.0506 8.20476 35.0005 6.26138 36.5999 4.36743C35.8999 3.42713 35.1999 2.48683 34.4999 1.54654C36.5749 -0.72385 42.9999 -0.340307 44.3249 1.695C43.6249 2.56107 42.9249 3.42714 42.2249 4.2932C44.0999 6.63782 43.5999 8.6297 41.4749 10.3804C41.8999 10.4052 42.3249 10.4299 42.7499 10.4547C44.4524 9.24808 45.0213 7.65192 45.0749 5.55499C46.4625 7.4373 48.0875 7.38187 49.8749 6.00058C50.0946 7.44637 50.8056 8.34018 52.8749 7.70796C53.3157 9.4769 54.4469 10.1203 56.5873 9.11847C56.6282 10.7111 57.3969 11.571 59.1373 11.0856C58.4957 11.4176 58.1177 11.8801 58.1249 12.5332C56.8512 11.7367 55.9148 12.0642 55.1155 12.8487C65.0874 17.0429 73.0279 22.7652 78 30.7207L64.0496 40L14.85 39.8515C9.90001 36.7337 4.94999 33.6158 0 30.498C5.87009 22.3329 13.6589 16.2463 23.9289 12.8322Z" fill="#959096"/>
<path d="M15.2999 38.4414H63.2247C57.0243 30.0587 48.8533 26.4359 39.4498 26.4154C28.3172 26.3912 20.6318 31.0932 15.2999 38.4414Z" fill="#010A4D"/>
<path d="M13.9268 38.2539L1.81787 30.5358C7.38303 20.8511 18.702 14.2209 31.2652 12.1494C31.4044 12.4413 31.7757 13.2911 31.7757 13.2911C31.7757 13.2911 33.4233 12.0968 33.841 11.7908C37.7028 11.3517 41.6511 11.3428 45.5596 11.8062C45.8613 12.0049 47.184 13.7046 47.184 13.7046C47.184 13.7046 47.2304 12.4413 47.2304 12.0337C48.4127 12.2155 49.5896 12.4415 50.7576 12.7127C50.8968 12.9925 51.4306 14.095 51.4306 14.095C51.4306 14.095 51.8715 13.1993 51.9875 13.016C61.5992 15.5256 70.5177 21.1642 76.7376 30.6004L64.9871 38.4024C50.5794 20.1404 26.3344 21.3777 13.9268 38.2539Z" fill="#010A4D"/>
<path d="M34.3418 9.30522C33.0429 8.95518 31.744 8.32274 30.4451 7.6903C30.3922 7.66453 30.3392 7.63876 30.2863 7.61301L30.2179 7.57977C29.9683 7.59851 30.2433 7.91388 31.0427 8.52594C30.1272 9.02059 28.5715 9.08239 26.8065 8.78564L27.6312 9.39795C26.6377 10.0967 25.4192 10.6719 23.976 11.1235C24.4509 11.5084 26.3941 10.9487 28.8683 10.0473C28.8601 10.0637 28.8512 10.0811 28.8419 10.0996C28.6672 10.4443 28.32 11.1294 28.5214 11.1002C30.0148 10.1042 31.2491 9.31397 32.5424 9.70413L32.1111 11.0584L32.611 10.6619C32.9161 10.4199 33.2213 10.1779 33.5264 9.9359C34.0667 10.0381 34.5133 10.2176 34.7542 10.5668C33.7485 10.7375 32.9331 11.1082 32.3266 11.6987C30.8112 10.8404 29.3089 11.0421 27.8183 12.2088C26.8248 11.5057 25.5878 11.3449 23.9948 11.9769C23.5058 11.558 22.8341 11.3199 21.8954 11.346C22.3858 11.0368 22.7045 10.5915 22.9451 10.0844C24.8894 10.4859 25.9735 9.83043 26.469 8.45177C28.1042 8.72966 29.0571 8.18546 29.5431 7.07881C31.0427 7.77148 32.3799 7.82097 33.4795 6.9304C33.6545 7.80547 33.9669 8.57856 34.3418 9.30522Z" fill="#010A4D"/>
<path d="M48.5724 7.8618C47.2735 8.49424 45.9746 9.12668 44.6757 9.47671C45.0506 8.75005 45.363 7.9769 45.538 7.1019C46.6377 7.99246 47.9748 7.94297 49.4744 7.2503C49.9605 8.35695 50.9134 8.90116 52.5485 8.62327C53.044 10.0019 54.1281 10.6574 56.0725 10.2559C56.313 10.763 56.6317 11.2082 57.1222 11.5175C56.1835 11.4914 55.5118 11.7295 55.0227 12.1483C53.4297 11.5164 52.1927 11.6772 51.1992 12.3803C49.7087 11.2136 48.2063 11.0119 46.6909 11.8701C46.0844 11.2797 45.269 10.909 44.2634 10.7383C44.5042 10.389 44.9508 10.2096 45.4911 10.1074C45.7945 10.348 46.0978 10.5886 46.4012 10.8291L46.9064 11.2298L46.4752 9.87563C47.7684 9.48547 49.0027 10.2756 50.4961 11.2717C50.6975 11.3008 50.3505 10.616 50.1757 10.2712L50.1731 10.266C50.1647 10.2494 50.1567 10.2336 50.1492 10.2188C52.6234 11.1202 54.5666 11.6799 55.0415 11.2949C53.5982 10.8434 52.3799 10.2682 51.3864 9.56944L52.2111 8.95714C50.446 9.25389 48.8903 9.19209 47.9748 8.69744C48.7743 8.08537 49.0492 7.77 48.7996 7.75126C48.7239 7.78807 48.6482 7.82493 48.5724 7.8618Z" fill="#010A4D"/>
<path d="M39.5743 0.823458C39.5919 1.58377 39.6095 2.34403 39.6271 3.10434L40.5451 3.1229L41.3131 0.916336C40.7605 0.724749 40.1735 0.669075 39.5709 0.67526L39.5743 0.823458Z" fill="#010A4D"/>
<path d="M39.0695 3.10434C39.0871 2.34403 39.1047 1.58377 39.1223 0.823458L39.1257 0.67526C38.5231 0.669075 37.9361 0.724749 37.3835 0.916336L38.1515 3.1229L39.0695 3.10434Z" fill="#010A4D"/>
<path d="M37.2889 2.13096C37.4165 2.48763 37.5442 2.84441 37.6694 3.19402L36.9947 3.59422L35.5824 1.87654C35.9696 1.5338 36.4288 1.29431 36.9205 1.10174C37.0388 1.43197 37.1593 1.76859 37.2798 2.10546L37.2889 2.13096Z" fill="#010A4D"/>
<path d="M41.1203 3.21257C41.2438 2.8679 41.3743 2.5116 41.5048 2.15532C41.6348 1.80027 41.7648 1.44524 41.8879 1.10174C42.3797 1.29431 42.8388 1.53379 43.2261 1.87654L41.8417 3.56647L41.1203 3.21257Z" fill="#010A4D"/>
<path d="M38.5837 4.42437L37.9569 5.1623L37.6862 4.82424C37.9568 4.64616 38.2593 4.50968 38.5837 4.42437Z" fill="#010A4D"/>
<path d="M37.2556 5.16807L37.5945 5.58895L36.5687 6.79674L36.435 6.63937C36.5538 6.07081 36.8458 5.5626 37.2556 5.16807Z" fill="#010A4D"/>
<path d="M36.4125 7.66446L36.5354 7.52388L37.7083 8.86539L37.3354 9.331C36.8537 8.90017 36.5192 8.31871 36.4125 7.66446Z" fill="#010A4D"/>
<path d="M37.7653 9.65114L38.0673 9.27606L38.7315 10.0357C38.3829 9.96223 38.0569 9.83031 37.7653 9.65114Z" fill="#010A4D"/>
<path d="M40.9848 4.77389C40.6927 4.59445 40.3662 4.46241 40.0169 4.38902L40.6737 5.16232L40.9848 4.77389Z" fill="#010A4D"/>
<path d="M41.4263 5.1044C41.8444 5.48225 42.15 5.97421 42.2897 6.52864L42.062 6.79674L41.0361 5.58896L41.4263 5.1044Z" fill="#010A4D"/>
<path d="M42.3169 7.77739C42.1854 8.41662 41.8351 8.98006 41.3442 9.39214L40.9224 8.86539L42.0953 7.52389L42.3169 7.77739Z" fill="#010A4D"/>
<path d="M40.904 9.69911L40.5634 9.27606L39.8759 10.0623C40.246 10.0023 40.5931 9.87701 40.904 9.69911Z" fill="#010A4D"/>
<path d="M36.8655 7.14626L37.8978 5.96561L38.967 7.29353L38.0079 8.49121L36.8655 7.14626Z" fill="#010A4D"/>
<path d="M38.2644 5.5463L39.3153 4.34431L40.3662 5.5463L39.3153 6.8586L38.2644 5.5463Z" fill="#010A4D"/>
<path d="M41.7651 7.14626L40.7329 5.96561L39.6636 7.29353L40.6228 8.49121L41.7651 7.14626Z" fill="#010A4D"/>
<path d="M40.2678 8.90905L39.3153 7.72609L38.3628 8.90905L39.3153 10.0305L40.2678 8.90905Z" fill="#010A4D"/>
<path fill-rule="evenodd" clip-rule="evenodd" d="M24.9153 35.0227L25.0839 37.3961C25.337 36.9607 25.8252 37.1729 26.6013 37.2849C27.7141 37.4455 28.4263 36.5449 28.3997 35.171C28.3497 32.5851 26.6357 33.7649 26.2594 32.3201C26.1208 31.788 26.6516 31.6496 27.0697 31.6294C27.4768 31.6098 27.8485 31.774 28.1562 32.2413L28.0859 30.0162C27.8451 30.284 27.4395 30.3585 26.9947 30.4427C25.5303 30.72 25.0593 31.4984 24.9715 32.3897C24.7662 34.4706 27.3521 33.7764 27.182 35.3194C27.0388 36.6187 25.8582 36.2573 24.9153 35.0227Z" fill="white"/>
<path fill-rule="evenodd" clip-rule="evenodd" d="M29.2693 37.1631L31.496 37.1538C31.2056 36.9277 30.9738 36.5162 30.972 35.9407L30.9663 34.0214C32.8596 33.9264 33.5394 32.7941 33.4953 31.0175C33.4565 29.4495 32.8895 28.731 31.9405 28.7924C30.9414 28.857 30.0409 29.1862 29.2241 29.5712C29.5143 29.7212 29.6724 29.9714 29.6737 30.3685L29.6925 36.024C29.6936 36.4037 29.6092 36.7834 29.2693 37.1631ZM30.9288 32.6863C30.9351 31.9014 30.9413 31.1164 30.9476 30.3315C31.7521 29.9996 32.16 30.2379 32.1465 31.1659C32.1322 32.1588 31.7986 32.7305 30.9288 32.6863Z" fill="white"/>
<path fill-rule="evenodd" clip-rule="evenodd" d="M40.127 35.6716C40.1263 36.1691 39.9747 36.6264 39.64 37.0252H42.0004C41.6563 36.6033 41.4891 36.1623 41.4946 35.6901C41.5193 33.5393 41.5047 31.3882 41.4946 29.2373C41.4922 28.7273 41.6319 28.2576 42.0192 27.8466C41.2011 27.8033 40.383 27.7601 39.565 27.7168C39.9959 28.0629 40.1064 28.5539 40.1083 29.2002C40.1145 31.3573 40.1303 33.5145 40.127 35.6716Z" fill="white"/>
<path fill-rule="evenodd" clip-rule="evenodd" d="M42.8434 37.1922H44.9603C44.5936 36.7719 44.5018 36.3516 44.492 35.9313L44.3983 31.9261L46.2342 37.1365C46.79 37.1427 47.3458 37.1489 47.9015 37.1551C47.5021 36.8089 47.377 36.391 47.377 35.8942C47.377 34.0276 47.3687 32.161 47.377 30.2943C47.3791 29.8177 47.5606 29.4732 47.8453 29.2189L45.8221 28.6626C46.103 28.9099 46.2088 29.231 46.2155 29.6268L46.2717 32.983L44.6231 28.4215C44.0334 28.3102 43.4438 28.199 42.854 28.0877C43.1363 28.4381 43.2977 28.8236 43.2938 29.2731C43.274 31.5418 43.2214 33.8114 43.2743 36.0796C43.2834 36.4694 43.1742 36.8329 42.8434 37.1922Z" fill="white"/>
<path fill-rule="evenodd" clip-rule="evenodd" d="M50.9178 33.3539L52.8661 33.4837C52.8692 34.3459 52.8723 35.2081 52.8754 36.0704C52.8381 36.4628 52.9629 36.8181 53.25 37.1364C52.5288 36.8062 51.8731 37.3835 51.1988 37.2849C49.9383 37.1338 49.0634 36.3525 48.8758 34.4479V32.6121C49.0694 31.1411 49.6897 30.4247 50.7304 30.35C51.6204 30.286 51.9793 31.0635 52.6038 30.9619V32.8161C52.1804 31.8254 51.6582 31.5394 51.1051 31.5182C50.478 31.4942 50.1122 32.0626 50.1122 32.983C50.1122 33.3847 50.0886 33.7872 50.1122 34.1883C50.2017 35.7069 50.7308 36.3281 51.6671 35.9684L51.6858 34.3922C51.3986 34.3307 51.1489 34.4543 50.9365 34.7631L50.9178 33.3539Z" fill="white"/>
<path fill-rule="evenodd" clip-rule="evenodd" d="M36.0432 31.7777L36.0057 29.3116C36.9668 29.1515 37.2504 29.4996 37.2422 30.3871C37.2335 31.3247 36.9961 31.8108 36.0432 31.7777ZM34.1886 37.1365L36.5115 37.1551C36.1706 36.8598 36.0019 36.4182 36.0057 35.8757L36.0245 33.2241C36.8842 32.9578 37.2952 34.0614 37.5232 36.2836C37.5569 36.6122 37.5542 36.8831 37.3171 37.1365H39.5651C38.5446 35.9741 38.9556 32.9133 37.6543 32.538C38.1922 32.4071 38.6765 31.8134 38.6659 31.0175L38.6472 29.6083C38.633 28.5402 37.835 27.8878 36.8488 27.9766L34.1698 28.2176C34.495 28.4304 34.6164 28.7142 34.6195 29.0891C34.6382 31.3698 34.6497 33.6506 34.6757 35.9313C34.6807 36.3702 34.5256 36.7719 34.1886 37.1365Z" fill="white"/>
<path fill-rule="evenodd" clip-rule="evenodd" d="M13.3411 36.2734L15.7269 33.5415C14.9174 33.5411 14.2356 33.2919 13.6497 32.7753L11.4204 30.8097L13.4249 28.7144C14.118 29.4499 14.7858 30.2098 15.5043 30.921C16.0544 31.4654 16.3285 32.1324 16.2537 32.9978L19.0075 30.6429C18.159 30.6607 17.4021 30.0656 16.6284 29.2151L12.3945 24.5609C11.7756 23.8804 11.5655 23.1501 11.6077 22.41C10.7023 23.1887 9.7968 23.9675 8.8913 24.7463C9.53765 24.8344 10.1618 25.0853 10.6897 25.6363L12.4133 27.435L10.2776 29.6601C9.66568 29.1162 9.06735 28.5568 8.44174 28.0284C7.87423 27.549 7.55499 26.9282 7.5238 26.1184C6.73693 27.0023 5.95012 27.8862 5.16333 28.77C5.69096 28.7422 6.42357 28.7997 7.2053 29.5303C8.99749 31.2052 10.8002 32.8334 12.6006 34.4997C13.0953 34.9575 13.3379 35.5771 13.3411 36.2734Z" fill="white"/>
<path fill-rule="evenodd" clip-rule="evenodd" d="M30.1537 25.2572L33.6936 24.3839C33.0321 23.922 32.6197 23.3296 32.4413 22.5733L31.7625 19.6957L34.6203 19.1254C34.759 20.1218 34.8628 21.1236 35.0364 22.1146C35.1693 22.8733 35.0054 23.5749 34.4406 24.2396L38.0621 23.8842C37.3581 23.4151 37.0855 22.4971 36.9479 21.3608L36.1948 15.1425C36.0847 14.2333 36.338 13.5166 36.8031 12.9356C35.6097 13.0561 34.4164 13.1766 33.223 13.2971C33.7001 13.7375 34.0643 14.2985 34.1753 15.0499L34.5378 17.5028L31.4972 18.1044C31.3134 17.3109 31.1498 16.5125 30.9457 15.7239C30.7608 15.0085 30.861 14.3191 31.3066 13.6393C30.1491 13.9133 28.9915 14.1874 27.8341 14.4614C28.2817 14.7394 28.8471 15.2041 29.061 16.247C29.5516 18.6379 30.078 20.9965 30.5803 23.385C30.7183 24.0413 30.5561 24.6861 30.1537 25.2572Z" fill="white"/>
<path fill-rule="evenodd" clip-rule="evenodd" d="M19.1699 28.5382C19.508 29.0391 19.5139 29.6357 19.4364 30.242L22.425 28.343C21.756 28.1425 21.2055 27.9794 20.8788 27.5073L16.4566 21.117C16.1037 20.607 16.06 19.856 16.1853 19.2044L13.1539 21.1824C13.8627 21.2529 14.3875 21.4536 14.8268 22.1043L19.1699 28.5382Z" fill="white"/>
<path fill-rule="evenodd" clip-rule="evenodd" d="M23.8033 20.2946L26.8812 19.2674C27.3855 20.5963 27.8899 22.3703 28.3943 23.6992C28.5593 24.3243 28.9731 24.8071 29.6358 25.1475C28.243 25.0168 27.4848 26.3635 26.304 26.5655C24.1162 26.9945 22.1687 26.6195 20.7533 23.779L19.803 21.4657C19.2738 19.094 20.4174 16.7349 22.1082 16.0728C23.554 15.5066 23.9649 16.2581 24.9091 15.2166L25.964 17.893C24.6849 16.5866 23.1433 17.4948 22.9589 17.5674C21.9429 17.967 21.7509 19.2816 21.8904 20.7759C21.9514 21.4291 22.2418 22.0294 22.5133 22.6359C23.5415 24.9323 25.3075 25.5575 26.6595 24.5105L25.6468 21.4379C25.1326 21.4937 24.4695 21.8157 24.2944 22.4038L23.8033 20.2946Z" fill="white"/>
<path fill-rule="evenodd" clip-rule="evenodd" d="M38.8353 23.7924L43.8788 24.0521L44.9103 20.8786C44.0851 21.9853 42.96 22.4246 41.5353 22.1962C41.6352 19.9259 41.8122 17.5277 41.8352 15.2555C41.8438 14.4054 42.0731 13.6099 42.7541 12.8614L39.0788 12.75C39.6041 12.8482 39.7598 13.4321 39.8853 14.7171L39.6603 21.1013C39.6252 22.0992 39.5543 23.0418 38.8353 23.7924Z" fill="white"/>
<path fill-rule="evenodd" clip-rule="evenodd" d="M48.2883 20.5186L50.143 21.0007L50.1992 16.9955L48.2883 20.5186ZM47.4366 22.0387L50.1358 22.7437C50.1982 23.6529 50.0106 24.531 49.2735 25.3412C50.2982 25.706 51.3229 26.0709 52.3476 26.4358C52.0367 23.1388 52.1349 19.6345 52.2538 16.1852C52.2687 15.7543 52.5883 15.3072 52.9192 14.9329C51.7446 14.568 50.5231 14.2587 49.3484 13.8938C49.4388 14.3666 49.4942 14.9143 49.1985 15.4338C47.5314 18.3631 46.1679 21.587 43.9501 24.0796L46.7617 24.7104C46.5047 23.9203 46.7445 23.0266 47.4366 22.0387Z" fill="white"/>
<path fill-rule="evenodd" clip-rule="evenodd" d="M52.6316 26.5544L55.4789 27.994C55.2684 27.2991 55.2281 26.813 55.482 26.317L58.0686 21.1085L57.1149 29.0656C57.8339 29.3826 58.6184 30.2738 59.3374 30.5908C59.0375 29.9641 59.2714 29.1443 59.6325 28.5861L63.428 22.7194C63.7739 22.1839 64.8246 21.4552 65.3562 21.3172L62.6272 19.3176C62.8358 19.7627 62.647 20.8483 62.3593 21.2927L59.5353 25.6492L60.471 18.1823C59.7746 17.7237 58.2908 17.191 57.5943 16.7325C57.7393 17.2987 57.7612 18.172 57.4711 18.6944C56.0067 21.3311 55.4171 22.8196 54.0474 25.4962C53.8122 25.956 53.2896 26.3195 52.6316 26.5544Z" fill="white"/>
<path fill-rule="evenodd" clip-rule="evenodd" d="M59.8454 30.833C60.4647 30.7274 61.027 30.4034 61.5041 29.8867C63.0214 28.245 64.4886 26.5141 66.0313 24.8959C66.7114 24.1822 67.0449 23.4038 67.0431 22.484C68.0053 23.3869 69.0053 24.327 69.9675 25.2298C71.3784 26.9051 72.0269 28.9593 69.4428 31.9462C67.3197 34.3994 64.9187 34.8157 62.5072 33.4304L59.8454 30.833ZM62.8067 31.3475L67.996 25.6178C69.5096 26.7048 69.8772 28.4141 67.7151 30.8283C65.8636 32.8956 64.1805 32.5592 62.8067 31.3475Z" fill="white"/>
</g>
<defs>
<clipPath id="clip0_2096_4120">
<rect width="78" height="40" fill="white"/>
</clipPath>
</defs>
</svg>
