<svg width="41" height="40" viewBox="0 0 41 40" fill="none" xmlns="http://www.w3.org/2000/svg">
<path d="M21.5482 33.4325C21.5524 29.8202 21.5619 26.8054 21.5695 26.7329C21.5771 26.6604 21.5966 26.457 21.6129 26.2809C21.6897 25.4501 21.8474 24.5884 22.0728 23.7668C22.1881 23.3464 22.2555 23.1483 22.381 22.8596C22.9371 21.5809 23.9116 20.5859 25.2232 19.9575C25.6226 19.7662 25.8923 19.6677 26.4667 19.5036C27.6791 19.1571 28.7781 18.9673 30.15 18.8675C30.5559 18.838 31.8431 18.8379 32.2721 18.8672C33.7548 18.969 35.2216 19.2475 36.5064 19.6713C37.0932 19.8648 37.7344 20.2028 38.2599 20.5956C38.474 20.7556 38.9868 21.2403 39.1642 21.4503C39.4856 21.8308 39.8057 22.3367 40.0101 22.7874C40.2592 23.3367 40.523 24.3165 40.6797 25.2745L40.7308 25.5865C40.9498 26.9297 40.9334 28.2039 40.7304 29.7082L40.6704 30.066C40.5147 30.9958 40.2666 31.9252 40.0319 32.4583C39.6004 33.438 38.8882 34.2862 37.9884 34.8919C37.309 35.3492 36.6735 35.6106 35.5099 35.9112C34.2486 36.237 33.0308 36.4064 31.6238 36.4517L31.2347 36.4642L30.2463 33.896C29.7026 32.4835 29.2592 31.3262 29.2609 31.3242C29.2625 31.3223 29.3399 31.3462 29.4329 31.3774C30.1679 31.6242 31.5051 31.671 32.5509 31.4864C33.0605 31.3965 33.523 31.1868 33.8862 30.881C34.4212 30.4306 34.6802 29.9591 34.871 29.0884C34.9977 28.5098 35.0306 28.1696 35.0214 27.5331C35.0124 26.9113 34.9659 26.5538 34.8212 25.9944C34.6405 25.2959 34.4086 24.8842 33.9773 24.4962C33.5736 24.1332 33.1248 23.9182 32.5513 23.8131C32.0766 23.7261 31.789 23.7023 31.2158 23.7023C30.6339 23.7023 30.3047 23.7295 29.8588 23.8141C28.9849 23.98 28.2861 24.4652 27.9033 25.172C27.6335 25.67 27.4396 26.4927 27.3913 27.3447C27.3863 27.4328 27.3817 30.3162 27.3811 33.7524L27.3803 40H24.4605H21.5407L21.5482 33.4323L21.5482 33.4325ZM9.94488 36.4472C8.35842 36.3829 6.8951 36.1367 5.47146 35.6946C5.04836 35.5632 4.86509 35.4923 4.52497 35.3284C3.09051 34.6375 2.02977 33.4534 1.53992 31.9965C1.45057 31.7307 1.27004 31.0357 1.19019 30.65C1.05255 29.9852 0.938674 29.1539 0.903919 28.5603C0.884075 28.2213 0.883891 27.0735 0.903518 26.7403C0.986353 25.3421 1.3475 23.6511 1.75376 22.7593C2.34207 21.4679 3.42289 20.4298 4.7839 19.8488C5.08021 19.7223 5.32987 19.6371 5.80013 19.5021C9.02149 18.5771 12.4623 18.619 15.6831 19.6224C16.662 19.9274 17.5825 20.4874 18.2455 21.1814C18.7722 21.7326 19.1986 22.3995 19.4594 23.0795C19.7458 23.8265 20.0698 25.3606 20.1374 26.2904C20.1446 26.3888 20.154 26.4905 20.1584 26.5163C20.1931 26.7216 20.207 27.8326 20.1817 28.3713C20.1149 29.7927 19.764 31.5394 19.3607 32.4579C19.1616 32.9114 18.8057 33.4783 18.4799 33.8609C17.9447 34.4894 17.19 35.0491 16.4008 35.4026C15.569 35.7752 14.0025 36.1617 12.6547 36.3267C11.787 36.433 10.741 36.4795 9.94477 36.4472H9.94488ZM11.2254 31.5733C12.2194 31.4822 12.77 31.2802 13.2927 30.8152C13.7144 30.4401 13.9596 30.0144 14.1367 29.3497C14.4331 28.238 14.4337 27.0634 14.1384 25.953C13.9657 25.3036 13.7467 24.9083 13.3541 24.5372C12.7182 23.9363 11.9143 23.7004 10.5128 23.7035C9.39176 23.7059 8.72173 23.8497 8.14744 24.2111C7.80231 24.4282 7.46969 24.7619 7.2818 25.0794C7.0492 25.4725 6.8721 26.0648 6.7649 26.8082C6.71906 27.1262 6.70961 27.9663 6.74796 28.3148C6.82466 29.012 7.003 29.6953 7.20991 30.0848C7.48459 30.6018 7.89755 30.9913 8.4465 31.2511C8.8418 31.4381 9.20384 31.5156 10.0246 31.5888C10.2244 31.6066 10.9665 31.597 11.2254 31.5733ZM9.92495 17.6091C9.7222 17.601 9.4801 17.5888 9.38694 17.5819C9.17412 17.5663 8.81506 17.534 8.74931 17.5246C8.72191 17.5207 8.64569 17.5121 8.57994 17.5056C8.51418 17.499 8.43796 17.4907 8.41056 17.487C8.38317 17.4833 8.31735 17.4747 8.2643 17.4678C8.21125 17.4609 8.15297 17.4527 8.13478 17.4495C8.11659 17.4463 8.00756 17.4294 7.89249 17.4119C6.95979 17.2702 5.64492 16.9439 4.99323 16.6923C4.48266 16.4952 3.91819 16.1817 3.48881 15.8567C3.21418 15.6488 2.76289 15.2191 2.55907 14.9713C2.0538 14.3571 1.71563 13.7348 1.49705 13.0171C1.18407 11.9894 0.967871 10.7896 0.904239 9.72746C0.884283 9.39432 0.883679 8.24299 0.903278 7.91957C0.957092 7.0322 1.11137 6.05384 1.33686 5.17007C1.51404 4.47561 1.63689 4.13959 1.89529 3.64266C2.59063 2.30544 3.80775 1.29848 5.322 0.807665C6.53507 0.414466 7.9002 0.151446 9.31719 0.0379093C9.73635 0.00432514 10.9006 -0.00705014 11.3795 0.0177588C12.821 0.0924243 14.2389 0.340803 15.6039 0.757736C16.3305 0.979674 17.0082 1.31941 17.5739 1.74531C17.8109 1.92369 18.3202 2.40318 18.5012 2.61831C18.9276 3.12504 19.2952 3.76408 19.5105 4.37268C19.6914 4.88425 19.9156 5.83773 20.0255 6.56365C20.1247 7.21808 20.1731 7.7511 20.1978 8.461L20.2088 8.77643H17.2908H14.3728L14.3619 8.73406C14.356 8.71076 14.3507 8.61611 14.3501 8.52372C14.347 7.95333 14.1761 7.09694 13.9582 6.55998C13.7836 6.12944 13.4261 5.70069 13.0035 5.41504C12.5865 5.13314 12.1841 4.9998 11.4593 4.90339C11.1414 4.8611 10.031 4.85495 9.70575 4.89366C9.37869 4.93259 8.99361 5.00381 8.81904 5.05764C8.06047 5.29159 7.44042 5.83123 7.13412 6.52406C6.99087 6.84805 6.84821 7.40327 6.77383 7.92616C6.71849 8.31525 6.70566 9.09824 6.74832 9.48264C6.82434 10.1676 7.00694 10.8717 7.20487 11.2432C7.58726 11.9608 8.31891 12.4832 9.15536 12.6357C10.0339 12.796 11.0854 12.7956 11.9273 12.6348C12.4756 12.5301 12.9511 12.2931 13.34 11.9308C13.7984 11.5037 14.0318 11.0399 14.2116 10.1983C14.2448 10.043 14.2735 9.91477 14.2754 9.91334C14.2824 9.90806 19.7372 12.3175 19.7538 12.3332C19.7752 12.3534 19.6353 12.8787 19.5199 13.2114C19.072 14.5031 18.143 15.6035 16.909 16.3041C16.5243 16.5226 16.145 16.6856 15.6913 16.8277C14.7902 17.1098 13.7464 17.3427 12.8342 17.4654C12.6448 17.4909 12.2708 17.5332 12.1467 17.5432C12.07 17.5494 11.9758 17.5576 11.9375 17.5613C11.859 17.5691 11.6037 17.586 11.3795 17.5984C11.0397 17.6172 10.2693 17.6229 9.92495 17.6091ZM30.9454 17.6207C30.9408 17.6169 30.7577 17.6083 30.5385 17.6017C30.3194 17.595 30.1086 17.586 30.0703 17.5816C30.0319 17.5772 29.9221 17.5682 29.8262 17.5616C29.7303 17.5549 29.6272 17.5467 29.5971 17.5432C29.5669 17.5397 29.484 17.5315 29.4127 17.525C29.2997 17.5146 29.0923 17.4896 28.9345 17.4673C28.9071 17.4634 28.8443 17.4551 28.795 17.4488C28.0324 17.3516 26.8529 17.081 26.0125 16.8104C25.1062 16.5186 24.41 16.114 23.7268 15.4818C22.9276 14.7424 22.4211 13.91 22.1111 12.8268C21.8518 11.9207 21.6994 11.0832 21.5919 9.97228C21.5412 9.44754 21.5407 8.08047 21.5912 7.67266C21.5962 7.63238 21.6101 7.49349 21.6221 7.36402C21.7125 6.39049 21.9932 5.05109 22.2588 4.32546C22.6674 3.20902 23.4296 2.24011 24.4312 1.56379C25.0732 1.13025 25.6803 0.873635 26.7426 0.586676C29.1743 -0.0701668 31.8049 -0.178307 34.2847 0.276627C35.2589 0.455354 36.2995 0.733986 36.8845 0.972754C38.3344 1.56448 39.478 2.6837 40.0714 4.09187C40.2925 4.6167 40.5323 5.54321 40.6796 6.44255L40.7308 6.75458C40.9255 8.13614 40.9416 9.31055 40.7304 10.8762L40.6718 11.2246C40.5531 11.9314 40.3542 12.7491 40.1839 13.2302C39.8873 14.0684 39.4159 14.7959 38.7678 15.4155C38.1689 15.9881 37.525 16.3959 36.7478 16.6947C36.0829 16.9504 34.7966 17.2694 33.8561 17.412C33.741 17.4294 33.6325 17.4462 33.615 17.4493C33.5975 17.4523 33.5356 17.4605 33.4775 17.4675C33.4193 17.4745 33.3557 17.4831 33.3361 17.4867C33.3164 17.4903 33.2393 17.499 33.1647 17.5061C33.0901 17.5131 33.0143 17.5215 32.9961 17.5247C32.9623 17.5307 32.6125 17.5623 32.3815 17.5802C32.0456 17.6063 30.9645 17.6368 30.9452 17.6207H30.9454ZM31.9693 12.72C32.3603 12.6838 32.7541 12.6136 32.9719 12.5413C33.6743 12.3081 34.2625 11.8097 34.5716 11.1859C34.7284 10.8696 34.9024 10.2151 34.9846 9.6333C35.028 9.32597 35.035 8.40304 34.9962 8.08906C34.9222 7.48869 34.7663 6.85681 34.6039 6.49899C34.4617 6.18578 34.1996 5.83554 33.9405 5.61243C33.6686 5.37841 33.2823 5.1664 32.9297 5.05764C32.7551 5.00381 32.37 4.93259 32.043 4.89366C31.7612 4.86012 30.6274 4.85996 30.3692 4.89328C29.5985 4.99316 29.2438 5.10117 28.8247 5.36359C28.4029 5.62771 28.0861 5.96929 27.8688 6.39402C27.6669 6.78882 27.4921 7.47001 27.4169 8.15483C27.3859 8.43778 27.3867 9.21664 27.4184 9.49192C27.4749 9.98377 27.6081 10.5774 27.7437 10.942C28.069 11.8163 28.8453 12.4488 29.8212 12.6347C30.4758 12.7594 31.2224 12.789 31.9693 12.7199L31.9693 12.72Z" fill="#00B1DD"/>
</svg>
