<svg width="170" height="40" viewBox="0 0 170 40" fill="none" xmlns="http://www.w3.org/2000/svg">
<path d="M24.0738 35.4006L19.7212 19.4229L19.6473 19.2468H24.0295C24.5569 19.2399 25.0664 19.4387 25.4512 19.8014C25.4512 19.8014 35.9764 31.1832 38.8082 33.4334C41.0845 35.2415 42.4814 35.3697 43.555 35.3697C44.2639 35.3697 45.3227 35.3677 45.3227 35.3677L32.1777 4.48966H23.9841L10.9267 35.4006H24.0738Z" fill="#131316"/>
<path d="M8.54493 4.49072H0V35.3942H8.54493V4.49072Z" fill="#131316"/>
<path d="M43.3566 20.094V20.006C43.3566 11.0409 50.3511 4.01019 59.8376 4.01019C64.3939 3.85584 68.8363 5.45969 72.2536 8.49276L67.27 14.5118C65.2624 12.6389 62.622 11.6026 59.883 11.6125C55.4665 11.6125 52.0561 15.3475 52.0561 20.0505V20.1375C52.0006 21.2567 52.1763 22.3755 52.5718 23.4233C52.9674 24.4712 53.5743 25.4253 54.3546 26.226C55.1347 27.0266 56.0713 27.6564 57.1053 28.0757C58.1394 28.495 59.2486 28.6948 60.3631 28.6624C62.085 28.7372 63.7899 28.2933 65.2591 27.3878V23.6539H59.2262V17.4143H73.3039V31.2552C69.563 34.352 64.8592 36.0312 60.0129 35.9996C50.483 35.9996 43.3566 29.41 43.3566 20.094Z" fill="#131316"/>
<path d="M79.3921 12.8512V5.25H80.2456V12.8512H79.3921ZM82.4605 12.8512V5.25H83.2599L88.0244 11.3419V5.25H88.8563V12.8512H88.1757L83.2923 6.61822V12.8512H82.4605ZM92.9622 12.8512V6.0427H90.4125V5.25H96.3654V6.0427H93.8157V12.8512H92.9622ZM97.9171 12.8512V5.25H103.384V6.03184H98.7706V8.62712H102.898V9.40897H98.7706V12.0694H103.438V12.8512H97.9171ZM105.155 12.8512V5.25H108.406C109.336 5.25 110.081 5.53233 110.556 6.01012C110.924 6.37933 111.14 6.91141 111.14 7.50865V7.53037C111.14 8.79001 110.275 9.52842 109.087 9.74559L111.41 12.8512H110.362L108.169 9.89762H106.008V12.8512H105.155ZM106.008 9.12664H108.331C109.465 9.12664 110.275 8.54025 110.275 7.56295V7.54123C110.275 6.60736 109.562 6.0427 108.342 6.0427H106.008V9.12664ZM112.962 12.8512V5.25H113.762L118.526 11.3419V5.25H119.358V12.8512H118.678L113.794 6.61822V12.8512H112.962ZM120.849 12.8512L124.296 5.1957H125.095L128.541 12.8512H127.623L126.737 10.8423H122.621L121.724 12.8512H120.849ZM122.956 10.0714H126.402L124.685 6.19472L122.956 10.0714ZM131.071 12.8512V6.0427H128.521V5.25H134.474V6.0427H131.924V12.8512H131.071Z" fill="#131316"/>
<path d="M136.004 12.8512V5.25H136.857V12.8512H136.004Z" fill="#131316"/>
<path d="M142.151 12.9816C139.85 12.9816 138.305 11.1681 138.305 9.07234V9.05062C138.305 6.95485 139.871 5.11969 142.173 5.11969C144.474 5.11969 146.019 6.93313 146.019 9.0289V9.05062C146.019 11.1464 144.452 12.9816 142.151 12.9816ZM142.173 12.1889C143.901 12.1889 145.133 10.7989 145.133 9.07234V9.05062C145.133 7.32405 143.88 5.91239 142.151 5.91239C140.422 5.91239 139.191 7.30233 139.191 9.0289V9.05062C139.191 10.7772 140.444 12.1889 142.173 12.1889ZM147.819 12.8512V5.25H148.618L153.383 11.3419V5.25H154.215V12.8512H153.534L148.651 6.61822V12.8512H147.819ZM155.705 12.8512L159.152 5.1957H159.951L163.398 12.8512H162.479L161.594 10.8423H157.477L156.581 12.8512H155.705ZM157.812 10.0714H161.259L159.541 6.19472L157.812 10.0714ZM164.89 12.8512V5.25H165.743V12.0585H170V12.8512H164.89Z" fill="#131316"/>
<path d="M78.6682 23.7102L82.1146 16.0546H82.9141L86.3605 23.7102H85.4422L84.5563 21.7013H80.44L79.5433 23.7102H78.6682ZM80.7749 20.9303H84.2214L82.5036 17.0537L80.7749 20.9303Z" fill="#131316"/>
<path d="M87.927 23.7102V16.1089H88.7805V23.7102H87.927Z" fill="#131316"/>
<path d="M90.7792 23.7102V16.1089H94.0311C94.9602 16.1089 95.7057 16.3913 96.1811 16.8691C96.5484 17.2383 96.7645 17.7703 96.7645 18.3676V18.3893C96.7645 19.6489 95.9002 20.3873 94.7117 20.6045L97.0346 23.7102H95.9866L93.7934 20.7566H91.6327V23.7102H90.7792ZM91.6327 19.9856H93.9555C95.0899 19.9856 95.9002 19.3992 95.9002 18.4219V18.4002C95.9002 17.4663 95.1871 16.9016 93.9663 16.9016H91.6327V19.9856ZM98.5865 23.7102V16.1089H99.44V22.9175H103.697V23.7102H98.5865Z" fill="#131316"/>
<path d="M104.921 23.7102V16.1089H105.775V23.7102H104.921Z" fill="#131316"/>
<path d="M107.558 23.7102V16.1089H108.357L113.121 22.2008V16.1089H113.953V23.7102H113.272L108.389 17.4772V23.7102H107.558ZM116.093 23.7102V16.1089H121.56V16.8908H116.947V19.4861H121.074V20.2679H116.947V22.9283H121.614V23.7102H116.093ZM125.924 23.8188C124.724 23.8188 123.741 23.417 122.834 22.6026L123.363 21.9728C124.152 22.6894 124.908 23.0478 125.956 23.0478C126.972 23.0478 127.642 22.5048 127.642 21.7556V21.7339C127.642 21.028 127.263 20.6262 125.675 20.2896C123.936 19.9096 123.136 19.3449 123.136 18.0961V18.0744C123.136 16.8799 124.184 16.0003 125.621 16.0003C126.723 16.0003 127.512 16.3152 128.279 16.9342L127.782 17.5966C127.08 17.0211 126.377 16.7713 125.6 16.7713C124.616 16.7713 123.99 17.3143 123.99 17.9984V18.0201C123.99 18.7368 124.379 19.1386 126.043 19.4969C127.728 19.8661 128.506 20.4851 128.506 21.647V21.6687C128.506 22.9718 127.425 23.8188 125.924 23.8188Z" fill="#131316"/>
<path d="M82.8277 34.6994C80.4508 34.6994 78.9815 32.962 78.9815 30.7902V30.7685C78.9815 28.6836 80.5049 26.8376 82.7737 26.8376C84.0485 26.8376 84.8372 27.2068 85.5934 27.8474L85.0425 28.499C84.459 27.9886 83.8108 27.6303 82.7412 27.6303C81.0666 27.6303 79.8674 29.0528 79.8674 30.7468V30.7685C79.8674 32.5819 81.0234 33.9284 82.8601 33.9284C83.7244 33.9284 84.5239 33.5918 85.0425 33.1683V31.2789H82.7412V30.5079H85.8635V33.5375C85.1613 34.1673 84.1025 34.6994 82.8277 34.6994ZM87.7886 34.5691V26.9679H91.0405C91.9696 26.9679 92.7151 27.2502 93.1905 27.728C93.5578 28.0972 93.7739 28.6293 93.7739 29.2265V29.2482C93.7739 30.5079 92.9096 31.2463 91.7211 31.4635L94.044 34.5691H92.996L90.8028 31.6155H88.6421V34.5691H87.7886ZM88.6421 30.8445H90.9649C92.0993 30.8445 92.9096 30.2581 92.9096 29.2808V29.2591C92.9096 28.3252 92.1965 27.7606 90.9757 27.7606H88.6421V30.8445ZM99.1073 34.6994C96.8061 34.6994 95.2611 32.886 95.2611 30.7902V30.7685C95.2611 28.6727 96.8277 26.8376 99.1289 26.8376C101.43 26.8376 102.975 28.651 102.975 30.7468V30.7685C102.975 32.8643 101.408 34.6994 99.1073 34.6994ZM99.1289 33.9067C100.857 33.9067 102.089 32.5168 102.089 30.7902V30.7685C102.089 29.0419 100.836 27.6303 99.1073 27.6303C97.3787 27.6303 96.147 29.0202 96.147 30.7468V30.7685C96.147 32.4951 97.4003 33.9067 99.1289 33.9067ZM107.8 34.6886C105.931 34.6886 104.656 33.5375 104.656 31.3874V26.9679H105.51V31.3332C105.51 32.9729 106.374 33.8959 107.822 33.8959C109.216 33.8959 110.102 33.0489 110.102 31.3874V26.9679H110.955V31.3223C110.955 33.5375 109.691 34.6886 107.8 34.6886ZM112.973 34.5691V26.9679H115.804C117.511 26.9679 118.634 27.88 118.634 29.3785V29.4003C118.634 31.04 117.273 31.887 115.663 31.887H113.827V34.5691H112.973ZM113.827 31.1051H115.696C116.949 31.1051 117.77 30.4319 117.77 29.4328V29.4111C117.77 28.3252 116.96 27.7606 115.739 27.7606H113.827V31.1051Z" fill="#131316"/>
</svg>
