<?xml version="1.0" encoding="UTF-8"?> <svg xmlns="http://www.w3.org/2000/svg" width="193" height="40" viewBox="0 0 193 40" fill="none"><g id="plant&amp;bean"><g id="Group"><g id="Group_2"><g id="Group_3"><path id="Vector" d="M0 4.42328C0 4.31155 0.0914123 4.22217 0.201107 4.22217H7.28252C12.2289 4.22217 14.6564 6.96454 14.6564 12.0003V15.1023C14.6564 20.1381 12.2289 22.8804 7.28252 22.8804H5.1455C5.03377 22.8804 4.94439 22.9719 4.94439 23.0815V35.4933C4.94439 35.605 4.85298 35.6944 4.74328 35.6944H0.203138C0.0914123 35.6944 0.00203143 35.603 0.00203143 35.4933V4.42328H0ZM7.28455 18.385C8.85887 18.385 9.71205 17.6659 9.71205 15.4171V11.6855C9.71205 9.43673 8.85684 8.71762 7.28455 8.71762H5.14753C5.0358 8.71762 4.94642 8.80903 4.94642 8.91873V18.1818C4.94642 18.2936 5.03783 18.383 5.14753 18.383L7.28455 18.385Z" fill="#101D31"></path><path id="Vector_2" d="M16.9072 4.22217H21.4493C21.5611 4.22217 21.6504 4.31358 21.6504 4.42328V30.9979C21.6504 31.1096 21.7419 31.199 21.8516 31.199H29.5871C29.6988 31.199 29.7882 31.2904 29.7882 31.4001V35.4933C29.7882 35.605 29.6968 35.6944 29.5871 35.6944H16.9072C16.7954 35.6944 16.7061 35.603 16.7061 35.4933V4.42328C16.7061 4.31155 16.7954 4.22217 16.9072 4.22217Z" fill="#101D31"></path><path id="Vector_3" d="M42.5863 29.5372H37.2275C37.1259 29.5372 37.0406 29.6124 37.0264 29.7119L36.2199 35.5237C36.2057 35.6232 36.1204 35.6984 36.0188 35.6984H31.8463C31.7224 35.6984 31.627 35.5867 31.6473 35.4648L36.7074 4.39273C36.7237 4.29522 36.807 4.22412 36.9065 4.22412H43.2627C43.3623 4.22412 43.4455 4.29522 43.4618 4.39273L48.522 35.4648C48.5423 35.5887 48.4468 35.6984 48.3229 35.6984H43.7909C43.6893 35.6984 43.604 35.6232 43.5898 35.5237L42.7833 29.7119C42.7732 29.6124 42.6878 29.5372 42.5863 29.5372ZM42.1008 25.0357L39.915 9.60729C39.9109 9.57276 39.8602 9.57276 39.8541 9.60729L37.713 25.0357C37.6967 25.1575 37.7902 25.2652 37.9141 25.2652H41.9017C42.0236 25.2652 42.117 25.1575 42.1008 25.0357Z" fill="#101D31"></path><path id="Vector_4" d="M50.9003 4.22217H56.6573C56.7487 4.22217 56.8299 4.28311 56.8523 4.37249L61.7439 22.8378C61.752 22.8723 61.8028 22.8662 61.8028 22.8297V4.42328C61.8028 4.31155 61.8942 4.22217 62.0039 4.22217H66.0057C66.1174 4.22217 66.2068 4.31358 66.2068 4.42328V35.4953C66.2068 35.6071 66.1154 35.6964 66.0057 35.6964H61.3721C61.2807 35.6964 61.1994 35.6355 61.1771 35.5461L55.1622 12.9429C55.154 12.9084 55.1033 12.9145 55.1033 12.951V35.4953C55.1033 35.6071 55.0118 35.6964 54.9022 35.6964H50.9003C50.7886 35.6964 50.6992 35.605 50.6992 35.4953V4.42328C50.6992 4.31155 50.7886 4.22217 50.9003 4.22217Z" fill="#101D31"></path><path id="Vector_5" d="M73.5645 8.71762H68.7968C68.6851 8.71762 68.5957 8.62621 68.5957 8.51652V4.42328C68.5957 4.31155 68.6871 4.22217 68.7968 4.22217H83.6808C83.7925 4.22217 83.8819 4.31358 83.8819 4.42328V8.51652C83.8819 8.62824 83.7905 8.71762 83.6808 8.71762H78.9131C78.8014 8.71762 78.712 8.80903 78.712 8.91873V35.4933C78.712 35.605 78.6206 35.6944 78.5109 35.6944H73.9687C73.857 35.6944 73.7676 35.603 73.7676 35.4933V8.92076C73.7656 8.80904 73.6742 8.71762 73.5645 8.71762Z" fill="#101D31"></path></g></g><g id="Group_4"><g id="Group_5"><path id="Vector_6" d="M124.698 4.42328C124.698 4.31155 124.79 4.22217 124.899 4.22217H132.162C137.287 4.22217 139.491 6.60498 139.491 11.462V12.7215C139.491 15.9595 138.502 17.9828 136.298 18.8827V18.9721C138.951 19.872 139.984 22.2101 139.984 25.5375V28.2352C139.984 33.0922 137.421 35.6985 132.474 35.6985H124.897C124.786 35.6985 124.696 35.6071 124.696 35.4974L124.698 4.42328ZM131.579 17.0361C133.423 17.0361 134.546 16.2277 134.546 13.7087V11.9556C134.546 9.70691 133.783 8.71762 132.028 8.71762H129.846C129.734 8.71762 129.645 8.80903 129.645 8.91873V16.833C129.645 16.9447 129.736 17.0341 129.846 17.0341H131.579V17.0361ZM132.476 31.201C134.14 31.201 135.04 30.4372 135.04 28.0991V25.3567C135.04 22.4335 134.095 21.5357 131.847 21.5357H129.846C129.734 21.5357 129.645 21.6271 129.645 21.7368V30.9999C129.645 31.1116 129.736 31.201 129.846 31.201H132.476Z" fill="#101D31"></path><path id="Vector_7" d="M142.865 4.22217H155.949C156.061 4.22217 156.15 4.31358 156.15 4.42328V8.51652C156.15 8.62824 156.059 8.71762 155.949 8.71762H147.81C147.698 8.71762 147.609 8.80903 147.609 8.91873V16.833C147.609 16.9447 147.7 17.0341 147.81 17.0341H154.194C154.306 17.0341 154.395 17.1255 154.395 17.2352V21.3285C154.395 21.4402 154.304 21.5296 154.194 21.5296H147.81C147.698 21.5296 147.609 21.621 147.609 21.7307V30.9938C147.609 31.1055 147.7 31.1949 147.81 31.1949H155.949C156.061 31.1949 156.15 31.2863 156.15 31.396V35.4892C156.15 35.601 156.059 35.6904 155.949 35.6904H142.863C142.751 35.6904 142.662 35.5989 142.662 35.4892V4.42328C142.662 4.31155 142.754 4.22217 142.865 4.22217Z" fill="#101D31"></path><path id="Vector_8" d="M169.216 29.5372H163.857C163.756 29.5372 163.67 29.6124 163.656 29.7119L162.85 35.5237C162.836 35.6232 162.75 35.6984 162.649 35.6984H158.476C158.352 35.6984 158.257 35.5867 158.277 35.4648L163.337 4.39273C163.354 4.29522 163.437 4.22412 163.536 4.22412H169.893C169.992 4.22412 170.075 4.29522 170.092 4.39273L175.152 35.4648C175.172 35.5887 175.077 35.6984 174.953 35.6984H170.421C170.319 35.6984 170.234 35.6232 170.22 35.5237L169.413 29.7119C169.403 29.6124 169.318 29.5372 169.216 29.5372ZM168.761 25.2429L166.547 9.60729C166.543 9.57276 166.492 9.57276 166.486 9.60729L164.316 25.2429C164.314 25.255 164.325 25.2652 164.337 25.2652H168.743C168.753 25.2652 168.761 25.255 168.761 25.2429Z" fill="#101D31"></path><path id="Vector_9" d="M177.35 4.22217H183.43C183.44 4.22217 183.446 4.22826 183.45 4.23639L188.378 22.8378C188.386 22.8723 188.437 22.8662 188.437 22.8297V4.24248C188.437 4.23232 188.445 4.22217 188.457 4.22217H192.823C192.833 4.22217 192.843 4.23029 192.843 4.24248V35.6782C192.843 35.6883 192.835 35.6985 192.823 35.6985H187.868C187.858 35.6985 187.852 35.6924 187.848 35.6843L181.796 12.947C181.788 12.9124 181.737 12.9185 181.737 12.9551V35.6802C181.737 35.6903 181.729 35.7005 181.717 35.7005H177.352C177.342 35.7005 177.331 35.6924 177.331 35.6802V4.24248C177.329 4.23029 177.337 4.22217 177.35 4.22217Z" fill="#101D31"></path></g></g></g><path id="Vector_10" d="M121.499 12.7876C121.476 12.7815 121.456 12.7754 121.438 12.7713C118.322 12.0461 115.309 13.0212 113.379 15.3776C113.044 15.7757 112.748 16.2064 112.492 16.6716C111.561 14.9246 110.04 13.6082 108.11 12.9643C106.798 12.5052 105.359 12.3975 103.832 12.6413L103.738 12.6576C103.505 12.6982 103.34 12.9115 103.363 13.1431C103.365 13.1654 103.367 13.1878 103.369 13.206C103.801 16.375 105.786 18.8431 108.677 19.806C109.219 19.9949 109.782 20.1249 110.365 20.194C111.506 21.8354 112.142 23.7733 112.142 25.7011C112.142 27.0845 111.84 28.4211 111.25 29.6785C110.619 26.8183 108.455 24.9474 105.713 24.9027C104.191 24.8784 103.044 23.8342 103.044 22.4732C103.044 22.268 103.048 22.0608 103.052 21.8415C103.066 21.1366 103.08 20.4073 102.962 19.6902C102.849 18.9975 102.536 17.9635 101.683 16.9743C101.297 16.5253 100.84 16.1394 100.324 15.8143C100.318 15.8103 100.311 15.8042 100.305 15.8001C99.7914 15.4324 99.3547 15.1298 98.9707 14.8636C97.823 14.0694 97.1933 13.6326 96.596 12.8993C95.4178 11.4489 95.5194 9.88878 95.6169 9.28546C95.621 9.26108 95.623 9.24686 95.623 9.24077C95.7571 6.95343 97.7072 4.43045 101.063 4.26185C103.905 4.2009 105.802 5.70007 106.895 6.96765C107.05 7.14641 107.322 7.16469 107.501 7.01031L110.251 4.64375C110.342 4.56452 110.395 4.45686 110.401 4.33904C110.407 4.21919 110.365 4.1034 110.281 4.01402C107.821 1.38744 104.594 0 100.945 0C97.9286 0 95.3528 0.895841 93.4941 2.59002C91.6476 4.27403 90.6725 6.59184 90.6725 9.29562C90.6725 10.5287 90.8553 11.5728 91.2494 12.5844C91.3632 12.9663 91.5318 13.3259 91.6821 13.6286C91.8507 13.9678 91.737 14.3822 91.4201 14.5894C87.4121 17.214 85.2061 21.1183 85.2061 25.5833C85.2061 29.4673 86.8515 33.0953 89.8417 35.7991C92.8359 38.509 96.8621 40 101.179 40C104.334 40 107.401 39.1773 110.046 37.6212C110.271 37.4872 110.566 37.5237 110.759 37.7086C112.449 39.3154 114.161 40 116.487 40H120.589C120.828 40 121.021 39.805 121.021 39.5673V36.116C121.021 35.8763 120.826 35.6833 120.589 35.6833H116.776C115.734 35.6833 114.566 35.1572 114.172 34.5112C114.06 34.3263 114.08 34.0785 114.224 33.8937C116.101 31.4865 117.093 28.6324 117.093 25.6401C117.093 23.6981 116.656 21.7338 115.825 19.8954C117.436 19.5054 118.878 18.6176 119.971 17.281C120.867 16.2186 121.483 14.9124 121.799 13.399L121.818 13.3076C121.862 13.0781 121.722 12.8485 121.499 12.7876ZM90.4612 24.1389C90.573 23.5681 90.701 23.0786 90.8391 22.6479C91.0544 22.0222 91.3388 21.4189 91.6841 20.844C91.932 20.4784 92.1879 20.194 92.4439 19.9421C92.5576 19.8304 92.708 19.7105 92.8684 19.5846L92.9131 19.548C93.8435 18.8106 95.3975 18.3597 96.7728 19.0117C98.4913 19.8263 99.2957 21.3966 98.9849 23.3183C98.8123 24.3827 98.7473 25.5325 99.4318 26.731C99.9823 27.6939 101.043 28.9635 103.897 28.9229C104.988 28.9046 105.648 28.8964 106.578 29.7781C107.285 30.4484 107.555 31.5657 107.269 32.6261C107.129 33.1441 106.834 33.6255 106.42 34.0216C105.674 34.7326 104.549 35.4842 101.886 35.6671C101.691 35.6772 101.494 35.6833 101.295 35.6833C98.3186 35.6833 95.5458 34.6351 93.486 32.7337C91.4505 30.8547 90.3292 28.3561 90.3292 25.697C90.3312 25.1709 90.3759 24.6488 90.4612 24.1389Z" fill="#D34602"></path></g></svg> 