<svg width="40" height="40" viewBox="0 0 40 40" fill="none" xmlns="http://www.w3.org/2000/svg">
<path d="M6.31036 7.67725C5.58416 7.67725 4.88773 7.96573 4.37423 8.47921C3.86075 8.99271 3.57227 9.68914 3.57227 10.4153V33.6892C3.57227 34.4153 3.86075 35.1119 4.37423 35.6253C4.88773 36.1387 5.58416 36.4272 6.31036 36.4272H33.6913C34.4175 36.4272 35.114 36.1387 35.6274 35.6253C36.1408 35.1119 36.4294 34.4153 36.4294 33.6892V10.4153C36.4294 9.68914 36.1408 8.99271 35.6274 8.47921C35.114 7.96573 34.4175 7.67725 33.6913 7.67725H6.31036Z" fill="#2E90FA"/>
<path d="M10.417 3.5708V11.7851" stroke="#C4E5FF" stroke-width="2" stroke-linecap="round" stroke-linejoin="round"/>
<path d="M29.584 3.5708V11.7851" stroke="#C4E5FF" stroke-width="2" stroke-linecap="round" stroke-linejoin="round"/>
<path d="M18.0998 15.8916C17.4538 15.8916 16.9301 16.4153 16.9301 17.0613V20.351H13.6404C12.9944 20.351 12.4707 20.8747 12.4707 21.5207V25.3221C12.4707 25.9681 12.9944 26.4918 13.6404 26.4918H16.9301V29.7814C16.9301 30.4273 17.4538 30.9511 18.0998 30.9511H21.9012C22.5472 30.9511 23.0709 30.4273 23.0709 29.7814V26.4918H26.3606C27.0065 26.4918 27.5302 25.9681 27.5302 25.3221V21.5207C27.5302 20.8747 27.0065 20.351 26.3606 20.351H23.0709V17.0613C23.0709 16.4153 22.5472 15.8916 21.9012 15.8916H18.0998Z" stroke="white" stroke-width="2" stroke-linecap="round" stroke-linejoin="round"/>
</svg>
