<svg width="40" height="40" viewBox="0 0 40 40" fill="none" xmlns="http://www.w3.org/2000/svg">
<path d="M21.2049 35.683C22.5721 36.5622 24.199 36.9472 25.8153 36.7741C27.4316 36.601 28.94 35.8803 30.0902 34.7316L31.0944 33.73C31.5388 33.2807 31.788 32.6744 31.788 32.0425C31.788 31.4106 31.5388 30.8043 31.0944 30.355L26.8712 26.1635C26.4264 25.7208 25.8244 25.4723 25.1969 25.4723C24.5694 25.4723 23.9674 25.7208 23.5227 26.1635C23.0733 26.6086 22.4664 26.8583 21.8339 26.8583C21.2014 26.8583 20.5944 26.6086 20.1451 26.1635L13.4243 19.4374C12.98 18.9881 12.7308 18.3818 12.7308 17.7499C12.7308 17.1181 12.98 16.5117 13.4243 16.0625C13.867 15.6177 14.1155 15.0157 14.1155 14.3882C14.1155 13.7607 13.867 13.1587 13.4243 12.714L9.36223 8.49333C8.91298 8.04901 8.30662 7.7998 7.67477 7.7998C7.04291 7.7998 6.43655 8.04901 5.9873 8.49333L4.98302 9.49761C3.81469 10.6317 3.07038 12.132 2.87416 13.7484C2.67795 15.3648 3.04168 16.9996 3.90473 18.3803C8.50331 25.2074 14.3777 31.0818 21.2049 35.6804V35.683Z" fill="#D7E0FF"/>
<path d="M27.2515 3.18359C26.9248 3.18359 26.6116 3.31335 26.3806 3.54431C26.1496 3.77528 26.0199 4.08853 26.0199 4.41517V7.87731H22.5577C22.396 7.87731 22.2359 7.90916 22.0864 7.97106C21.937 8.03295 21.8013 8.12366 21.6869 8.23803C21.5725 8.35239 21.4818 8.48816 21.4199 8.63758C21.358 8.787 21.3262 8.94715 21.3262 9.10888V13.1102C21.3262 13.792 21.8785 14.3417 22.5577 14.3417H26.0199V17.8039C26.0199 18.4857 26.5722 19.0355 27.2515 19.0355H31.2527C31.4145 19.0355 31.5746 19.0036 31.724 18.9417C31.8735 18.8798 32.0092 18.7891 32.1236 18.6747C32.238 18.5604 32.3287 18.4246 32.3906 18.2752C32.4525 18.1258 32.4843 17.9656 32.4843 17.8039V14.3444H35.9465C36.2731 14.3444 36.5863 14.2146 36.8173 13.9837C37.0483 13.7527 37.178 13.4394 37.178 13.1128V9.11152C37.178 8.78489 37.0483 8.47163 36.8173 8.24067C36.5863 8.00971 36.2731 7.87995 35.9465 7.87995H32.4843V4.41781C32.4843 4.09117 32.3546 3.77792 32.1236 3.54696C31.8926 3.31599 31.5794 3.18624 31.2527 3.18624H27.2515V3.18359Z" stroke="#C4E5FF" stroke-width="2" stroke-linecap="round" stroke-linejoin="round"/>
<path d="M21.2049 35.683C22.5721 36.5622 24.199 36.9472 25.8153 36.7741C27.4316 36.601 28.94 35.8803 30.0902 34.7316L31.0944 33.73C31.5388 33.2807 31.788 32.6744 31.788 32.0425C31.788 31.4106 31.5388 30.8043 31.0944 30.355L26.8712 26.1635C26.4264 25.7208 25.8244 25.4723 25.1969 25.4723C24.5694 25.4723 23.9674 25.7208 23.5227 26.1635C23.0733 26.6086 22.4664 26.8583 21.8339 26.8583C21.2014 26.8583 20.5944 26.6086 20.1451 26.1635L13.4243 19.4374C12.98 18.9881 12.7308 18.3818 12.7308 17.7499C12.7308 17.1181 12.98 16.5117 13.4243 16.0625C13.867 15.6177 14.1155 15.0157 14.1155 14.3882C14.1155 13.7607 13.867 13.1587 13.4243 12.714L9.36223 8.49333C8.91298 8.04901 8.30662 7.7998 7.67477 7.7998C7.04291 7.7998 6.43655 8.04901 5.9873 8.49333L4.98302 9.49761C3.81469 10.6317 3.07038 12.132 2.87416 13.7484C2.67795 15.3648 3.04168 16.9996 3.90473 18.3803C8.50331 25.2074 14.3777 31.0818 21.2049 35.6804V35.683Z" fill="#2E90FA"/>
</svg>
