<svg width="40" height="40" viewBox="0 0 40 40" fill="none" xmlns="http://www.w3.org/2000/svg">
<path fill-rule="evenodd" clip-rule="evenodd" d="M13.3929 5.46436H8.76788C8.06694 5.46436 7.39472 5.74281 6.89907 6.23843C6.40345 6.73408 6.125 7.40629 6.125 8.10724V34.5361C6.125 35.237 6.40345 35.9093 6.89907 36.4049C7.39472 36.9004 8.06694 37.179 8.76788 37.179H31.2324C31.9333 37.179 32.6056 36.9004 33.1012 36.4049C33.5967 35.9093 33.8753 35.237 33.8753 34.5361V8.10724C33.8753 7.40629 33.5967 6.73408 33.1012 6.23843C32.6056 5.74281 31.9333 5.46436 31.2324 5.46436H26.6073V6.7858C26.6073 8.24541 25.4241 9.42868 23.9645 9.42868H16.0358C14.5762 9.42868 13.3929 8.24541 13.3929 6.7858V5.46436Z" fill="#D7E0FF"/>
<path d="M27.2681 5.46436H31.2324C31.9333 5.46436 32.6056 5.74281 33.1012 6.23843C33.5967 6.73408 33.8753 7.40629 33.8753 8.10724V34.5361C33.8753 35.237 33.5967 35.9093 33.1012 36.4049C32.6056 36.9004 31.9333 37.179 31.2324 37.179H8.76788C8.06694 37.179 7.39472 36.9004 6.89907 36.4049C6.40345 35.9093 6.125 35.237 6.125 34.5361V8.10724C6.125 7.40629 6.40345 6.73408 6.89907 6.23843C7.39472 5.74281 8.06694 5.46436 8.76788 5.46436H12.7322" fill="#2E90FA"/>
<path d="M23.9641 2.82129H16.0355C14.5759 2.82129 13.3926 4.00455 13.3926 5.46417V6.78561C13.3926 8.24523 14.5759 9.4285 16.0355 9.4285H23.9641C25.4237 9.4285 26.607 8.24523 26.607 6.78561V5.46417C26.607 4.00455 25.4237 2.82129 23.9641 2.82129Z" fill="white"/>
<path d="M23.9641 2.82129H16.0355C14.5759 2.82129 13.3926 4.00455 13.3926 5.46417V6.78561C13.3926 8.24523 14.5759 9.4285 16.0355 9.4285H23.9641C25.4237 9.4285 26.607 8.24523 26.607 6.78561V5.46417C26.607 4.00455 25.4237 2.82129 23.9641 2.82129Z" fill="#C4E5FF"/>
<path d="M26.607 25.2139H13.3926" stroke="white" stroke-width="2" stroke-linecap="round" stroke-linejoin="round"/>
<path d="M26.607 17.499H13.3926" stroke="white" stroke-width="2" stroke-linecap="round" stroke-linejoin="round"/>
</svg>
