<svg width="40" height="40" viewBox="0 0 40 40" fill="none" xmlns="http://www.w3.org/2000/svg">
<path d="M37.7975 35.0597V18.6312C37.7975 17.119 36.5717 15.8931 35.0594 15.8931H21.369C19.8568 15.8931 18.6309 17.119 18.6309 18.6312V35.0597C18.6309 36.572 19.8568 37.7978 21.369 37.7978H35.0594C36.5717 37.7978 37.7975 36.572 37.7975 35.0597Z" fill="#2E90FA"/>
<path d="M24.1074 23.4229H32.3217" stroke="white" stroke-width="2" stroke-linecap="round" stroke-linejoin="round"/>
<path d="M24.1074 30.2681H32.3217" stroke="white" stroke-width="2" stroke-linecap="round" stroke-linejoin="round"/>
<path d="M15.8933 7.67883H10.4171C8.90492 7.67883 7.67902 6.45293 7.67902 4.94073C7.67902 3.42852 8.90492 2.20264 10.4171 2.20264H15.8933C17.4055 2.20264 18.6314 3.42852 18.6314 4.94073C18.6314 6.45293 17.4055 7.67883 15.8933 7.67883Z" fill="#C4E5FF"/>
<path d="M10.4173 9.34573H15.8935C18.326 9.34573 20.2981 7.37382 20.2982 4.94131H21.3698C22.882 4.94131 24.1079 6.16721 24.1079 7.67941V10.4175H19.8222C16.1403 10.4175 13.1555 13.4023 13.1555 17.0842V29.5842H4.94122C3.42901 29.5842 2.20312 28.3583 2.20312 26.8461V7.67941C2.20312 6.16721 3.42901 4.94131 4.94122 4.94131H6.01253C6.01272 7.37382 7.98474 9.34573 10.4173 9.34573Z" fill="#C4E5FF"/>
<path d="M7.67902 4.94073C7.67902 6.45293 8.90492 7.67883 10.4171 7.67883H15.8933C17.4055 7.67883 18.6314 6.45293 18.6314 4.94073H7.67902Z" fill="#C4E5FF"/>
</svg>
