<svg width="40" height="40" viewBox="0 0 40 40" fill="none" xmlns="http://www.w3.org/2000/svg">
<path d="M28.8012 21.9553C28.8012 17.0947 24.8609 13.1543 20.0003 13.1543C15.1396 13.1543 11.1992 17.0947 11.1992 21.9553V28.9961C11.1992 33.8568 15.1396 37.7972 20.0003 37.7972C24.8609 37.7972 28.8012 33.8568 28.8012 28.9961V21.9553Z" fill="#2E90FA"/>
<path d="M20 19.1196V23.129" stroke="white" stroke-width="2" stroke-linecap="round" stroke-linejoin="round"/>
<path d="M14.2168 8.62182C15.9751 7.80628 17.9346 7.35107 20.0004 7.35107C22.0661 7.35107 24.0256 7.80628 25.7839 8.62182" stroke="#C4E5FF" stroke-width="2" stroke-linecap="round" stroke-linejoin="round"/>
<path d="M10.2598 4.90777C13.1031 3.19038 16.4364 2.20215 20.0004 2.20215C23.5645 2.20215 26.8977 3.19038 29.741 4.90777" stroke="#C4E5FF" stroke-width="2" stroke-linecap="round" stroke-linejoin="round"/>
</svg>
