<svg width="40" height="40" viewBox="0 0 40 40" fill="none" xmlns="http://www.w3.org/2000/svg">
<path d="M30.7756 27.9282H33.2141L37.1784 37.1782H2.82129L6.78557 27.9282H9.22414" stroke="#C4E5FF" stroke-width="2" stroke-linecap="round" stroke-linejoin="round"/>
<path d="M31.8931 14.7141C31.8931 22.6427 20.0003 31.8927 20.0003 31.8927C20.0003 31.8927 8.10742 22.6427 8.10742 14.7141C8.10742 8.2365 13.5226 2.82129 20.0003 2.82129C26.4779 2.82129 31.8931 8.2365 31.8931 14.7141Z" fill="#2E90FA"/>
<path d="M19.9994 18.6786C22.1889 18.6786 23.9637 16.9037 23.9637 14.7143C23.9637 12.5249 22.1889 10.75 19.9994 10.75C17.81 10.75 16.0352 12.5249 16.0352 14.7143C16.0352 16.9037 17.81 18.6786 19.9994 18.6786Z" fill="white"/>
</svg>
