<svg width="40" height="40" viewBox="0 0 40 40" fill="none" xmlns="http://www.w3.org/2000/svg">
<path d="M25.7951 2.20215C24.9729 2.20215 24.3064 2.86865 24.3064 3.69082V7.87778H20.1195C19.2974 7.87778 18.6309 8.54429 18.6309 9.36646V14.2046C18.6309 15.0268 19.2974 15.6933 20.1195 15.6933H24.3064V19.8801C24.3064 20.7023 24.9729 21.3688 25.7951 21.3688H30.6333C31.4555 21.3688 32.122 20.7023 32.122 19.8801V15.6933H36.3088C37.1311 15.6933 37.7975 15.0268 37.7975 14.2046V9.36646C37.7975 8.54429 37.1311 7.87778 36.3088 7.87778H32.122V3.69082C32.122 2.86865 31.4555 2.20215 30.6333 2.20215H25.7951Z" fill="#2E90FA"/>
<path d="M10.4164 28.2144L12.47 30.268C13.2222 31.0202 14.2845 31.2735 15.2455 31.0279C15.7334 30.9032 16.1952 30.6499 16.5771 30.268C17.7113 29.1338 17.7113 27.295 16.5771 26.1608L13.3894 22.9731C12.3624 21.9461 10.9696 21.3691 9.51716 21.3691H2.20215" fill="#C4E5FF"/>
<path d="M2.20215 30.9525L8.89331 36.5283C9.87747 37.3487 11.118 37.7977 12.3991 37.7977H30.0395C31.2996 37.7977 32.3212 36.7761 32.3212 35.5161C32.3212 32.9956 30.278 30.9525 27.7577 30.9525L15.2455 31.0279C15.7334 30.9032 16.1952 30.6499 16.5771 30.268C17.7113 29.1338 17.7113 27.295 16.5771 26.1608L13.3894 22.9731C12.3624 21.9461 10.9696 21.3691 9.51716 21.3691H2.20215V30.9525Z" fill="#C4E5FF"/>
</svg>
