<svg width="40" height="40" viewBox="0 0 40 40" fill="none" xmlns="http://www.w3.org/2000/svg">
<path d="M25.7147 38.4373L22.8576 31.2944H17.1433L14.2861 38.4373H25.7147Z" fill="#2E90FA"/>
<path d="M35.7144 5.58008H2.85728C2.4784 5.58008 2.11504 5.73059 1.84713 5.9985C1.57922 6.26641 1.42871 6.62977 1.42871 7.00865V29.8658C1.42871 30.2447 1.57922 30.608 1.84713 30.8759C2.11504 31.1439 2.4784 31.2944 2.85728 31.2944H37.143C37.5219 31.2944 37.8852 31.1439 38.1532 30.8759C38.4211 30.608 38.5716 30.2447 38.5716 29.8658V8.43722C38.5716 7.67946 38.2705 6.95273 37.7347 6.41692C37.1989 5.8811 36.4722 5.58008 35.7144 5.58008Z" fill="#2E90FA"/>
<path d="M11.4287 38.4375H28.5716" stroke="#2E90FA" stroke-linecap="round" stroke-linejoin="round"/>
<path d="M36.1114 14.6059C36.1114 15.2916 35.5543 15.8488 34.8686 15.8488H21.24C20.9109 15.848 20.5955 15.7167 20.363 15.4837C20.1306 15.2507 20 14.935 20 14.6059V2.8059C20 2.47627 20.1309 2.16015 20.364 1.92706C20.5971 1.69398 20.9132 1.56304 21.2429 1.56304H25.8257C26.1094 1.55468 26.3874 1.64366 26.6135 1.81518C26.8396 1.98671 27.0002 2.23045 27.0686 2.5059L27.4171 4.04875H34.8686C35.1977 4.04875 35.5134 4.1793 35.7464 4.41177C35.9794 4.64423 36.1107 4.95962 36.1114 5.28875V14.6059Z" fill="#C4E5FF"/>
</svg>
