<svg width="40" height="40" viewBox="0 0 40 40" fill="none" xmlns="http://www.w3.org/2000/svg">
<path d="M15.1896 25.6475C13.6768 24.5919 12.429 23.2002 11.544 21.5816C10.6591 19.9631 10.161 18.1615 10.0889 16.3182C10.1489 14.4613 10.6412 12.644 11.5266 11.0108C12.4121 9.37749 13.6663 7.97326 15.1896 6.90967" stroke="#C4E5FF" stroke-width="2" stroke-linecap="round" stroke-linejoin="round"/>
<path d="M9.957 29.4526C7.81558 27.9631 6.05414 25.991 4.81466 23.6957C3.57521 21.4004 2.8924 18.8459 2.82129 16.2383C2.91585 13.6606 3.60709 11.1399 4.8407 8.87449C6.07428 6.60908 7.81658 4.66072 9.93058 3.18262" stroke="#C4E5FF" stroke-width="2" stroke-linecap="round" stroke-linejoin="round"/>
<path d="M24.8096 25.6475C26.3293 24.5866 27.5814 23.1865 28.4667 21.5582C29.3521 19.9298 29.8463 18.1177 29.9103 16.2654C29.8421 14.4175 29.346 12.6107 28.4609 10.9873C27.5758 9.36377 26.3259 7.96795 24.8096 6.90967" stroke="#C4E5FF" stroke-width="2" stroke-linecap="round" stroke-linejoin="round"/>
<path d="M30.043 29.4526C32.1845 27.9628 33.9457 25.9909 35.1852 23.6956C36.4247 21.4003 37.1076 18.8458 37.1787 16.2382C37.1084 13.6333 36.4289 11.0811 35.1942 8.78631C33.9597 6.49149 32.2043 4.51793 30.0694 3.02393" stroke="#C4E5FF" stroke-width="2" stroke-linecap="round" stroke-linejoin="round"/>
<path d="M19.9994 20.3617C22.1889 20.3617 23.9637 18.5868 23.9637 16.3974C23.9637 14.208 22.1889 12.4331 19.9994 12.4331C17.81 12.4331 16.0352 14.208 16.0352 16.3974C16.0352 18.5868 17.81 20.3617 19.9994 20.3617Z" fill="#2E90FA"/>
<path d="M19.9994 20.3617V37.1681Z" fill="#2E90FA"/>
<path d="M19.9994 20.3617C22.1889 20.3617 23.9637 18.5868 23.9637 16.3974C23.9637 14.208 22.1889 12.4331 19.9994 12.4331C17.81 12.4331 16.0352 14.208 16.0352 16.3974C16.0352 18.5868 17.81 20.3617 19.9994 20.3617ZM19.9994 20.3617V37.1681" stroke="#2E90FA" stroke-width="2" stroke-linecap="round" stroke-linejoin="round"/>
</svg>
