<svg width="40" height="40" viewBox="0 0 40 40" fill="none" xmlns="http://www.w3.org/2000/svg">
<path d="M12.4538 35.4365C14.7316 36.5521 17.2926 37.1784 19.9999 37.1784C29.4875 37.1784 37.1784 29.4875 37.1784 19.9999C37.1784 10.5124 29.4875 2.82129 19.9999 2.82129C10.5124 2.82129 2.82129 10.5124 2.82129 19.9999C2.82129 23.5218 3.88113 26.7961 5.69925 29.5213M12.4538 35.4365L2.82129 37.1784L5.69925 29.5213M12.4538 35.4365L12.4677 35.4341ZM5.69925 29.5213L5.702 29.5141Z" fill="#2E90FA"/>
<path d="M26.6063 23.9632C28.7956 23.9632 30.5706 22.1884 30.5706 19.999C30.5706 17.8095 28.7956 16.0347 26.6063 16.0347C24.4169 16.0347 22.642 17.8095 22.642 19.999C22.642 22.1884 24.4169 23.9632 26.6063 23.9632ZM26.6063 23.9632H13.392M13.392 23.9632C15.5814 23.9632 17.3563 22.1884 17.3563 19.999C17.3563 17.8095 15.5814 16.0347 13.392 16.0347C11.2026 16.0347 9.42773 17.8095 9.42773 19.999C9.42773 22.1884 11.2026 23.9632 13.392 23.9632Z" stroke="white" stroke-width="2" stroke-linecap="round" stroke-linejoin="round"/>
</svg>
