<svg width="40" height="40" viewBox="0 0 40 40" fill="none" xmlns="http://www.w3.org/2000/svg">
<path d="M20 37.5C29.6651 37.5 37.5 29.6651 37.5 20C37.5 10.335 29.6651 2.5 20 2.5C10.335 2.5 2.5 10.335 2.5 20C2.5 29.6651 10.335 37.5 20 37.5Z" fill="#2E90FA"/>
<path d="M23.2719 26.6672H16.7269C13.9318 26.6672 11.666 24.4014 11.666 21.6064V16.6874C11.666 15.7558 12.4213 15.0005 13.353 15.0005H26.6457C27.5774 15.0005 28.3327 15.7558 28.3327 16.6874V21.6064C28.3327 24.4014 26.0669 26.6672 23.2719 26.6672Z" stroke="white" stroke-width="2" stroke-linecap="round" stroke-linejoin="round"/>
<path d="M15.832 15.0003V9.16699" stroke="white" stroke-width="2" stroke-linecap="round" stroke-linejoin="round"/>
<path d="M24.167 15.0003V9.16699" stroke="white" stroke-width="2" stroke-linecap="round" stroke-linejoin="round"/>
<path d="M19.999 26.667L19.999 31.667" stroke="white" stroke-width="2" stroke-linecap="round" stroke-linejoin="round"/>
</svg>
