<svg width="40" height="40" viewBox="0 0 40 40" fill="none" xmlns="http://www.w3.org/2000/svg">
<path d="M13.8391 32.3212H4.94024C3.42803 32.3212 2.20215 31.0954 2.20215 29.5831V4.94024C2.20215 3.42804 3.42803 2.20215 4.94024 2.20215H13.7548C15.0112 2.20215 16.1064 3.05725 16.4111 4.27615L17.2617 7.67834H35.0593C36.5715 7.67834 37.7974 8.90424 37.7974 10.4164V24.1069" fill="#C4E5FF"/>
<path d="M13.8391 32.3212H4.94024C3.42803 32.3212 2.20215 31.0954 2.20215 29.5831V4.94024C2.20215 3.42804 3.42803 2.20215 4.94024 2.20215H13.7548C15.0112 2.20215 16.1064 3.05725 16.4111 4.27615L17.2617 7.67834H35.0593C36.5715 7.67834 37.7974 8.90424 37.7974 10.4164V24.1069V29.8212C37.7974 31.2019 36.6781 32.3212 35.2974 32.3212H13.8391Z" fill="#C4E5FF"/>
<path d="M37.5933 35.3603C37.7274 35.6083 37.7978 35.886 37.7978 36.168C37.7978 36.45 37.7274 36.7277 37.5933 36.9757C37.467 37.223 37.2748 37.4305 37.0383 37.5756C36.8014 37.7205 36.5292 37.7972 36.2516 37.7972H20.179C19.9013 37.7972 19.6291 37.7205 19.3923 37.5756C19.1556 37.4305 18.9635 37.223 18.8373 36.9757C18.7031 36.7277 18.6328 36.45 18.6328 36.168C18.6328 35.886 18.7031 35.6083 18.8373 35.3603L26.9147 20.7936C27.0257 20.5216 27.2151 20.2888 27.459 20.1249C27.7028 19.961 27.9899 19.8735 28.2838 19.8735C28.5775 19.8735 28.8648 19.961 29.1085 20.1249C29.3524 20.2888 29.5419 20.5216 29.6528 20.7936L37.5933 35.3603Z" fill="white" stroke="#2E90FA" stroke-width="2" stroke-linecap="round" stroke-linejoin="round"/>
<path d="M28.2285 29.9701V27.2319" stroke="#2E90FA" stroke-width="2" stroke-linecap="round" stroke-linejoin="round"/>
<path d="M28.2157 34.0332C28.0264 34.0332 27.873 33.8799 27.873 33.6907C27.873 33.5015 28.0264 33.3481 28.2157 33.3481" stroke="#2E90FA" stroke-width="2" stroke-linecap="round" stroke-linejoin="round"/>
<path d="M28.2148 34.0325C28.404 34.0325 28.5574 33.8791 28.5574 33.6902C28.5574 33.501 28.404 33.3477 28.2148 33.3477" stroke="#2E90FA" stroke-width="2" stroke-linecap="round" stroke-linejoin="round"/>
</svg>
