<svg width="40" height="40" viewBox="0 0 40 40" fill="none" xmlns="http://www.w3.org/2000/svg">
<path d="M26.6782 14.3063C24.6363 12.8611 22.3641 12.0543 20.0413 11.9497C17.7242 12.0609 15.4586 12.8709 13.4229 14.3158" stroke="#C4E5FF" stroke-width="2" stroke-linecap="round" stroke-linejoin="round"/>
<path d="M7.04395 8.9752C8.1572 8.03075 9.37006 7.20232 10.6644 6.50595C13.542 4.95782 16.7423 4.10558 20.0087 4.01758C23.2785 4.10675 26.4817 4.96295 29.3598 6.51719C30.6453 7.21128 31.8496 8.03591 32.9557 8.9752" stroke="#C4E5FF" stroke-width="2" stroke-linecap="round" stroke-linejoin="round"/>
<path d="M29.4948 30.9742H32.9459V33.2748C32.9459 35.1808 31.4009 36.7259 29.4948 36.7259H27.1942C25.2882 36.7259 23.7432 35.1808 23.7432 33.2748V26.3729C23.7432 24.4669 25.2882 22.9219 27.1942 22.9219H29.4948C30.9973 22.9219 32.2757 23.8822 32.7495 25.2226" stroke="#2E90FA" stroke-width="3.5" stroke-linecap="round" stroke-linejoin="round"/>
<path d="M17.5473 33.2748H6.88009C6.41831 33.2748 6.04395 32.9006 6.04395 32.4386C6.04395 32.2362 6.11744 32.0406 6.25083 31.8881L13.8599 23.1921C14.0101 23.0204 14.2272 22.9219 14.4553 22.9219C14.8924 22.9219 15.2466 23.2762 15.2466 23.7131V36.7259" stroke="#2E90FA" stroke-width="3.5" stroke-linecap="round" stroke-linejoin="round"/>
</svg>
