<svg width="40" height="40" viewBox="0 0 40 40" fill="none" xmlns="http://www.w3.org/2000/svg">
<path d="M27.915 27.9155L35.8569 35.8574" stroke="#C4E5FF" stroke-width="2" stroke-linecap="round" stroke-linejoin="round"/>
<path d="M2.82129 17.3572C2.82129 21.2123 4.35274 24.9096 7.07874 27.6356C9.80475 30.3616 13.502 31.893 17.3572 31.893C21.2123 31.893 24.9096 30.3616 27.6356 27.6356C30.3616 24.9096 31.893 21.2123 31.893 17.3572C31.893 13.502 30.3616 9.80475 27.6356 7.07874C24.9096 4.35274 21.2123 2.82129 17.3572 2.82129C13.502 2.82129 9.80475 4.35274 7.07874 7.07874C4.35274 9.80475 2.82129 13.502 2.82129 17.3572Z" fill="#2E90FA"/>
<path d="M8.14941 17.7696H12.193L14.9205 12.5684L19.0513 22.1488L22.6007 17.7696H26.565" stroke="white" stroke-width="2" stroke-linecap="round" stroke-linejoin="round"/>
</svg>
