<svg width="40" height="40" viewBox="0 0 40 40" fill="none" xmlns="http://www.w3.org/2000/svg">
<path d="M37.1784 16.0355C37.1784 15.685 37.0392 15.3489 36.7915 15.1011C36.5436 14.8533 36.2074 14.7141 35.857 14.7141H34.5356V10.7498C34.5356 10.0489 34.257 9.37664 33.7615 8.881C33.2659 8.38539 32.5936 8.10693 31.8927 8.10693H5.46415C4.76321 8.10693 4.091 8.38539 3.59536 8.881C3.09973 9.37664 2.82129 10.0489 2.82129 10.7498V29.2498C2.82129 29.9507 3.09973 30.623 3.59536 31.1186C4.091 31.6141 4.76321 31.8926 5.46415 31.8926H31.8927C32.5936 31.8926 33.2659 31.6141 33.7615 31.1186C34.257 30.623 34.5356 29.9507 34.5356 29.2498V25.2855H35.857C36.2074 25.2855 36.5436 25.1463 36.7915 24.8985C37.0392 24.6507 37.1784 24.3145 37.1784 23.9641V16.0355Z" fill="#2E90FA"/>
<path d="M10.0889 14.7139V25.2853" stroke="white" stroke-width="2" stroke-linecap="round" stroke-linejoin="round"/>
<path d="M18.0176 14.7139V25.2853" stroke="white" stroke-width="2" stroke-linecap="round" stroke-linejoin="round"/>
<path d="M25.9463 14.7139V25.2853" stroke="white" stroke-width="2" stroke-linecap="round" stroke-linejoin="round"/>
</svg>
