<svg width="40" height="40" viewBox="0 0 40 40" fill="none" xmlns="http://www.w3.org/2000/svg">
<path d="M13.1553 8.3623H26.8457" stroke="#C4E5FF" stroke-width="2" stroke-linecap="round" stroke-linejoin="round"/>
<path d="M27.6479 12.3516L12.3535 27.646" stroke="#C4E5FF" stroke-width="2" stroke-linecap="round" stroke-linejoin="round"/>
<path d="M13.1553 31.6357H36.4291" stroke="#C4E5FF" stroke-width="2" stroke-linecap="round" stroke-linejoin="round"/>
<path d="M30.9531 37.1125L36.4293 31.6363L30.9531 26.1602" stroke="#C4E5FF" stroke-width="2.5" stroke-linecap="round" stroke-linejoin="round"/>
<path d="M33.6909 3.5708H29.5838C28.0716 3.5708 26.8457 4.7967 26.8457 6.3089V10.416C26.8457 11.9282 28.0716 13.1541 29.5838 13.1541H33.6909C35.2032 13.1541 36.429 11.9282 36.429 10.416V6.3089C36.429 4.7967 35.2032 3.5708 33.6909 3.5708Z" fill="#2E90FA"/>
<path d="M3.57227 33.689V29.5818C3.57227 28.0696 4.79817 26.8438 6.31036 26.8438H10.4175C11.9297 26.8438 13.1556 28.0696 13.1556 29.5818V33.689C13.1556 35.2012 11.9297 36.4271 10.4175 36.4271H6.31036C4.79817 36.4271 3.57227 35.2012 3.57227 33.689Z" fill="#2E90FA"/>
<path d="M3.57227 10.416V6.3089C3.57227 4.7967 4.79817 3.5708 6.31036 3.5708H10.4175C11.9297 3.5708 13.1556 4.7967 13.1556 6.3089V10.416C13.1556 11.9282 11.9297 13.1541 10.4175 13.1541H6.31036C4.79817 13.1541 3.57227 11.9282 3.57227 10.416Z" fill="#2E90FA"/>
</svg>
