<svg width="40" height="40" viewBox="0 0 40 40" fill="none" xmlns="http://www.w3.org/2000/svg">
<path d="M36.4291 28.2139V33.6901C36.4291 34.4162 36.1405 35.1128 35.6271 35.6262C35.1137 36.1396 34.4172 36.4282 33.691 36.4282H28.2148" stroke="#C4E5FF" stroke-width="2" stroke-linecap="round" stroke-linejoin="round"/>
<path d="M28.2148 3.57178H33.691C34.4172 3.57178 35.1137 3.86026 35.6271 4.37374C36.1405 4.88724 36.4291 5.58367 36.4291 6.30987V11.7861" stroke="#C4E5FF" stroke-width="2" stroke-linecap="round" stroke-linejoin="round"/>
<path d="M3.57227 11.7861V6.30987C3.57227 5.58367 3.86075 4.88724 4.37423 4.37374C4.88773 3.86026 5.58416 3.57178 6.31036 3.57178H11.7866" stroke="#C4E5FF" stroke-width="2" stroke-linecap="round" stroke-linejoin="round"/>
<path d="M11.7866 36.4282H6.31036C5.58416 36.4282 4.88773 36.1396 4.37423 35.6262C3.86075 35.1128 3.57227 34.4162 3.57227 33.6901V28.2139" stroke="#C4E5FF" stroke-width="2" stroke-linecap="round" stroke-linejoin="round"/>
<path d="M9.73242 17.9482C9.73242 19.0269 9.94489 20.095 10.3577 21.0916C10.7705 22.0882 11.3756 22.9938 12.1383 23.7565C12.9011 24.5193 13.8066 25.1244 14.8032 25.5372C15.7998 25.95 16.868 26.1625 17.9467 26.1625C19.0254 26.1625 20.0936 25.95 21.0902 25.5372C22.0868 25.1244 22.9923 24.5193 23.7551 23.7565C24.5179 22.9938 25.1229 22.0882 25.5357 21.0916C25.9485 20.095 26.161 19.0269 26.161 17.9482C26.161 16.8695 25.9485 15.8013 25.5357 14.8047C25.1229 13.8081 24.5179 12.9026 23.7551 12.1398C22.9923 11.377 22.0868 10.772 21.0902 10.3592C20.0936 9.94636 19.0254 9.73389 17.9467 9.73389C16.868 9.73389 15.7998 9.94636 14.8032 10.3592C13.8066 10.772 12.9011 11.377 12.1383 12.1398C11.3756 12.9026 10.7705 13.8081 10.3577 14.8047C9.94489 15.8013 9.73242 16.8695 9.73242 17.9482Z" stroke="#2E90FA" stroke-width="2" stroke-linecap="round" stroke-linejoin="round"/>
<path d="M24.1074 24.1089L29.5836 29.5851" stroke="#2E90FA" stroke-width="2" stroke-linecap="round" stroke-linejoin="round"/>
</svg>
