<svg width="40" height="40" viewBox="0 0 40 40" fill="none" xmlns="http://www.w3.org/2000/svg">
<path d="M26.605 4.94092H13.3948C13.3353 5.15886 13.3035 5.38826 13.3035 5.62509C13.3035 7.05513 14.4627 8.21438 15.8928 8.21438H24.107C25.5371 8.21438 26.6963 7.05513 26.6963 5.62509C26.6963 5.38826 26.6645 5.15886 26.605 4.94092Z" fill="#2E90FA"/>
<path d="M28.3083 4.94092C28.3443 5.16366 28.363 5.39219 28.363 5.62509C28.363 7.9756 26.4575 9.88105 24.107 9.88105H15.8928C13.5422 9.88105 11.6368 7.9756 11.6368 5.62509C11.6368 5.39219 11.6555 5.16366 11.6915 4.94092H7.67852C6.1663 4.94092 4.94043 6.16682 4.94043 7.67901V35.06C4.94043 36.5722 6.16633 37.7981 7.67852 37.7981H32.3214C33.8336 37.7981 35.0595 36.5722 35.0595 35.06V7.67901C35.0595 6.16682 33.8336 4.94092 32.3214 4.94092H28.3083Z" fill="#2E90FA"/>
<path d="M14.5234 24.7914L18.6306 27.5295L26.8449 16.5771" stroke="white" stroke-width="2" stroke-linecap="round" stroke-linejoin="round"/>
<path fill-rule="evenodd" clip-rule="evenodd" d="M15.893 3.03564C14.463 3.03564 13.3037 4.1949 13.3037 5.62493C13.3037 7.05496 14.463 8.21422 15.893 8.21422H24.1073C25.5373 8.21422 26.6966 7.05496 26.6966 5.62493C26.6966 4.1949 25.5373 3.03564 24.1073 3.03564H15.893Z" fill="#2E90FA"/>
</svg>
