<svg width="40" height="40" viewBox="0 0 40 40" fill="none" xmlns="http://www.w3.org/2000/svg">
<path d="M26.6067 2.82129C23.803 2.82129 21.1141 3.93506 19.1316 5.91759C17.1491 7.90012 16.0353 10.589 16.0353 13.3927C16.0429 14.8264 16.3302 16.2448 16.881 17.5684L14.7139 22.6427L20.3696 21.9291C21.7176 22.9139 23.2797 23.5653 24.9279 23.8302C26.5761 24.0951 28.2636 23.9659 29.8523 23.4531C31.441 22.9404 32.8857 22.0587 34.068 20.8802C35.2504 19.7018 36.1369 18.26 36.6549 16.6731C37.1729 15.0861 37.3077 13.399 37.0483 11.7499C36.7889 10.1008 36.1426 8.53663 35.1624 7.18535C34.1822 5.83407 32.8959 4.73414 31.4088 3.97561C29.9217 3.21708 28.2761 2.82151 26.6067 2.82129Z" fill="white"/>
<path fill-rule="evenodd" clip-rule="evenodd" d="M5.46415 2.82129H23.9641C24.2707 2.82129 24.5667 2.87415 24.8389 2.96929C22.3768 3.38697 20.142 4.66281 18.5306 6.57072C16.9193 8.47863 16.0354 10.8954 16.0356 13.3927C16.0432 14.8264 16.3305 16.2448 16.8813 17.5684L14.7141 22.6427L20.3699 21.9291C22.1805 23.2518 24.3648 23.9644 26.607 23.9641V34.5356C26.607 35.2365 26.3286 35.9087 25.8329 36.4044C25.3373 36.9 24.6651 37.1784 23.9641 37.1784H5.46415C4.76322 37.1784 4.091 36.9 3.59536 36.4044C3.09973 35.9087 2.82129 35.2365 2.82129 34.5356V5.46415C2.82129 4.76322 3.09973 4.091 3.59536 3.59536C4.091 3.09973 4.76322 2.82129 5.46415 2.82129Z" fill="#C4E5FF"/>
<path d="M26.6074 8.10693V12.0712" stroke="#2E90FA" stroke-width="2" stroke-linecap="round" stroke-linejoin="round"/>
<path d="M26.607 18.0177C26.4318 18.0177 26.2637 17.9481 26.1398 17.8242C26.0159 17.7003 25.9463 17.5322 25.9463 17.357C25.9463 17.1818 26.0159 17.0137 26.1398 16.8898C26.2637 16.7659 26.4318 16.6963 26.607 16.6963" stroke="#2E90FA" stroke-width="2" stroke-linecap="round" stroke-linejoin="round"/>
<path d="M26.6074 18.0177C26.7827 18.0177 26.9507 17.9481 27.0746 17.8242C27.1985 17.7003 27.2681 17.5322 27.2681 17.357C27.2681 17.1818 27.1985 17.0137 27.0746 16.8898C26.9507 16.7659 26.7827 16.6963 26.6074 16.6963" stroke="#2E90FA" stroke-width="2" stroke-linecap="round" stroke-linejoin="round"/>
<path d="M26.6067 2.82129C23.803 2.82129 21.1141 3.93506 19.1316 5.91759C17.1491 7.90012 16.0353 10.589 16.0353 13.3927C16.0429 14.8264 16.3302 16.2448 16.881 17.5684L14.7139 22.6427L20.3696 21.9291C21.7176 22.9139 23.2797 23.5653 24.9279 23.8302C26.5761 24.0951 28.2636 23.9659 29.8523 23.4531C31.441 22.9404 32.8857 22.0587 34.068 20.8802C35.2504 19.7018 36.1369 18.26 36.6549 16.6731C37.1729 15.0861 37.3077 13.399 37.0483 11.7499C36.7889 10.1008 36.1426 8.53663 35.1624 7.18535C34.1822 5.83407 32.8959 4.73414 31.4088 3.97561C29.9217 3.21708 28.2761 2.82151 26.6067 2.82129Z" stroke="#2E90FA" stroke-width="2" stroke-linecap="round" stroke-linejoin="round"/>
<path d="M13.3926 30.5713H16.0354" stroke="white" stroke-width="2" stroke-linecap="round" stroke-linejoin="round"/>
</svg>
