<svg width="40" height="40" viewBox="0 0 40 40" fill="none" xmlns="http://www.w3.org/2000/svg">
<path d="M35.0595 35.0593C35.0595 35.7854 34.7709 36.482 34.2575 36.9954C33.7441 37.5088 33.0475 37.7974 32.3214 37.7974H7.67852C6.95233 37.7974 6.25589 37.5088 5.74239 36.9954C5.22892 36.482 4.94043 35.7854 4.94043 35.0593V4.94024C4.94043 4.21405 5.22892 3.51761 5.74239 3.00412C6.25589 2.49063 6.95233 2.20215 7.67852 2.20215H22.9729C23.6991 2.20215 24.3956 2.49063 24.9091 3.00412L34.2575 12.3526C34.7709 12.866 35.0595 13.5625 35.0595 14.2887V35.0593Z" fill="#2E90FA"/>
<path d="M10.417 17.0974C10.9175 16.1454 11.6209 15.3586 12.4597 14.8127C13.2984 14.2667 14.2442 13.98 15.2062 13.98C16.1682 13.98 17.114 14.2667 17.9528 14.8127C18.7915 15.3586 19.495 16.1454 19.9955 17.0974" stroke="white" stroke-width="2" stroke-linecap="round" stroke-linejoin="round"/>
<path d="M12.0527 10.829C12.0527 12.5686 13.4629 13.9788 15.2025 13.9788C15.6423 13.9788 16.061 13.8887 16.4413 13.7259C17.565 13.2448 18.3524 12.1289 18.3524 10.829C18.3524 9.08943 16.9421 7.6792 15.2025 7.6792C13.4629 7.6792 12.0527 9.08943 12.0527 10.829Z" stroke="white" stroke-width="2" stroke-linecap="round" stroke-linejoin="round"/>
<path d="M10.417 24.1069H29.5837" stroke="white" stroke-width="2" stroke-linecap="round" stroke-linejoin="round"/>
<path d="M10.417 30.9521H21.3694" stroke="white" stroke-width="2" stroke-linecap="round" stroke-linejoin="round"/>
</svg>
