<svg width="40" height="40" viewBox="0 0 40 40" fill="none" xmlns="http://www.w3.org/2000/svg">
<path fill-rule="evenodd" clip-rule="evenodd" d="M20.7244 1.90885C20.2907 1.58572 19.7092 1.58572 19.2755 1.90885C15.5808 4.66135 11.7595 6.9939 6.35104 6.53473C6.0031 6.50519 5.65921 6.62941 5.40259 6.87733C5.14596 7.12524 5 7.47426 5 7.83996V17.5678C5 27.8234 10.6543 35.3644 19.6303 38.2744C19.871 38.3527 20.1287 38.3527 20.3695 38.2744C29.3455 35.3644 35 27.8234 35 17.5678V7.83996C35 7.47426 34.854 7.12524 34.5972 6.87733C34.3407 6.62941 33.9967 6.50519 33.6489 6.53473C28.2404 6.9939 24.4191 4.66135 20.7244 1.90885Z" fill="#2E90FA"/>
<path d="M13.333 23.2143L17.4402 25.9524L25.6544 15" stroke="white" stroke-width="2" stroke-linecap="round" stroke-linejoin="round"/>
</svg>
