<svg width="64" height="64" viewBox="0 0 64 64" fill="none" xmlns="http://www.w3.org/2000/svg">
<path d="M9.20717 61.5343H50.3499C52.8747 61.5343 54.9214 59.4877 54.9214 56.9629V27.2485H4.63574V56.9629C4.63574 59.4877 6.68242 61.5343 9.20717 61.5343Z" fill="white"/>
<path d="M50.3499 15.8203H9.20717C6.68242 15.8203 4.63574 17.867 4.63574 20.3917V27.2489H54.9214V20.3917C54.9214 17.867 52.8747 15.8203 50.3499 15.8203Z" fill="#C4E5FF"/>
<path d="M20.9702 15.8203H9.20717C7.99474 15.8203 6.83199 16.302 5.97467 17.1593C5.11734 18.0166 4.63574 19.1794 4.63574 20.3917V56.9632C4.63574 58.1756 5.11734 59.3385 5.97467 60.1957C6.83199 61.0528 7.99474 61.5346 9.20717 61.5346H50.3499C52.8747 61.5346 54.9214 59.488 54.9214 56.9632V38.6775" stroke="#2E90FA" stroke-width="3" stroke-linecap="round" stroke-linejoin="round"/>
<path d="M4.63574 27.2485H28.6382" stroke="#2E90FA" stroke-width="3" stroke-linecap="round" stroke-linejoin="round"/>
<path d="M16.0654 50.105L22.9226 43.2478L16.0654 36.3906" stroke="#2E90FA" stroke-width="3" stroke-linecap="round" stroke-linejoin="round"/>
<path d="M29.7793 50.1055H36.6364" stroke="#2E90FA" stroke-width="3" stroke-linecap="round" stroke-linejoin="round"/>
<path d="M31.5528 18.1629C29.9485 17.8838 29.9485 15.5808 31.5528 15.3017C37.3647 14.2906 41.9873 9.86381 43.2488 4.10106L43.3455 3.65932C43.6926 2.0738 45.9503 2.06393 46.311 3.64636L46.4285 4.16115C47.7368 9.89672 52.3603 14.2861 58.1565 15.2944C59.7688 15.5749 59.7688 17.8897 58.1565 18.1702C52.3603 19.1785 47.7368 23.5679 46.4285 29.3035L46.311 29.8183C45.9503 31.4007 43.6926 31.3908 43.3455 29.8053L43.2488 29.3636C41.9873 23.6008 37.3647 19.174 31.5528 18.1629Z" fill="white"/>
<path d="M31.5528 18.1629C29.9485 17.8838 29.9485 15.5808 31.5528 15.3017C37.3647 14.2906 41.9873 9.86381 43.2488 4.10106L43.3455 3.65932C43.6926 2.0738 45.9503 2.06393 46.311 3.64636L46.4285 4.16115C47.7368 9.89672 52.3603 14.2861 58.1565 15.2944C59.7688 15.5749 59.7688 17.8897 58.1565 18.1702C52.3603 19.1785 47.7368 23.5679 46.4285 29.3035L46.311 29.8183C45.9503 31.4007 43.6926 31.3908 43.3455 29.8053L43.2488 29.3636C41.9873 23.6008 37.3647 19.174 31.5528 18.1629Z" stroke="#2E90FA" stroke-width="3" stroke-linecap="round" stroke-linejoin="round"/>
</svg>
