<svg width="40" height="40" viewBox="0 0 40 40" fill="none" xmlns="http://www.w3.org/2000/svg">
<path d="M24.286 1.42871H15.7146C14.1366 1.42871 12.8574 2.7079 12.8574 4.28585V5.71442C12.8574 7.29237 14.1366 8.57157 15.7146 8.57157H24.286C25.8639 8.57157 27.1431 7.29237 27.1431 5.71442V4.28585C27.1431 2.7079 25.8639 1.42871 24.286 1.42871Z" fill="#2E90FA"/>
<path d="M10.8569 4.28613H7.85714C7.09937 4.28613 6.37266 4.58716 5.83683 5.12296C5.30103 5.65879 5 6.3855 5 7.14328V35.7147C5 36.4724 5.30103 37.1993 5.83683 37.735C6.37266 38.2707 7.09937 38.5718 7.85714 38.5718H32.1429C32.9006 38.5718 33.6274 38.2707 34.1631 37.735C34.6989 37.1993 35 36.4724 35 35.7147V7.14328C35 6.3855 34.6989 5.65879 34.1631 5.12296C33.6274 4.58716 32.9006 4.28613 32.1429 4.28613H29.1426V5.71443C29.1426 8.39694 26.968 10.5716 24.2855 10.5716H15.7141C13.0316 10.5716 10.8569 8.39694 10.8569 5.71443V4.28613Z" fill="#2E90FA"/>
<path d="M20 17.1431V31.4288" stroke="white" stroke-width="2" stroke-linecap="round" stroke-linejoin="round"/>
<path d="M27.1431 24.2856H12.8574" stroke="white" stroke-width="2" stroke-linecap="round" stroke-linejoin="round"/>
</svg>
