<svg width="12" height="14" viewBox="0 0 12 14" fill="none" xmlns="http://www.w3.org/2000/svg">
<path d="M4.5 4.05371C4.5 3.75704 4.58797 3.46703 4.7528 3.22036C4.91762 2.97368 5.15189 2.78142 5.42597 2.66789C5.70006 2.55436 6.00166 2.52466 6.29264 2.58253C6.58361 2.64041 6.85088 2.78327 7.06066 2.99305C7.27044 3.20283 7.4133 3.4701 7.47118 3.76108C7.52906 4.05205 7.49935 4.35365 7.38582 4.62774C7.27229 4.90183 7.08003 5.13609 6.83336 5.30092C6.58668 5.46574 6.29667 5.55371 6 5.55371V6.05371" stroke="#2E90FA" stroke-linecap="round" stroke-linejoin="round"/>
<path d="M6 8.11621C5.86193 8.11621 5.75 8.00428 5.75 7.86621C5.75 7.72814 5.86193 7.61621 6 7.61621" stroke="#2E90FA" stroke-linecap="round" stroke-linejoin="round"/>
<path d="M6 8.11621C6.13807 8.11621 6.25 8.00428 6.25 7.86621C6.25 7.72814 6.13807 7.61621 6 7.61621" stroke="#2E90FA" stroke-linecap="round" stroke-linejoin="round"/>
<path d="M11.5 13.5H2C1.60218 13.5 1.22064 13.342 0.93934 13.0607C0.65804 12.7794 0.5 12.3978 0.5 12C0.5 11.6022 0.65804 11.2206 0.93934 10.9393C1.22064 10.658 1.60218 10.5 2 10.5H10.5C10.7652 10.5 11.0196 10.3946 11.2071 10.2071C11.3946 10.0196 11.5 9.76522 11.5 9.5V1.5C11.5 1.23478 11.3946 0.98043 11.2071 0.792893C11.0196 0.605357 10.7652 0.5 10.5 0.5H2C1.60901 0.499861 1.23342 0.652394 0.95324 0.925105C0.67305 1.19782 0.51043 1.56915 0.5 1.96V11.96" stroke="#2E90FA" stroke-linecap="round" stroke-linejoin="round"/>
<path d="M10.5 10.5V13.5" stroke="#2E90FA" stroke-linecap="round" stroke-linejoin="round"/>
</svg>
