<svg xmlns="http://www.w3.org/2000/svg" fill="none" viewBox="0 0 93 107"><path fill="#fff" d="m.035 83.877 46 22.666 46-22.666V.543h-92v83.334z"/><path fill="#fff" d="m.035 83.877 46 22.666 46-22.666V.543h-92v83.334z"/><path fill="#000" d="M16.5 13.25v-4.9h3.14v.87l-2.18.01v1.17h1.82v.88h-1.82v1.97Zm7.97 0-1.88-4.9h.96l1.94 4.9Zm-3.87 0 1.93-4.9h.96l-1.88 4.9Zm.91-1.08v-.84h3.07v.84Zm5.26 1.08v-4.9h.96v4.03h2.16v.87Zm4.46 0v-4.9h.96v4.03h2.16v.87Zm6.65 0v-.71q0-.2.13-.44.12-.25.35-.49.22-.25.52-.46l.75-.53q.15-.11.29-.24.13-.13.22-.29.09-.16.09-.3 0-.19-.09-.33-.09-.15-.26-.23-.16-.09-.41-.09-.21 0-.37.09-.17.08-.27.22-.11.14-.15.3l-.99-.17q.07-.35.3-.65.24-.3.61-.49.37-.18.85-.18.55 0 .94.2.39.19.6.53.22.34.22.79t-.25.81q-.25.35-.68.66l-.67.48q-.2.14-.35.31-.15.17-.22.37h2.23v.84Zm6.67.08q-.6 0-1.05-.32-.46-.33-.72-.9-.26-.57-.26-1.31 0-.74.26-1.31.26-.57.71-.9.45-.32 1.05-.32.59 0 1.05.32.46.33.72.9.26.57.26 1.31 0 .74-.26 1.31-.26.57-.71.9-.46.32-1.05.32Zm0-.86q.31 0 .56-.22.25-.21.39-.59.14-.37.14-.86t-.14-.87q-.14-.38-.39-.59-.25-.21-.57-.21-.32 0-.56.21-.25.21-.38.59-.14.38-.14.87t.14.86q.13.38.38.59.25.22.57.22Zm3.32.78v-.71q0-.2.13-.44.12-.25.35-.49.22-.25.52-.46l.74-.53q.16-.11.3-.24.13-.13.22-.29.09-.16.09-.3 0-.19-.09-.33-.09-.15-.26-.23-.16-.09-.41-.09-.21 0-.37.09-.17.08-.27.22-.11.14-.15.3l-.99-.17q.07-.35.3-.65.23-.3.61-.49.37-.18.85-.18.55 0 .94.2.39.19.6.53.22.34.22.79t-.25.81q-.25.35-.68.66l-.67.48q-.2.14-.35.31-.15.17-.22.37h2.23v.84Zm6.45.08q-.34 0-.69-.11-.35-.11-.64-.33-.28-.23-.41-.56l.87-.26q.15.23.37.33.21.11.44.11.37 0 .59-.22.23-.22.23-.59 0-.35-.22-.58-.22-.23-.58-.23-.22 0-.4.1-.18.1-.28.23l-.86-.19.29-2.68h2.77v.87h-1.95l-.14 1.17q.19-.1.42-.17.23-.06.5-.06.4 0 .72.2.33.19.53.52.19.33.19.77 0 .5-.23.88-.22.38-.61.59-.39.21-.91.21Z" style="white-space:pre"/><g fill="#000" style="white-space:pre"><path d="M13.74 46.75v-9.1h3.18q.94 0 1.66.29.71.28 1.11.87.41.58.41 1.48 0 .48-.26.9-.25.43-.69.76.62.33.95.85.33.53.33 1.3 0 .86-.39 1.45t-1.07.89q-.69.31-1.62.31Zm2.04-1.85h1.34q.53 0 .84-.28.32-.27.32-.72 0-.46-.33-.73-.32-.27-.9-.27h-1.27Zm0-3.67h1.08q.49 0 .79-.26.3-.25.3-.71 0-.46-.32-.72-.32-.25-.85-.25h-1Zm8.83 5.68q-1.02 0-1.8-.44-.78-.43-1.22-1.2-.44-.77-.44-1.77 0-1.01.45-1.78t1.23-1.2q.78-.43 1.8-.43.93 0 1.67.45.74.44 1.17 1.31.44.87.44 2.17h-4.89l.22-.25q0 .45.18.78.19.34.51.52.33.17.73.17.48 0 .81-.21.33-.22.46-.54l1.8.61q-.26.61-.74 1.01-.47.41-1.08.6-.61.2-1.3.2Zm-1.32-3.98-.2-.26H26l-.18.26q0-.48-.2-.77-.19-.28-.48-.41-.29-.12-.57-.12-.29 0-.58.12-.29.13-.49.41-.21.29-.21.77Zm7.92 3.98q-.64 0-1.19-.19-.55-.19-.95-.54-.41-.34-.6-.83l1.66-.71q.17.34.47.5.3.17.61.17.33 0 .51-.11t.18-.31q0-.21-.19-.32-.19-.12-.54-.21l-.56-.14q-.91-.24-1.39-.78-.49-.54-.49-1.25 0-1 .69-1.55t1.91-.55q.69 0 1.21.19.53.18.89.51t.51.77l-1.61.67q-.09-.26-.37-.4t-.62-.14q-.28 0-.44.13-.16.12-.16.33 0 .15.19.26.19.12.55.21l.69.17q.61.15 1.03.47.42.32.62.74.21.42.21.9 0 .62-.35 1.06-.36.45-1 .7-.64.25-1.47.25Zm6.58 0q-1.16 0-1.72-.56-.57-.55-.57-1.58v-6.55h2.03v6.05q0 .39.14.57.15.18.44.18.12 0 .28-.06.15-.06.28-.15l.71 1.49q-.32.26-.75.43-.44.18-.84.18Zm-3.3-4.96v-1.7h4.52v1.7Zm9.15 4.8v-9.1h2.3l2.42 3.59 2.43-3.59h2.3v9.1H51V40.9l-2.63 3.85-2.64-3.85v5.85Zm14.12.16q-1.02 0-1.8-.44-.78-.43-1.22-1.2-.44-.77-.44-1.77 0-1.01.45-1.78t1.23-1.2q.78-.43 1.8-.43.93 0 1.67.45.74.44 1.17 1.31.44.87.44 2.17h-4.89l.22-.25q0 .45.19.78.18.34.5.52.33.17.73.17.48 0 .81-.21.33-.22.46-.54l1.8.61q-.26.61-.74 1.01-.47.41-1.08.6-.61.2-1.3.2Zm-1.32-3.98-.2-.26h2.91l-.18.26q0-.48-.2-.77-.19-.28-.48-.41-.28-.12-.57-.12-.29 0-.58.12-.29.13-.49.41-.21.29-.21.77Zm8.6 3.98q-1.02 0-1.8-.44-.78-.43-1.22-1.2-.44-.77-.44-1.77 0-1.01.45-1.78t1.23-1.2q.78-.43 1.8-.43.93 0 1.67.45.74.44 1.17 1.31.44.87.44 2.17h-4.89l.22-.25q0 .45.19.78.18.34.5.52.33.17.73.17.48 0 .81-.21.33-.22.46-.54l1.8.61q-.26.61-.74 1.01-.47.41-1.08.6-.61.2-1.3.2Zm-1.32-3.98-.2-.26h2.91l-.18.26q0-.48-.2-.77-.19-.28-.48-.41-.28-.12-.57-.12-.29 0-.58.12-.29.13-.49.41-.21.29-.21.77Zm8.27 3.98q-1.15 0-1.72-.56-.56-.55-.56-1.58v-6.55h2.02v6.05q0 .39.15.57.14.18.44.18.12 0 .27-.06.16-.06.29-.15l.7 1.49q-.31.26-.75.43-.43.18-.84.18Zm-3.3-4.96v-1.7h4.52v1.7Zm8.33 4.96q-.63 0-1.19-.19-.55-.19-.95-.54-.4-.34-.6-.83l1.67-.71q.16.34.46.5.3.17.61.17.33 0 .51-.11t.18-.31q0-.21-.19-.32-.18-.12-.53-.21l-.56-.14q-.91-.24-1.4-.78-.49-.54-.49-1.25 0-1 .69-1.55t1.91-.55q.69 0 1.22.19.52.18.88.51t.51.77l-1.61.67q-.09-.26-.37-.4t-.62-.14q-.28 0-.44.13-.15.12-.15.33 0 .15.18.26.19.12.56.21l.69.17q.61.15 1.02.47.42.32.63.74.21.42.21.9 0 .62-.36 1.06-.36.45-1 .7-.63.25-1.47.25ZM4.97 59.75v-9.1h3.57q.99 0 1.76.38.76.39 1.2 1.07.43.68.43 1.57 0 .88-.44 1.57-.44.69-1.21 1.07-.78.39-1.78.39H7.06v3.05Zm4.94 0-2.06-3.61 1.57-1.16 2.88 4.77Zm-2.85-4.98h1.42q.36 0 .65-.14.28-.14.44-.4.17-.25.17-.56 0-.48-.36-.8-.36-.31-.94-.31H7.06Zm9.31 5.14q-1.02 0-1.8-.44-.78-.43-1.22-1.2-.44-.77-.44-1.77 0-1.01.45-1.78.44-.77 1.22-1.2.78-.43 1.81-.43.92 0 1.67.45.74.44 1.17 1.31.44.87.44 2.17h-4.89l.22-.25q0 .45.18.78.18.34.51.52.32.17.73.17.48 0 .81-.21.33-.22.46-.54l1.8.61q-.26.61-.74 1.01-.47.41-1.08.6-.61.2-1.3.2Zm-1.32-3.98-.2-.26h2.91l-.19.26q0-.48-.19-.77-.2-.28-.48-.41-.29-.12-.57-.12-.29 0-.58.12-.29.13-.5.41-.2.29-.2.77Zm9.92 6.42v-7.89l.12-1.21H27v9.1Zm-1.84-2.44q-.91 0-1.57-.41t-1.01-1.18q-.36-.77-.36-1.82 0-1.07.36-1.83.35-.76 1.01-1.17.66-.41 1.57-.41.8 0 1.35.41.56.41.83 1.17.27.76.27 1.83 0 1.05-.27 1.82t-.83 1.18q-.55.41-1.35.41Zm.53-1.88q.38 0 .68-.19.29-.2.46-.54.17-.34.17-.8 0-.45-.17-.8-.17-.34-.47-.54-.29-.19-.68-.19-.39 0-.69.19-.3.2-.48.54-.17.35-.19.8.02.46.19.8.18.34.48.54.31.19.7.19Zm8.85 1.72-.11-1.2-.01-5.3h2.03v6.5Zm-4.3-3.17v-3.33h2.03v3.33Zm2.03 0q0 .51.11.82.12.31.34.45.22.15.52.16.59 0 .89-.33.3-.33.3-1h.61q0 1.03-.32 1.75-.31.72-.85 1.1-.54.38-1.25.38-.78 0-1.31-.32-.54-.32-.8-.97-.27-.65-.27-1.66v-.38Zm5.63 3.17v-6.5h2.02v6.5Zm1.01-7.33q-.46 0-.8-.35-.34-.34-.34-.8 0-.48.34-.81.34-.33.8-.33.47 0 .81.33.33.33.33.81 0 .46-.33.8-.34.35-.81.35Zm3.95 3.96q0-1.05.42-1.75.43-.7 1.07-1.05.64-.36 1.35-.36v1.98q-.6 0-1.13.13-.53.13-.85.4-.33.26-.33.68Zm-1.49 3.37v-6.5h2.02v6.5Zm8.29.16q-1.01 0-1.79-.44-.78-.43-1.22-1.2-.45-.77-.45-1.77 0-1.01.45-1.78t1.23-1.2q.78-.43 1.81-.43.92 0 1.66.45.74.44 1.18 1.31.43.87.43 2.17h-4.88l.22-.25q0 .45.18.78.18.34.51.52.32.17.72.17.48 0 .82-.21.33-.22.46-.54l1.79.61q-.26.61-.73 1.01-.48.41-1.09.6-.61.2-1.3.2Zm-1.31-3.98-.21-.26h2.91l-.18.26q0-.48-.19-.77-.2-.28-.49-.41-.28-.12-.57-.12-.28 0-.58.12-.29.13-.49.41-.2.29-.2.77Zm5.47 3.82v-6.5h1.91l.08.82q.31-.48.77-.73.47-.25 1.02-.25.81 0 1.34.34.52.33.77 1 .3-.65.82-.99.52-.35 1.17-.35 1.17 0 1.76.72.59.71.58 2.22v3.72h-2.03v-3.33q0-.52-.11-.82-.11-.31-.32-.45-.21-.14-.49-.16-.56-.01-.85.32-.3.33-.3 1.01v3.43h-2.02v-3.33q0-.52-.11-.82-.11-.31-.32-.45-.21-.14-.5-.16-.56-.01-.85.32-.29.33-.29 1.01v3.43Zm14.57.16q-1.01 0-1.79-.44-.78-.43-1.22-1.2-.44-.77-.44-1.77 0-1.01.44-1.78.45-.77 1.23-1.2.78-.43 1.81-.43.92 0 1.66.45.75.44 1.18 1.31.44.87.44 2.17h-4.89l.22-.25q0 .45.18.78.18.34.51.52.32.17.73.17.48 0 .81-.21.33-.22.46-.54l1.79.61q-.26.61-.73 1.01-.47.41-1.09.6-.61.2-1.3.2Zm-1.31-3.98-.21-.26h2.92l-.19.26q0-.48-.19-.77-.2-.28-.48-.41-.29-.12-.57-.12-.29 0-.58.12-.3.13-.5.41-.2.29-.2.77Zm5.47 3.82v-6.5h1.92l.11 1.2v5.3Zm4.19 0v-3.33h2.03v3.33Zm0-3.33q0-.52-.12-.82-.11-.31-.33-.45-.21-.14-.52-.16-.59-.01-.89.32-.3.33-.3 1.01h-.61q0-1.03.31-1.75.32-.72.85-1.1.54-.38 1.26-.38.78 0 1.31.32.54.32.8.97.27.65.27 1.67v.37Zm6.06 3.49q-1.16 0-1.72-.56-.57-.55-.57-1.58v-6.55h2.03v6.05q0 .39.14.57.14.18.44.18.12 0 .28-.06.15-.06.28-.15l.7 1.49q-.31.26-.74.43-.44.18-.84.18Zm-3.3-4.96v-1.7h4.52v1.7Zm8.33 4.96q-.64 0-1.19-.19-.55-.19-.96-.54-.4-.34-.59-.83l1.66-.71q.17.34.47.5.3.17.61.17.32 0 .51-.11.18-.11.18-.31 0-.21-.19-.32-.19-.12-.54-.21l-.56-.14q-.91-.24-1.4-.78-.48-.54-.48-1.25 0-1 .69-1.55.68-.55 1.91-.55.69 0 1.21.19.53.18.89.51.35.33.51.77l-1.61.67q-.09-.26-.37-.4t-.62-.14q-.29 0-.44.13-.16.12-.16.33 0 .15.19.26.19.12.55.21l.69.17q.61.15 1.03.47.41.32.62.74.21.42.21.9 0 .62-.36 1.06-.35.45-.99.7-.64.25-1.47.25Z"/></g><path fill="#FF492C" d="M71.035.543h21v21h-21z"/><g clip-path="url(#a)"><path fill="#fff" fill-rule="evenodd" d="M86.086 8.585h-1.794c.049-.281.222-.438.574-.616l.331-.168c.591-.303.906-.644.906-1.2a.972.972 0 0 0-.407-.828c-.266-.2-.591-.298-.965-.298a1.5 1.5 0 0 0-.819.233 1.383 1.383 0 0 0-.542.59l.52.519c.201-.406.494-.606.879-.606.325 0 .526.168.526.4 0 .195-.098.357-.472.546l-.211.103c-.461.233-.781.498-.965.8-.185.298-.277.682-.277 1.142v.124h2.716v-.74zm-.245 1.6h-2.966l-1.483 2.57h2.966l1.483 2.57 1.484-2.57-1.484-2.57z" clip-rule="evenodd"/><path fill="#fff" fill-rule="evenodd" d="M81.644 14.472a3.433 3.433 0 0 1-3.43-3.428 3.433 3.433 0 0 1 3.43-3.427l1.174-2.456a6 6 0 0 0-7.176 5.883 6 6 0 0 0 6.002 5.999 5.978 5.978 0 0 0 3.535-1.15l-1.3-2.252a3.417 3.417 0 0 1-2.235.831z" clip-rule="evenodd"/><path stroke="#000" stroke-width="1.085" d="M71.524 1.21v19.868"/></g><path fill="#FFC800" d="M.035 84.063v-6.5l46 23.042 46-23.042v6.5l-46 22.48-46-22.48z"/><path fill="#FFF" d="M.035 78.109v-6.5l46 23.042 46-23.042v6.5l-46 22.48-46-22.48z"/><path fill="#FFF" d="M.035 72.174v-6.5l46 23.043 46-23.043v6.5l-46 22.48-46-22.48z"/><path stroke="#000" stroke-width="1.085" d="m91.492 83.54-45.457 22.398L.578 83.54V1.086h90.914V83.54zm.118-62.462H.66"/><defs><clipPath id="a"><path fill="#fff" d="M0 0h21v21H0z" transform="translate(71.035 .543)"/></clipPath></defs></svg>
